<?xml version="1.0" encoding="UTF-8" standalone="no"?>
<svg width="104px" height="33px" viewBox="0 0 104 33" version="1.1" xmlns="http://www.w3.org/2000/svg" xmlns:xlink="http://www.w3.org/1999/xlink">
    <!-- Generator: Sketch 3.8.3 (29802) - http://www.bohemiancoding.com/sketch -->
    <title>images/logo-mark-inverted</title>
    <desc>Created with Sketch.</desc>
    <defs></defs>
    <g id="Logos" stroke="none" stroke-width="1" fill="none" fill-rule="evenodd">
        <g id="images/logo-mark-inverted">
            <g id="Group">
                <path d="M25.7216667,7.7 C25.7216667,6.80166667 25.0066667,6.08666667 24.1083333,6.08666667 L19.58,6.08666667 C19.58,2.64 16.7933333,0 13.255,0 C9.71666667,0 6.93,2.64 6.93,6.08666667 L2.42,6.08666667 C1.52166667,6.08666667 0.806666667,6.80166667 0.806666667,7.7 L0.0733333333,27.2983333 C0.0733333333,28.1966667 0.788333333,28.9116667 1.68666667,28.9116667 L5.225,28.9116667 L5.225,32.8716667 L11.8066667,28.9116667 L24.86,28.9116667 C25.7583333,28.9116667 26.4733333,28.1966667 26.4733333,27.2983333 L25.7216667,7.7 L25.7216667,7.7 Z M8.58,6.08666667 C8.58,3.575 10.6333333,1.65 13.255,1.65 C15.8766667,1.65 17.93,3.575 17.93,6.08666667 L8.58,6.08666667 L8.58,6.08666667 Z" id="Logo" fill="#35DD69"></path>
                <path d="M6.50833333,19.7083333 L20.0016667,19.7083333 L20.0016667,20.9916667 L6.50833333,20.9916667 L6.50833333,19.7083333 Z M6.50833333,16.9033333 L20.0016667,16.9033333 L20.0016667,18.1866667 L6.50833333,18.1866667 L6.50833333,16.9033333 Z M6.50833333,14.0983333 L13.0716667,14.0983333 L13.0716667,15.3816667 L6.50833333,15.3816667 L6.50833333,14.0983333 Z M17.93,6.105 L19.58,6.105 L19.58,8.65333333 L17.93,8.65333333 L17.93,6.105 Z M6.93,6.105 L8.58,6.105 L8.58,8.65333333 L6.93,8.65333333 L6.93,6.105 Z" id="Logo-Inner" fill="#FFFFFF"></path>
                <path d="M35.9516667,11.6783333 C35.31,11.6783333 34.705,11.7516667 34.155,11.8983333 C33.5866667,12.0633333 33.0916667,12.3016667 32.67,12.595 C32.23,12.9066667 31.9,13.2916667 31.68,13.7316667 C31.4233333,14.2083333 31.295,14.7216667 31.295,15.3083333 C31.295,15.8216667 31.3866667,16.2616667 31.5516667,16.665 C31.7166667,17.0316667 31.9366667,17.3433333 32.2483333,17.6366667 C32.505,17.8933333 32.835,18.1316667 33.2016667,18.3333333 L34.32,18.8466667 C34.8333333,19.0483333 35.5116667,19.305 36.3916667,19.635 C36.7033333,19.7816667 36.9233333,19.9283333 37.0883333,20.1116667 C37.2533333,20.295 37.345,20.4966667 37.345,20.735 C37.345,21.12 37.1983333,21.4133333 36.8866667,21.6333333 C36.5933333,21.8533333 36.1716667,21.9633333 35.6583333,21.9633333 C35.1083333,21.9633333 34.5766667,21.8533333 34.045,21.6516667 L32.9266667,21.12 C32.615,20.9733333 32.3583333,20.9 32.1566667,20.9366667 C31.9366667,20.9733333 31.735,21.1016667 31.57,21.34 L31.2766667,21.78 C31.0933333,22.055 31.02,22.3116667 31.0566667,22.55 C31.0933333,22.8066667 31.24,22.99 31.4966667,23.1366667 C32.9083333,23.9616667 34.265,24.3833333 35.5666667,24.3833333 C36.2633333,24.3833333 36.8866667,24.2916667 37.4733333,24.09 C38.0416667,23.9066667 38.5183333,23.65 38.9216667,23.32 C39.325,22.99 39.6366667,22.5866667 39.8566667,22.1283333 C40.0766667,21.67 40.1866667,21.175 40.1866667,20.6433333 C40.1866667,20.1483333 40.095,19.7083333 39.93,19.305 C39.7833333,18.9566667 39.545,18.6266667 39.2333333,18.3516667 C38.9766667,18.095 38.6466667,17.875 38.28,17.655 L37.1616667,17.16 C36.1533333,16.83 35.4566667,16.5733333 35.09,16.39 C34.7783333,16.2433333 34.5583333,16.0966667 34.3933333,15.9316667 C34.2283333,15.7483333 34.1366667,15.5283333 34.1366667,15.29 C34.1366667,14.905 34.2833333,14.6116667 34.5583333,14.41 C34.8333333,14.2083333 35.2366667,14.0983333 35.7683333,14.0983333 C36.4466667,14.0983333 37.2166667,14.3 38.0783333,14.685 C38.39,14.8316667 38.6466667,14.8683333 38.8483333,14.8133333 C39.0866667,14.7583333 39.27,14.575 39.3983333,14.3 L39.655,13.86 C39.7833333,13.585 39.82,13.3283333 39.765,13.1083333 C39.71,12.87 39.545,12.6683333 39.2883333,12.5216667 C38.17,11.9533333 37.0333333,11.6783333 35.9516667,11.6783333 L35.9516667,11.6783333 L35.9516667,11.6783333 Z M42.35,7.44333333 C42.185,7.60833333 42.0933333,7.865 42.0933333,8.195 L42.0933333,23.1183333 C42.0933333,23.4483333 42.185,23.6866667 42.35,23.87 C42.515,24.035 42.7716667,24.1266667 43.0833333,24.1266667 L44.11,24.1266667 C44.77,24.1266667 45.1183333,23.7966667 45.1183333,23.1366667 L45.1183333,18.48 C45.1183333,17.9116667 45.21,17.38 45.375,16.8666667 C45.54,16.3716667 45.76,15.95 46.0716667,15.5833333 C46.3833333,15.2166667 46.75,14.9416667 47.19,14.7583333 C47.63,14.5566667 48.1066667,14.4466667 48.6383333,14.4466667 C49.005,14.4466667 49.3166667,14.5016667 49.5733333,14.6116667 C49.8116667,14.7216667 49.995,14.905 50.1416667,15.125 C50.3983333,15.51 50.5266667,16.115 50.5266667,16.9216667 L50.5266667,23.1183333 C50.5266667,23.7783333 50.8566667,24.1083333 51.5166667,24.1083333 L52.5433333,24.1083333 C52.8733333,24.1083333 53.1116667,24.0166667 53.295,23.8516667 C53.46,23.6866667 53.5516667,23.43 53.5516667,23.1 L53.5516667,16.28 C53.5516667,15.4916667 53.46,14.795 53.2766667,14.2083333 C53.0933333,13.6216667 52.8183333,13.145 52.4516667,12.76 C52.085,12.3933333 51.645,12.1183333 51.1133333,11.9166667 C50.6,11.7333333 49.995,11.66 49.3166667,11.66 C48.8216667,11.66 48.3266667,11.7333333 47.85,11.88 C47.4283333,12.0083333 47.025,12.21 46.64,12.4483333 C46.2916667,12.6683333 45.98,12.9433333 45.7233333,13.255 C45.4666667,13.53 45.265,13.8233333 45.1,14.135 L45.0633333,14.135 C45.1183333,13.8416667 45.1366667,13.5116667 45.1366667,13.1083333 L45.1366667,8.195 C45.1366667,7.865 45.045,7.62666667 44.88,7.44333333 C44.715,7.27833333 44.4583333,7.18666667 44.1283333,7.18666667 L43.0833333,7.18666667 C42.7716667,7.18666667 42.5333333,7.27833333 42.35,7.44333333 L42.35,7.44333333 L42.35,7.44333333 Z M81.6383333,12.9616667 C81.6383333,12.6316667 81.5466667,12.375 81.3816667,12.2283333 C81.2166667,12.0633333 80.96,11.9716667 80.6483333,11.9716667 L79.6216667,11.9716667 C79.2916667,11.9716667 79.035,12.0633333 78.87,12.2283333 C78.705,12.3933333 78.6133333,12.6316667 78.6133333,12.9616667 L78.6133333,17.5266667 C78.6133333,18.0766667 78.54,18.59 78.3933333,19.085 C78.2466667,19.58 78.0266667,20.02 77.7516667,20.3866667 C77.4583333,20.7716667 77.0916667,21.065 76.67,21.285 C76.23,21.505 75.7533333,21.6333333 75.2216667,21.6333333 C74.855,21.6333333 74.5433333,21.5783333 74.2866667,21.4683333 C74.0483333,21.3583333 73.8466667,21.175 73.7183333,20.955 C73.4616667,20.57 73.3333333,19.965 73.3333333,19.1583333 L73.3333333,12.9616667 C73.3333333,12.6316667 73.2416667,12.375 73.0766667,12.2283333 C72.9116667,12.0633333 72.655,11.9716667 72.3433333,11.9716667 L71.3166667,11.9716667 C70.9866667,11.9716667 70.7483333,12.0633333 70.565,12.2283333 C70.4,12.3933333 70.3083333,12.6316667 70.3083333,12.9616667 L70.3083333,19.7633333 C70.3083333,20.5883333 70.4,21.285 70.6016667,21.89 C70.785,22.4766667 71.06,22.9533333 71.4266667,23.3383333 C71.7933333,23.705 72.2333333,23.98 72.7466667,24.145 C73.26,24.31 73.8466667,24.4016667 74.5066667,24.4016667 C75.0016667,24.4016667 75.4783333,24.3283333 75.955,24.1633333 C76.395,24.035 76.7983333,23.8333333 77.1833333,23.5766667 C77.5316667,23.3383333 77.8433333,23.0816667 78.1,22.77 C78.3566667,22.4766667 78.5766667,22.165 78.7233333,21.835 L78.76,21.835 C78.7233333,22.0183333 78.7233333,22.2016667 78.7233333,22.385 L78.7233333,23.1 C78.7233333,23.43 78.815,23.6683333 78.98,23.8516667 C79.145,24.0166667 79.3833333,24.1083333 79.7133333,24.1083333 L80.6483333,24.1083333 C80.96,24.1083333 81.2166667,24.0166667 81.3816667,23.8516667 C81.565,23.6866667 81.6383333,23.43 81.6383333,23.1 L81.6383333,12.9616667 L81.6383333,12.9616667 L81.6383333,12.9616667 Z M68.09,15.4733333 C67.76,14.7033333 67.265,14.025 66.6416667,13.4566667 C66.0366667,12.8883333 65.3216667,12.4483333 64.515,12.1366667 C63.69,11.825 62.8283333,11.6783333 61.9116667,11.6783333 C60.995,11.6783333 60.1333333,11.825 59.3083333,12.1366667 C58.52,12.4483333 57.805,12.8883333 57.1816667,13.4566667 C56.5766667,14.025 56.1,14.7033333 55.7516667,15.4733333 C55.4033333,16.555 55.22,17.4166667 55.22,18.04 C55.22,18.4983333 55.2566667,18.9566667 55.3666667,19.3966667 L55.7516667,20.6066667 C56.1,21.3766667 56.5766667,22.055 57.1816667,22.6233333 C57.805,23.1916667 58.5016667,23.6133333 59.3083333,23.925 C60.1333333,24.2366667 61.0133333,24.4016667 61.9116667,24.4016667 C62.8283333,24.4016667 63.69,24.2366667 64.515,23.925 C65.3216667,23.6133333 66.0366667,23.1916667 66.6416667,22.6233333 C67.265,22.055 67.7416667,21.3766667 68.09,20.6066667 L68.475,19.3966667 C68.5666667,18.9566667 68.6033333,18.4983333 68.6033333,18.04 C68.6033333,17.4166667 68.42,16.555 68.09,15.4733333 L68.09,15.4733333 L68.09,15.4733333 Z M63.305,14.52 C63.745,14.7033333 64.13,14.96 64.46,15.29 C64.8083333,15.6383333 65.065,16.0416667 65.23,16.5 C65.4316667,16.9766667 65.5233333,17.4716667 65.5233333,18.04 C65.5233333,18.59 65.4316667,19.1033333 65.23,19.58 C65.0466667,20.0383333 64.79,20.4416667 64.46,20.79 C64.13,21.12 63.745,21.3766667 63.305,21.56 C62.865,21.7433333 62.4066667,21.8166667 61.9116667,21.8166667 C61.4166667,21.8166667 60.9583333,21.725 60.5,21.56 C60.06,21.3766667 59.6933333,21.12 59.3633333,20.79 C59.015,20.4416667 58.7583333,20.0383333 58.5933333,19.58 C58.41,19.1033333 58.3,18.59 58.3,18.04 C58.3,17.49 58.3916667,16.9766667 58.5933333,16.5 C58.7766667,16.0416667 59.0333333,15.6383333 59.3633333,15.29 C59.6933333,14.9416667 60.06,14.685 60.5,14.52 C60.94,14.3366667 61.4166667,14.245 61.9116667,14.245 C62.4066667,14.245 62.865,14.3366667 63.305,14.52 L63.305,14.52 L63.305,14.52 Z M94.5083333,12.705 C94.5083333,12.3016667 94.325,12.1183333 93.94,12.1183333 L93.4816667,12.1183333 C93.0966667,12.1183333 92.895,12.32 92.895,12.705 L92.895,23.5033333 C92.895,23.9066667 93.0966667,24.09 93.4816667,24.09 L93.94,24.09 C94.325,24.09 94.5083333,23.8883333 94.5083333,23.5033333 L94.5083333,12.705 L94.5083333,12.705 L94.5083333,12.705 Z M98.9083333,8.81833333 C98.505,8.81833333 98.3216667,9.02 98.3216667,9.405 L98.3216667,12.2283333 L97.295,12.2283333 C96.91,12.2283333 96.7083333,12.43 96.7083333,12.815 L96.7083333,13.0166667 C96.7083333,13.4016667 96.91,13.585 97.295,13.585 L98.3033333,13.585 L98.3033333,19.8 C98.3033333,20.4966667 98.395,21.12 98.5783333,21.67 C98.7616667,22.22 99.0366667,22.6966667 99.4033333,23.0633333 C99.77,23.4483333 100.21,23.7416667 100.723333,23.925 C101.255,24.1266667 101.841667,24.2183333 102.501667,24.2183333 C102.941667,24.2183333 103.161667,24.035 103.161667,23.65 L103.161667,23.3383333 C103.161667,22.99 102.941667,22.7883333 102.52,22.7516667 C101.823333,22.715 101.273333,22.5316667 100.87,22.2016667 C100.576667,21.9633333 100.338333,21.6516667 100.191667,21.2666667 C100.008333,20.8266667 99.9166667,20.2766667 99.9166667,19.6166667 L99.9166667,13.6033333 L102.336667,13.6033333 C102.74,13.6033333 102.923333,13.42 102.923333,13.035 L102.923333,12.8333333 C102.923333,12.4483333 102.721667,12.2466667 102.336667,12.2466667 L99.9166667,12.2466667 L99.9166667,9.38666667 C99.9166667,9.00166667 99.7333333,8.8 99.3483333,8.8 L98.9083333,8.8 L98.9083333,8.81833333 L98.9083333,8.81833333 Z M93.995,7.35166667 L93.4083333,7.35166667 C93.0233333,7.35166667 92.84,7.55333333 92.84,7.93833333 L92.84,8.8 C92.84,9.185 93.0233333,9.36833333 93.4083333,9.36833333 L93.995,9.36833333 C94.38,9.36833333 94.5633333,9.185 94.5633333,8.8 L94.5633333,7.93833333 C94.5633333,7.55333333 94.38,7.35166667 93.995,7.35166667 L93.995,7.35166667 L93.995,7.35166667 Z M85.9833333,8.65333333 C85.6533333,8.65333333 85.415,8.745 85.25,8.91 C85.085,9.075 84.9933333,9.33166667 84.9933333,9.64333333 L84.9933333,12.1183333 L84.2966667,12.1183333 C83.9666667,12.1183333 83.71,12.21 83.5633333,12.375 C83.3983333,12.54 83.3066667,12.7966667 83.3066667,13.1266667 L83.3066667,13.53 C83.3066667,13.86 83.38,14.1166667 83.545,14.2633333 C83.71,14.4283333 83.9483333,14.52 84.2783333,14.52 L84.92,14.52 L84.92,19.7633333 C84.92,20.5516667 85.0666667,21.2483333 85.36,21.8533333 C85.635,22.4033333 86.0016667,22.8616667 86.4783333,23.2466667 C86.9183333,23.5766667 87.4316667,23.8333333 88.0183333,23.9983333 C88.55,24.1633333 89.1,24.2366667 89.6683333,24.2366667 C90.09,24.2366667 90.4016667,24.1633333 90.6033333,23.9983333 C90.805,23.8516667 90.915,23.595 90.915,23.2283333 L90.915,22.495 C90.915,22.165 90.8416667,21.9266667 90.695,21.78 C90.5483333,21.6333333 90.2733333,21.5416667 89.9066667,21.5233333 C89.3566667,21.4683333 88.935,21.3033333 88.6233333,21.0283333 C88.4216667,20.845 88.2566667,20.625 88.1466667,20.35 C88.0183333,20.0383333 87.945,19.6716667 87.945,19.2316667 L87.945,14.52 L89.7416667,14.52 C90.0533333,14.52 90.2916667,14.4283333 90.4566667,14.2633333 C90.6216667,14.0983333 90.7133333,13.8416667 90.7133333,13.53 L90.7133333,13.1266667 C90.7133333,12.7966667 90.6216667,12.54 90.4566667,12.375 C90.2733333,12.21 90.035,12.1183333 89.7233333,12.1183333 L87.9633333,12.1183333 L87.9633333,9.64333333 C87.9633333,9.31333333 87.8716667,9.075 87.7066667,8.91 C87.5416667,8.745 87.285,8.65333333 86.955,8.65333333 L85.9833333,8.65333333 L85.9833333,8.65333333 L85.9833333,8.65333333 Z" id="Shape" fill="#FFFFFF"></path>
            </g>
        </g>
    </g>
</svg>