<?xml version="1.0" encoding="UTF-8" standalone="no"?>
<svg width="132px" height="36px" viewBox="0 0 132 36" version="1.1" xmlns="http://www.w3.org/2000/svg" xmlns:xlink="http://www.w3.org/1999/xlink">
    <defs></defs>
    <g stroke="none" stroke-width="1" fill="none" fill-rule="evenodd">
        <g>
            <g transform="translate(0.000000, 1.000000)">
                <path d="M91.0258472,13.8180587 L91.0258472,30.3901177 C91.0224373,32.1393906 89.6073335,33.5510845 87.8648804,33.5510845 C86.1224273,33.5510845 84.7073235,32.1393906 84.7073235,30.3935276 L84.7073235,30.1821145 L84.567518,30.1821145 C83.7252755,31.5835787 82.6341112,32.5997255 81.2940249,33.2203253 C79.9539387,33.8443349 78.5831634,34.1546348 77.1782893,34.1546348 C75.4017373,34.1546348 73.9423049,33.9193524 72.806812,33.4521977 C71.6679092,32.985043 70.7745183,32.3235245 70.1198197,31.4642326 C69.4651211,30.6083505 69.0047861,29.5615147 68.7388148,28.3305449 C68.5269006,27.3497626 68.3994084,26.2845584 68.356338,25.1349323 C68.2257376,25.6848544 68.0633893,26.2147061 67.8692932,26.7244873 C67.2759726,28.2828065 66.4337301,29.6160729 65.3425657,30.7242868 C64.2514013,31.8325006 62.9351843,32.6815629 61.3905047,33.2714736 C59.849235,33.8647942 58.1238314,34.1614545 56.2245234,34.1614545 C54.3218055,34.1614545 52.6066315,33.8647942 51.0790013,33.2714736 C49.5513712,32.678153 48.241974,31.8290907 47.1508096,30.7242868 C46.0596452,29.6160729 45.2174027,28.2862164 44.627492,26.7244873 C44.4262271,26.1928224 44.2590974,25.6393269 44.1262383,25.0640007 L44.1262383,30.2366727 C44.1262383,32.0711928 42.6395269,33.5579042 40.8050068,33.5579042 C38.9704867,33.5579042 37.4837752,32.0711928 37.4837752,30.2366727 L37.4837752,19.9013001 C37.4837752,17.9065152 37.1700654,16.4163939 36.5494657,15.4343459 C35.928866,14.452298 34.8206521,13.961274 33.2282341,13.961274 C31.4209931,13.961274 30.1115959,14.5000364 29.3000424,15.5741514 C28.4884889,16.6482663 28.086122,18.4179985 28.086122,20.883348 L28.086122,30.2366727 C28.086122,32.0711928 26.5994105,33.5579042 24.7648904,33.5579042 C22.9303703,33.5579042 21.4436588,32.0711928 21.4436588,30.2366727 L21.4436588,29.1451173 C21.3495288,29.3560673 21.244952,29.5585176 21.1299491,29.7524685 C20.4991197,30.8163538 19.6705167,31.6756457 18.6543699,32.3235245 C17.6348132,32.9714034 16.4686313,33.4283285 15.1558241,33.6908899 C13.843017,33.9534513 12.5063406,34.0830271 11.1492049,34.0830271 C9.76138024,34.0830271 8.40083466,33.9432217 7.07438796,33.6670207 C5.74453138,33.3874098 4.5647099,32.9270748 3.53151363,32.279196 C2.49831736,31.6313171 1.64925508,30.7720252 0.984326787,29.7081399 C0.864980683,29.5205961 0.759274134,29.3228225 0.660387363,29.1182292 C-0.100017812,27.532631 1.15482122,25.7049306 2.91432378,25.7049306 L4.12142437,25.7049306 L4.12142437,25.7015207 C5.08983275,25.7015207 6.03778181,26.2300535 6.39241023,27.1302641 C6.44696845,27.2700695 6.51175633,27.4030552 6.58336399,27.532631 C6.87661442,28.0407044 7.25511206,28.4601207 7.71885692,28.7840601 C8.18260178,29.1079995 8.71454442,29.3466917 9.31809471,29.5035466 C9.92164501,29.6604015 10.5456546,29.735419 11.1935335,29.735419 C11.6572783,29.735419 12.1414825,29.6808608 12.6529658,29.5717444 C13.1644491,29.4626279 13.6247841,29.2921335 14.0442004,29.0602611 C14.4602068,28.8283887 14.8080155,28.5214987 15.0842165,28.1327714 C15.3638273,27.7474539 15.5002229,27.2598399 15.5002229,26.673339 C15.5002229,25.6844713 14.8455243,24.9445255 13.5327171,24.4500916 C12.21991,23.9556577 10.3922096,23.4612239 8.04279635,22.96679 C7.08461763,22.7485571 6.15030813,22.4962254 5.23986786,22.202975 C4.32942758,21.9097245 3.51787407,21.5244071 2.80861723,21.0436128 C2.09936038,20.5662284 1.52649909,19.9626781 1.09344322,19.2363718 C0.660387363,18.5100655 0.445564376,17.6234945 0.445564376,16.5732487 C0.445564376,15.0285692 0.745634579,13.7635005 1.34918488,12.7746328 C1.95273517,11.785765 2.74723923,11.0049005 3.73610695,10.4354491 C4.72497467,9.86599772 5.83659837,9.46363086 7.07097808,9.23175843 C8.30535778,8.999886 9.57383636,8.88394978 10.8695941,8.88394978 C12.1653518,8.88394978 13.4236007,9.00670577 14.6443408,9.25562765 C15.865081,9.50454952 16.9528355,9.92055594 17.9110142,10.5070568 C18.8691929,11.0935576 19.663697,11.8744222 20.2979363,12.8462404 C20.304756,12.8564701 20.3115758,12.8666998 20.3183956,12.8769294 C21.3311325,14.452298 20.0933429,16.5289202 18.2179042,16.5289202 L16.8778179,16.5289202 C15.9741974,16.5289202 15.2274318,15.9458292 14.8489341,15.1274559 C14.6068321,14.605743 14.2385641,14.2136058 13.7441302,13.9578641 C12.8814284,13.5111687 11.8618717,13.2861161 10.6854601,13.2861161 C10.3137822,13.2861161 9.91482523,13.3099853 9.48176937,13.3577237 C9.04871351,13.4020523 8.65657631,13.5043489 8.30194789,13.6577939 C7.94731947,13.8112389 7.64724926,14.0362916 7.39832739,14.329542 C7.14940552,14.6227924 7.02664952,15.0183395 7.02664952,15.5093635 C7.02664952,16.0958643 7.2448824,16.5732487 7.67452837,16.9449266 C8.10758423,17.3166045 8.67021587,17.6166747 9.36583316,17.8485471 C10.0614504,18.0804195 10.8559545,18.2884228 11.7527552,18.4725567 C12.649556,18.6566907 13.5599962,18.8578742 14.4840761,19.076107 C15.4422548,19.29093 16.3765643,19.5534915 17.2870046,19.8637913 C18.1974448,20.1740912 19.0089983,20.5832778 19.7182552,21.0913512 C20.427512,21.5994247 21.0003733,22.233664 21.4300193,22.9906592 C21.4345901,22.9986492 21.4391366,23.0066589 21.4436588,23.0146884 L21.4436588,3.48609601 C21.4470687,1.64816601 22.9337802,0.161454545 24.7683003,0.161454545 C26.6028204,0.161454545 28.0895319,1.64816601 28.0895319,3.48268612 L28.0895319,12.7439438 L28.2293373,12.7439438 C29.0715798,11.3390696 30.1456948,10.3195129 31.455092,9.68186373 C32.7644893,9.04421455 34.0431975,8.72368501 35.2878069,8.72368501 C37.0643589,8.72368501 38.5237912,8.96578711 39.6592842,9.4499913 C40.798187,9.93419549 41.6949877,10.6025337 42.3496863,11.4618256 C43.004385,12.3177077 43.4647199,13.3645435 43.7272814,14.5955133 C43.9488508,15.6209823 44.0781302,16.7387415 44.1151195,17.9487907 C44.2497317,17.3524263 44.4205716,16.7780251 44.627492,16.2254401 C45.2208126,14.6500715 46.0596452,13.3099853 47.1508096,12.2051814 C48.241974,11.0969675 49.5513712,10.2410855 51.0790013,9.63412529 C52.6066315,9.02716511 54.3218055,8.72368501 56.2245234,8.72368501 C58.1272412,8.72368501 59.849235,9.02716511 61.3905047,9.63412529 C62.9317744,10.2410855 64.2514013,11.1003774 65.3425657,12.2051814 C66.4337301,13.3133952 67.2759726,14.6534814 67.8692932,16.2254401 C68.0553069,16.7193387 68.2121618,17.2306655 68.3398578,17.7595257 L68.3398578,12.6893855 C68.3398578,10.8548654 69.8265693,9.36815397 71.6610894,9.36815397 C73.4956095,9.36815397 74.982321,10.8548654 74.982321,12.6893855 L74.982321,23.0247581 C74.982321,25.019543 75.2926208,26.5096644 75.9166305,27.4917123 C76.5406401,28.4737602 77.645444,28.9647842 79.237862,28.9647842 C81.045103,28.9647842 82.3545003,28.4260218 83.1660538,27.3519069 C83.9776073,26.274382 84.3833841,24.5080597 84.3833841,22.0427102 L84.3833841,13.3713633 C84.3833841,11.1617554 86.1769855,9.36815397 88.3865934,9.36815397 L90.5348232,9.36815397 C90.5857532,9.36815397 90.6349768,9.37595465 90.6813187,9.3904499 C90.7205445,9.38035156 90.7617126,9.37497375 90.8042044,9.37497375 L93.8458251,9.37497375 C94.1152063,9.37497375 94.3368491,9.15674088 94.3368491,8.88394978 L94.3368491,5.446782 C94.3368491,3.61226189 95.8235606,2.12555042 97.6580807,2.12555042 C99.4926008,2.12555042 100.979312,3.61226189 100.979312,5.446782 L100.979312,8.88394978 C100.979312,9.15674088 101.200955,9.37497375 101.470336,9.37497375 L102.305759,9.37497375 C103.533319,9.37497375 104.525596,10.3706612 104.525596,11.5948113 C104.525596,12.8223712 103.529909,13.8146488 102.305759,13.8146488 L101.470336,13.8146488 C101.200955,13.8146488 100.979312,14.0328817 100.979312,14.3056728 L100.979312,25.786768 C100.979312,26.9086213 101.166856,27.6587968 101.538534,28.0304747 C101.913622,28.4055625 102.660387,28.5931063 103.785651,28.5931063 C105.34738,28.5931063 105.848633,28.9784238 105.848633,29.7865674 C105.848633,30.8027142 105.841813,31.7779424 105.841813,31.7779424 C105.841813,32.8247782 105.01662,33.68748 103.969785,33.7386283 C103.284397,33.7693173 102.612649,33.7863668 101.95795,33.7863668 C100.928164,33.7863668 99.9563456,33.7147591 99.0356757,33.5749537 C98.1184156,33.4351483 97.3068621,33.1623572 96.6044251,32.7565804 C95.901988,32.3508037 95.349586,31.7745325 94.9438093,31.0277669 C94.5380325,30.2775913 94.3368491,29.2955434 94.3368491,28.081623 L94.3368491,14.3090827 C94.3368491,14.0397015 94.1186162,13.8180587 93.8458251,13.8180587 L91.0258472,13.8180587 L91.0258472,13.8180587 Z M50.3833841,21.4868983 C50.3833841,22.4553067 50.475451,23.396436 50.6629949,24.3171059 C50.8505388,25.2377759 51.1710683,26.0629689 51.6211736,26.796095 C52.0746888,27.5292211 52.6748292,28.112312 53.4215949,28.5487778 C54.1683605,28.9852435 55.10267,29.2034764 56.2279332,29.2034764 C57.3497866,29.2034764 58.2943258,28.9852435 59.0581408,28.5487778 C59.8219559,28.112312 60.4289161,27.5292211 60.8824313,26.796095 C61.3359465,26.0629689 61.6530661,25.2377759 61.84061,24.3171059 C62.0281539,23.396436 62.1202209,22.4553067 62.1202209,21.4868983 C62.1202209,20.5218998 62.0281539,19.5705409 61.84061,18.6328215 C61.6530661,17.698512 61.3325366,16.8699091 60.8824313,16.1538324 C60.4289161,15.4377558 59.8219559,14.851255 59.0581408,14.4011497 C58.2943258,13.9476345 57.3531965,13.7225818 56.2279332,13.7225818 C55.1060799,13.7225818 54.1717704,13.9476345 53.4215949,14.4011497 C52.6714194,14.8546649 52.0712789,15.4377558 51.6211736,16.1538324 C51.1710683,16.8699091 50.8505388,17.698512 50.6629949,18.6328215 C50.475451,19.5705409 50.3833841,20.5218998 50.3833841,21.4868983 L50.3833841,21.4868983 Z" fill="#58585A"></path>
                <path d="M115.243029,12.6963813 L118.386304,12.6963813 C118.670763,12.6963813 118.898331,12.9343996 118.898331,13.2236834 L118.898331,28.0137749 C118.898331,29.3173829 119.10812,30.3719871 119.531253,31.1775875 C119.954386,31.9795261 120.530416,32.5983737 121.262899,33.0341303 C121.995382,33.4698869 122.841648,33.7628325 123.798143,33.9129672 C124.758193,34.0631018 125.771579,34.14 126.845413,34.14 C127.528115,34.14 128.228597,34.1216909 128.943301,34.0887345 C130.034913,34.0338072 130.895403,33.1073667 130.895403,31.9831879 C130.895403,31.9831879 130.902514,30.9359074 130.902514,29.844685 C130.902514,28.9768336 130.37982,28.5630479 128.751291,28.5630479 C127.577896,28.5630479 126.799188,28.3616478 126.408057,27.9588476 C126.020481,27.5597092 125.824915,26.7541088 125.824915,25.54937 L125.824915,13.2200215 C125.824915,12.9270759 126.056038,12.6927194 126.336942,12.6927194 L127.208099,12.6927194 C128.48461,12.6927194 129.522886,11.6271298 129.522886,10.3088745 C129.522886,8.9942811 128.488166,7.92502962 127.208099,7.92502962 L126.336942,7.92502962 C126.056038,7.92502962 125.828471,7.69067313 125.824915,7.39772752 L125.824915,3.70661282 C125.824915,1.73655358 124.274612,0.14 122.361623,0.14 C120.448634,0.14 118.898331,1.73655358 118.898331,3.70661282 L118.898331,7.39772752 C118.898331,7.69067313 118.667208,7.92502962 118.386304,7.92502962 L115.228806,7.92502962 L111.644618,7.92502962 C109.809856,7.92502962 108.32,9.45933226 108.32,11.3488314 L108.32,30.0350996 C108.32,32.1626171 109.994754,33.8873344 112.06064,33.8873344 C113.817176,33.8873344 115.243029,32.4226064 115.243029,30.6100054 L115.243029,12.6963813 L115.243029,12.6963813 Z M112.391324,5.84340933 L111.171705,5.84340933 C109.596511,5.84340933 108.32,4.56689814 108.32,2.99170466 C108.32,1.41651119 109.596511,0.14 111.171705,0.14 L112.391324,0.14 C113.966517,0.14 115.243029,1.41651119 115.243029,2.99170466 C115.243029,4.5633424 113.966517,5.84340933 112.391324,5.84340933 L112.391324,5.84340933 Z" fill="#A7D281"></path>
            </g>
        </g>
    </g>
</svg>