<?xml version="1.0" encoding="UTF-8" standalone="no"?>
<svg width="104px" height="33px" viewBox="0 0 104 33" version="1.1" xmlns="http://www.w3.org/2000/svg" xmlns:xlink="http://www.w3.org/1999/xlink">
    <!-- Generator: Sketch 3.8.3 (29802) - http://www.bohemiancoding.com/sketch -->
    <title>images/logo-mark-inverted</title>
    <desc>Created with Sketch.</desc>
    <defs></defs>
    <g id="Logos" stroke="none" stroke-width="1" fill="none" fill-rule="evenodd">
        <g id="images/logo-mark-inverted" fill="#FFFFFF">
            <g id="Group">
                <path d="M25.7216667,7.7 C25.7216667,6.80166667 25.0066667,6.08666667 24.1083333,6.08666667 L19.58,6.08666667 C19.58,2.64 16.7933333,0 13.255,0 C9.71666667,0 6.93,2.64 6.93,6.08666667 L2.42,6.08666667 C1.52166667,6.08666667 0.806666667,6.80166667 0.806666667,7.7 L0.0733333333,27.2983333 C0.0733333333,28.1966667 0.788333333,28.9116667 1.68666667,28.9116667 L5.225,28.9116667 L5.225,32.8716667 L11.8066667,28.9116667 L24.86,28.9116667 C25.7583333,28.9116667 26.4733333,28.1966667 26.4733333,27.2983333 L25.7216667,7.7 Z M6.50833333,19.7083333 L20.0016667,19.7083333 L20.0016667,20.9916667 L6.50833333,20.9916667 L6.50833333,19.7083333 Z M6.50833333,16.9033333 L20.0016667,16.9033333 L20.0016667,18.1866667 L6.50833333,18.1866667 L6.50833333,16.9033333 Z M6.50833333,14.0983333 L13.0716667,14.0983333 L13.0716667,15.3816667 L6.50833333,15.3816667 L6.50833333,14.0983333 Z M17.93,6.105 L19.58,6.105 L19.58,8.65333333 L17.93,8.65333333 L17.93,6.105 Z M6.93,6.105 L8.58,6.105 L8.58,8.65333333 L6.93,8.65333333 L6.93,6.105 Z M8.58,6.08666667 C8.58,3.575 10.6333333,1.65 13.255,1.65 C15.8766667,1.65 17.93,3.575 17.93,6.08666667 L8.58,6.08666667 Z" id="Combined-Shape"></path>
                <path d="M86.8139881,9.4575 C86.4907181,9.4575 86.2437377,9.54311667 86.0730467,9.71416667 C85.9023558,9.88521667 85.8169189,10.1327167 85.8169189,10.4566667 L85.8169189,12.9316667 L85.1217146,12.9316667 C84.78637,12.9316667 84.5393895,13.0172833 84.3807732,13.1883333 C84.2100823,13.3593833 84.1246453,13.61 84.1246453,13.94 L84.1246453,14.3433333 C84.1246453,14.6793833 84.203862,14.9268833 84.3624784,15.0858333 C84.527132,15.2568833 84.7710023,15.3425 85.0942723,15.3425 L85.734592,15.3425 L85.734592,20.5766667 C85.734592,21.365 85.8809508,22.0616667 86.1736684,22.6666667 C86.4420538,23.2166667 86.8139881,23.6781167 87.2896542,24.0508333 C87.7347679,24.3808333 88.2470237,24.63145 88.8264215,24.8025 C89.3509348,24.96145 89.8997803,25.0408333 90.4729579,25.0408333 C90.8997768,25.0408333 91.2107892,24.96145 91.4059952,24.8025 C91.6072386,24.6497833 91.7078602,24.39605 91.7078602,24.0416667 L91.7078602,23.3083333 C91.7078602,22.9722833 91.6346808,22.73395 91.4883221,22.5933333 C91.335926,22.4466667 91.0735778,22.3581167 90.7016435,22.3275 C90.1527981,22.26645 89.7289064,22.1043833 89.4301515,21.8416667 C89.2228709,21.6583333 89.0642546,21.4322833 88.9544855,21.1633333 C88.8203842,20.8516667 88.7532421,20.4818833 88.7532421,20.0541667 L88.7532421,15.3425 L90.5461373,15.3425 C90.8631871,15.3425 91.1010201,15.2568833 91.2596364,15.0858333 C91.4303274,14.9147833 91.5157643,14.6672833 91.5157643,14.3433333 L91.5157643,13.94 C91.5157643,13.61 91.4303274,13.3593833 91.2596364,13.1883333 C91.0827253,13.0172833 90.8357448,12.9316667 90.5186951,12.9316667 L88.7532421,12.9316667 L88.7532421,10.4566667 C88.7532421,10.1327167 88.6678052,9.88521667 88.4971142,9.71416667 C88.3264233,9.54311667 88.0794428,9.4575 87.7561729,9.4575 L86.8139881,9.4575 Z M94.8088372,8.165 L94.223402,8.165 C93.8452475,8.165 93.6562617,8.36355 93.6562617,8.76083333 L93.6562617,9.6225 C93.6562617,10.00145 93.8452475,10.1908333 94.223402,10.1908333 L94.8088372,10.1908333 C95.193029,10.1908333 95.3851249,10.00145 95.3851249,9.6225 L95.3851249,8.76083333 C95.3851249,8.36355 95.193029,8.165 94.8088372,8.165 L94.8088372,8.165 Z M99.7210041,9.6225 C99.3245547,9.6225 99.1264215,9.81811667 99.1264215,10.2091667 L99.1264215,13.0325 L98.10191,13.0325 C97.7177181,13.0325 97.5256222,13.2281167 97.5256222,13.6191667 L97.5256222,13.8208333 C97.5256222,14.1997833 97.7177181,14.3891667 98.10191,14.3891667 L99.1081267,14.3891667 L99.1081267,20.6041667 C99.1081267,21.3008333 99.202711,21.9241667 99.3916968,22.4741667 C99.5806826,23.0302167 99.8582155,23.4916667 100.224112,23.8583333 C100.583972,24.2433333 101.023049,24.5306167 101.541342,24.72 C102.071892,24.9156167 102.660438,25.0133333 103.306795,25.0133333 C103.751908,25.0133333 103.974557,24.82395 103.974557,24.445 L103.974557,24.1333333 C103.974557,23.785 103.761056,23.58645 103.334237,23.5375 C102.64507,23.5068833 102.093297,23.32355 101.678553,22.9875 C101.379798,22.7491667 101.15404,22.4343833 101.001644,22.0433333 C100.812658,21.5972833 100.718073,21.0472833 100.718073,20.3933333 L100.718073,14.3891667 L103.142141,14.3891667 C103.53859,14.3891667 103.736723,14.1997833 103.736723,13.8208333 L103.736723,13.6191667 C103.736723,13.2281167 103.53859,13.0325 103.142141,13.0325 L100.718073,13.0325 L100.718073,10.2091667 C100.718073,9.81811667 100.529088,9.6225 100.150933,9.6225 L99.7210041,9.6225 L99.7210041,9.6225 Z M95.3119455,13.5275 C95.3119455,13.1302167 95.1229597,12.9316667 94.7448052,12.9316667 L94.287434,12.9316667 C93.8972048,12.9316667 93.7019988,13.1302167 93.7019988,13.5275 L93.7019988,24.3258333 C93.7019988,24.7231167 93.8972048,24.9216667 94.287434,24.9216667 L94.7448052,24.9216667 C95.1229597,24.9216667 95.3119455,24.7231167 95.3119455,24.3258333 L95.3119455,13.5275 L95.3119455,13.5275 Z M64.1832599,15.3333333 C64.6223363,15.5106167 65.0065281,15.7702167 65.3358354,16.1125 C65.6774002,16.4547833 65.9364553,16.855 66.1133665,17.3133333 C66.3085725,17.78395 66.406084,18.2941667 66.406084,18.8441667 C66.406084,19.3941667 66.3085725,19.9106167 66.1133665,20.3933333 C65.9364553,20.8516667 65.6774002,21.2518833 65.3358354,21.5941667 C65.0065281,21.9302167 64.6223363,22.1868833 64.1832599,22.3641667 C63.7441835,22.54145 63.280775,22.63 62.7928514,22.63 C62.3049277,22.63 61.8384091,22.54145 61.3932954,22.3641667 C60.9602563,22.1868833 60.5822848,21.9302167 60.2590148,21.5941667 C59.9174499,21.2518833 59.6583949,20.8516667 59.4814837,20.3933333 C59.2924979,19.9106167 59.1979135,19.3941667 59.1979135,18.8441667 C59.1979135,18.2941667 59.2924979,17.78395 59.4814837,17.3133333 C59.6583949,16.855 59.9174499,16.4547833 60.2590148,16.1125 C60.5822848,15.7702167 60.9602563,15.5106167 61.3932954,15.3333333 C61.8384091,15.14395 62.3049277,15.0491667 62.7928514,15.0491667 C63.280775,15.0491667 63.7441835,15.14395 64.1832599,15.3333333 L64.1832599,15.3333333 Z M68.9490681,16.2866667 C68.6137235,15.5166667 68.1349473,14.8443833 67.5129224,14.27 C66.9031551,13.6956167 66.1956933,13.2556167 65.3907199,12.95 C64.5674517,12.6383333 63.7015565,12.4825 62.7928514,12.4825 C61.8781089,12.4825 61.0091036,12.6383333 60.1858354,12.95 C59.3931196,13.2556167 58.6887679,13.6956167 58.0727803,14.27 C57.463013,14.8443833 56.9873469,15.5166667 56.6457821,16.2866667 C56.29818,17.3743833 56.1243789,18.2268833 56.1243789,18.8441667 C56.1243789,19.3025 56.170116,19.7547833 56.2615903,20.2008333 L56.6457821,21.42 C56.9873469,22.19 57.463013,22.8622833 58.0727803,23.4366667 C58.6887679,23.99895 59.3931196,24.4327167 60.1858354,24.7383333 C61.0091036,25.05605 61.8781089,25.215 62.7928514,25.215 C63.7015565,25.215 64.5674517,25.05605 65.3907199,24.7383333 C66.1956933,24.4327167 66.9031551,23.99895 67.5129224,23.4366667 C68.1349473,22.8622833 68.6137235,22.19 68.9490681,21.42 L69.3424073,20.2008333 C69.4278443,19.7547833 69.4704713,19.3025 69.4704713,18.8441667 C69.4704713,18.2268833 69.2966702,17.3743833 68.9490681,16.2866667 L68.9490681,16.2866667 Z M82.4781089,13.775 C82.4781089,13.445 82.3897448,13.1975 82.2128336,13.0325 C82.0421427,12.86145 81.7980894,12.7758333 81.4810396,12.7758333 L80.4473807,12.7758333 C80.1180734,12.7758333 79.8679828,12.86145 79.6972919,13.0325 C79.5266009,13.1975 79.441164,13.445 79.441164,13.775 L79.441164,18.3491667 C79.441164,18.8931167 79.3679846,19.4093833 79.2216258,19.8983333 C79.075267,20.3993833 78.8588389,20.83645 78.5721586,21.2091667 C78.2734038,21.5941667 77.9166542,21.89355 77.50191,22.1075 C77.0628336,22.33355 76.5811302,22.4466667 76.0566169,22.4466667 C75.6846826,22.4466667 75.3736702,22.38855 75.1235796,22.2725 C74.8857466,22.15645 74.6936507,21.9852167 74.5472919,21.7591667 C74.2972013,21.3681167 74.1722475,20.7691667 74.1722475,19.9625 L74.1722475,13.775 C74.1722475,13.445 74.0868105,13.1975 73.9161196,13.0325 C73.7454286,12.86145 73.4984482,12.7758333 73.1751782,12.7758333 L72.1506666,12.7758333 C71.8273967,12.7758333 71.5804162,12.86145 71.4097253,13.0325 C71.2390343,13.1975 71.1535974,13.445 71.1535974,13.775 L71.1535974,20.5766667 C71.1535974,21.3956167 71.2511089,22.1043833 71.4463149,22.7033333 C71.6292634,23.28395 71.9067963,23.76355 72.2787306,24.1425 C72.6385903,24.5091667 73.0805938,24.78105 73.6051071,24.9583333 C74.1173629,25.1293833 74.7027981,25.215 75.3614126,25.215 C75.8553736,25.215 76.3370769,25.1356167 76.8067057,24.9766667 C77.2397448,24.8483333 77.6482688,24.6558333 78.0324606,24.3991667 C78.3800627,24.1668833 78.687965,23.895 78.9563505,23.5833333 C79.2185157,23.29 79.4228691,22.9783333 79.5692279,22.6483333 L79.614965,22.6483333 C79.5844126,22.8316667 79.5692279,23.0181167 79.5692279,23.2075 L79.5692279,23.9225 C79.5692279,24.2525 79.6515547,24.5 79.8162084,24.665 C79.980862,24.83605 80.2247324,24.9216667 80.5480023,24.9216667 L81.4810396,24.9216667 C81.7980894,24.9216667 82.0421427,24.83605 82.2128336,24.665 C82.3897448,24.5 82.4781089,24.2525 82.4781089,23.9225 L82.4781089,13.775 L82.4781089,13.775 Z M43.2722475,8.25666667 C43.1015565,8.42771667 43.0161196,8.67521667 43.0161196,8.99916667 L43.0161196,23.9225 C43.0161196,24.2525 43.1015565,24.5 43.2722475,24.665 C43.4429384,24.83605 43.6899189,24.9216667 44.0131888,24.9216667 L45.0377004,24.9216667 C45.7023522,24.9216667 46.0347697,24.58855 46.0347697,23.9225 L46.0347697,19.275 C46.0347697,18.7006167 46.1202066,18.1658333 46.2908975,17.6708333 C46.4495139,17.1818833 46.6811267,16.7541667 46.9861018,16.3875 C47.2971142,16.0268833 47.6661213,15.74895 48.0929402,15.5533333 C48.5320165,15.3516667 49.0107927,15.2508333 49.5290858,15.2508333 C49.9010201,15.2508333 50.2151427,15.30895 50.4712705,15.425 C50.7091036,15.54105 50.9011995,15.7091667 51.0475583,15.9291667 C51.3036862,16.3141667 51.4317501,16.9131167 51.4317501,17.7258333 L51.4317501,23.9225 C51.4317501,24.58855 51.7641675,24.9216667 52.4288194,24.9216667 L53.4533309,24.9216667 C53.7766009,24.9216667 54.0235814,24.83605 54.1942723,24.665 C54.3649633,24.5 54.4504002,24.2525 54.4504002,23.9225 L54.4504002,17.1025 C54.4504002,16.3081167 54.358926,15.6175 54.1759775,15.0308333 C53.9869917,14.4502167 53.7125689,13.9675 53.3527093,13.5825 C52.9868123,13.2158333 52.5416986,12.9377167 52.0171853,12.7483333 C51.4988922,12.57105 50.9011995,12.4825 50.2242901,12.4825 C49.7242919,12.4825 49.2363682,12.5558333 48.7607022,12.7025 C48.3338833,12.8368833 47.9313967,13.02645 47.5532421,13.2708333 C47.20564,13.4968833 46.8977377,13.7627167 46.6293522,14.0683333 C46.3732244,14.3433333 46.1659437,14.63355 46.0073274,14.9391667 L45.9615903,14.9391667 C46.0104375,14.6518833 46.0347697,14.3097833 46.0347697,13.9125 L46.0347697,8.99916667 C46.0347697,8.67521667 45.9524428,8.42771667 45.7877892,8.25666667 C45.6170983,8.08561667 45.3670077,8 45.0377004,8 L44.0131888,8 C43.6961391,8 43.4491586,8.08561667 43.2722475,8.25666667 L43.2722475,8.25666667 Z M36.8873451,12.4825 C36.2409881,12.4825 35.6432954,12.55895 35.0944499,12.7116667 C34.5212723,12.8766667 34.0302386,13.10895 33.6217146,13.4083333 C33.1826382,13.72605 32.8502208,14.1081167 32.6246453,14.5541667 C32.3745547,15.0247833 32.2496009,15.5472833 32.2496009,16.1216667 C32.2496009,16.62895 32.3350379,17.08105 32.5057288,17.4783333 C32.6643451,17.83895 32.8930308,18.1627167 33.1917856,18.45 C33.4539508,18.7066667 33.7741107,18.93895 34.1522652,19.1466667 L35.2591036,19.6508333 C35.7653221,19.84645 36.4543061,20.1091667 37.3264215,20.4391667 C37.637434,20.5858333 37.8661196,20.7416667 38.0124784,20.9066667 C38.1831693,21.09 38.2686062,21.3008333 38.2686062,21.5391667 C38.2686062,21.9181167 38.1162102,22.2206167 37.811235,22.4466667 C37.5124801,22.6666667 37.1037732,22.7766667 36.5854801,22.7766667 C36.042672,22.7766667 35.5091942,22.6758333 34.9846808,22.4741667 L33.8686951,21.9425 C33.5637199,21.7897833 33.307592,21.72855 33.1003114,21.7591667 C32.8807732,21.7958333 32.6855672,21.9333333 32.5148762,22.1716667 L32.2313061,22.6025 C32.0423203,22.8775 31.9691409,23.1341667 32.0117679,23.3725 C32.0483576,23.6231167 32.1978265,23.8216667 32.4599917,23.9683333 C33.8626578,24.7993833 35.2133665,25.215 36.5123007,25.215 C37.2014677,25.215 37.8355672,25.1172833 38.414965,24.9216667 C38.9760681,24.7443833 39.4608816,24.4847833 39.8694055,24.1425 C40.2718922,23.80645 40.5829046,23.4091667 40.8024428,22.9508333 C41.0159437,22.49855 41.1226027,22.00355 41.1226027,21.4658333 C41.1226027,20.9708333 41.0371657,20.5247833 40.8664748,20.1275 C40.7140787,19.7731167 40.4853931,19.4522833 40.180418,19.165 C39.9182528,18.9143833 39.5980929,18.6852167 39.2199384,18.4775 L38.1131,17.9825 C37.1068833,17.64645 36.4177164,17.3866667 36.0457821,17.2033333 C35.740807,17.0566667 35.5121213,16.90395 35.3597253,16.745 C35.1890343,16.5556167 35.1035974,16.3416667 35.1035974,16.1033333 C35.1035974,15.7183333 35.246846,15.4218833 35.5335263,15.2141667 C35.8139864,15.0125 36.216473,14.9116667 36.7409864,14.9116667 C37.4118585,14.9116667 38.1831693,15.1102167 39.0552848,15.5075 C39.3602599,15.6481167 39.6193149,15.6908333 39.8328158,15.6358333 C40.0646116,15.5747833 40.2475601,15.40355 40.3816613,15.1225 L40.6286418,14.6916667 C40.7567057,14.4106167 40.7964055,14.16 40.7475583,13.94 C40.6866364,13.6956167 40.52491,13.5031167 40.2627448,13.3625 C39.0918745,12.7758333 37.9667412,12.4825 36.8873451,12.4825 L36.8873451,12.4825 Z" id="Shape"></path>
            </g>
        </g>
    </g>
</svg>