<?xml version="1.0" encoding="UTF-8" standalone="no"?>
<svg width="113px" height="36px" viewBox="0 0 113 36" version="1.1" xmlns="http://www.w3.org/2000/svg" xmlns:xlink="http://www.w3.org/1999/xlink">
    <!-- Generator: Sketch 3.8.3 (29802) - http://www.bohemiancoding.com/sketch -->
    <title>images/logo</title>
    <desc>Created with Sketch.</desc>
    <defs></defs>
    <g id="Logos" stroke="none" stroke-width="1" fill="none" fill-rule="evenodd">
        <g id="images/logo">
            <g id="Group">
                <path d="M28.06,8.4 C28.06,7.42 27.28,6.64 26.3,6.64 L21.36,6.64 C21.36,2.88 18.32,0 14.46,0 C10.6,0 7.56,2.88 7.56,6.64 L2.64,6.64 C1.66,6.64 0.88,7.42 0.88,8.4 L0.08,29.78 C0.08,30.76 0.86,31.54 1.84,31.54 L5.7,31.54 L5.7,35.86 L12.88,31.54 L27.12,31.54 C28.1,31.54 28.88,30.76 28.88,29.78 L28.06,8.4 L28.06,8.4 Z M9.36,6.64 C9.36,3.9 11.6,1.8 14.46,1.8 C17.32,1.8 19.56,3.9 19.56,6.64 L9.36,6.64 L9.36,6.64 Z M7.1,21.5 L21.82,21.5 L21.82,22.9 L7.1,22.9 L7.1,21.5 L7.1,21.5 Z M7.1,18.44 L21.82,18.44 L21.82,19.84 L7.1,19.84 L7.1,18.44 L7.1,18.44 Z M7.1,15.38 L14.26,15.38 L14.26,16.78 L7.1,16.78 L7.1,15.38 L7.1,15.38 Z M7.56,6.66 L9.36,6.66 L9.36,9.44 L7.56,9.44 L7.56,6.66 L7.56,6.66 Z M19.56,6.66 L21.36,6.66 L21.36,9.44 L19.56,9.44 L19.56,6.66 L19.56,6.66 Z" id="Logo" fill="#36DD69"></path>
                <path d="M39.22,12.74 C38.52,12.74 37.86,12.82 37.26,12.98 C36.64,13.16 36.1,13.42 35.64,13.74 C35.16,14.08 34.8,14.5 34.56,14.98 C34.28,15.5 34.14,16.06 34.14,16.7 C34.14,17.26 34.24,17.74 34.42,18.18 C34.6,18.58 34.84,18.92 35.18,19.24 C35.46,19.52 35.82,19.78 36.22,20 L37.44,20.56 C38,20.78 38.74,21.06 39.7,21.42 C40.04,21.58 40.28,21.74 40.46,21.94 C40.64,22.14 40.74,22.36 40.74,22.62 C40.74,23.04 40.58,23.36 40.24,23.6 C39.92,23.84 39.46,23.96 38.9,23.96 C38.3,23.96 37.72,23.84 37.14,23.62 L35.92,23.04 C35.58,22.88 35.3,22.8 35.08,22.84 C34.84,22.88 34.62,23.02 34.44,23.28 L34.12,23.76 C33.92,24.06 33.84,24.34 33.88,24.6 C33.92,24.88 34.08,25.08 34.36,25.24 C35.9,26.14 37.38,26.6 38.8,26.6 C39.56,26.6 40.24,26.5 40.88,26.28 C41.5,26.08 42.02,25.8 42.46,25.44 C42.9,25.08 43.24,24.64 43.48,24.14 C43.72,23.64 43.84,23.1 43.84,22.52 C43.84,21.98 43.74,21.5 43.56,21.06 C43.4,20.68 43.14,20.32 42.8,20.02 C42.52,19.74 42.16,19.5 41.76,19.26 L40.54,18.72 C39.44,18.36 38.68,18.08 38.28,17.88 C37.94,17.72 37.7,17.56 37.52,17.38 C37.34,17.18 37.24,16.94 37.24,16.68 C37.24,16.26 37.4,15.94 37.7,15.72 C38,15.5 38.44,15.38 39.02,15.38 C39.76,15.38 40.6,15.6 41.54,16.02 C41.88,16.18 42.16,16.22 42.38,16.16 C42.64,16.1 42.84,15.9 42.98,15.6 L43.26,15.12 C43.4,14.82 43.44,14.54 43.38,14.3 C43.32,14.04 43.14,13.82 42.86,13.66 C41.64,13.04 40.4,12.74 39.22,12.74 L39.22,12.74 L39.22,12.74 Z M46.2,8.12 C46.02,8.3 45.92,8.58 45.92,8.94 L45.92,25.22 C45.92,25.58 46.02,25.84 46.2,26.04 C46.38,26.22 46.66,26.32 47,26.32 L48.12,26.32 C48.84,26.32 49.22,25.96 49.22,25.24 L49.22,20.16 C49.22,19.54 49.32,18.96 49.5,18.4 C49.68,17.86 49.92,17.4 50.26,17 C50.6,16.6 51,16.3 51.48,16.1 C51.96,15.88 52.48,15.76 53.06,15.76 C53.46,15.76 53.8,15.82 54.08,15.94 C54.34,16.06 54.54,16.26 54.7,16.5 C54.98,16.92 55.12,17.58 55.12,18.46 L55.12,25.22 C55.12,25.94 55.48,26.3 56.2,26.3 L57.32,26.3 C57.68,26.3 57.94,26.2 58.14,26.02 C58.32,25.84 58.42,25.56 58.42,25.2 L58.42,17.76 C58.42,16.9 58.32,16.14 58.12,15.5 C57.92,14.86 57.62,14.34 57.22,13.92 C56.82,13.52 56.34,13.22 55.76,13 C55.2,12.8 54.54,12.72 53.8,12.72 C53.26,12.72 52.72,12.8 52.2,12.96 C51.74,13.1 51.3,13.32 50.88,13.58 C50.5,13.82 50.16,14.12 49.88,14.46 C49.6,14.76 49.38,15.08 49.2,15.42 L49.16,15.42 C49.22,15.1 49.24,14.74 49.24,14.3 L49.24,8.94 C49.24,8.58 49.14,8.32 48.96,8.12 C48.78,7.94 48.5,7.84 48.14,7.84 L47,7.84 C46.66,7.84 46.4,7.94 46.2,8.12 L46.2,8.12 L46.2,8.12 Z M89.06,14.14 C89.06,13.78 88.96,13.5 88.78,13.34 C88.6,13.16 88.32,13.06 87.98,13.06 L86.86,13.06 C86.5,13.06 86.22,13.16 86.04,13.34 C85.86,13.52 85.76,13.78 85.76,14.14 L85.76,19.12 C85.76,19.72 85.68,20.28 85.52,20.82 C85.36,21.36 85.12,21.84 84.82,22.24 C84.5,22.66 84.1,22.98 83.64,23.22 C83.16,23.46 82.64,23.6 82.06,23.6 C81.66,23.6 81.32,23.54 81.04,23.42 C80.78,23.3 80.56,23.1 80.42,22.86 C80.14,22.44 80,21.78 80,20.9 L80,14.14 C80,13.78 79.9,13.5 79.72,13.34 C79.54,13.16 79.26,13.06 78.92,13.06 L77.8,13.06 C77.44,13.06 77.18,13.16 76.98,13.34 C76.8,13.52 76.7,13.78 76.7,14.14 L76.7,21.56 C76.7,22.46 76.8,23.22 77.02,23.88 C77.22,24.52 77.52,25.04 77.92,25.46 C78.32,25.86 78.8,26.16 79.36,26.34 C79.92,26.52 80.56,26.62 81.28,26.62 C81.82,26.62 82.34,26.54 82.86,26.36 C83.34,26.22 83.78,26 84.2,25.72 C84.58,25.46 84.92,25.18 85.2,24.84 C85.48,24.52 85.72,24.18 85.88,23.82 L85.92,23.82 C85.88,24.02 85.88,24.22 85.88,24.42 L85.88,25.2 C85.88,25.56 85.98,25.82 86.16,26.02 C86.34,26.2 86.6,26.3 86.96,26.3 L87.98,26.3 C88.32,26.3 88.6,26.2 88.78,26.02 C88.98,25.84 89.06,25.56 89.06,25.2 L89.06,14.14 L89.06,14.14 L89.06,14.14 Z M74.28,16.88 C73.92,16.04 73.38,15.3 72.7,14.68 C72.04,14.06 71.26,13.58 70.38,13.24 C69.48,12.9 68.54,12.74 67.54,12.74 C66.54,12.74 65.6,12.9 64.7,13.24 C63.84,13.58 63.06,14.06 62.38,14.68 C61.72,15.3 61.2,16.04 60.82,16.88 C60.44,18.06 60.24,19 60.24,19.68 C60.24,20.18 60.28,20.68 60.4,21.16 L60.82,22.48 C61.2,23.32 61.72,24.06 62.38,24.68 C63.06,25.3 63.82,25.76 64.7,26.1 C65.6,26.44 66.56,26.62 67.54,26.62 C68.54,26.62 69.48,26.44 70.38,26.1 C71.26,25.76 72.04,25.3 72.7,24.68 C73.38,24.06 73.9,23.32 74.28,22.48 L74.7,21.16 C74.8,20.68 74.84,20.18 74.84,19.68 C74.84,19 74.64,18.06 74.28,16.88 L74.28,16.88 L74.28,16.88 Z M69.06,15.84 C69.54,16.04 69.96,16.32 70.32,16.68 C70.7,17.06 70.98,17.5 71.16,18 C71.38,18.52 71.48,19.06 71.48,19.68 C71.48,20.28 71.38,20.84 71.16,21.36 C70.96,21.86 70.68,22.3 70.32,22.68 C69.96,23.04 69.54,23.32 69.06,23.52 C68.58,23.72 68.08,23.8 67.54,23.8 C67,23.8 66.5,23.7 66,23.52 C65.52,23.32 65.12,23.04 64.76,22.68 C64.38,22.3 64.1,21.86 63.92,21.36 C63.72,20.84 63.6,20.28 63.6,19.68 C63.6,19.08 63.7,18.52 63.92,18 C64.12,17.5 64.4,17.06 64.76,16.68 C65.12,16.3 65.52,16.02 66,15.84 C66.48,15.64 67,15.54 67.54,15.54 C68.08,15.54 68.58,15.64 69.06,15.84 L69.06,15.84 L69.06,15.84 Z M103.1,13.86 C103.1,13.42 102.9,13.22 102.48,13.22 L101.98,13.22 C101.56,13.22 101.34,13.44 101.34,13.86 L101.34,25.64 C101.34,26.08 101.56,26.28 101.98,26.28 L102.48,26.28 C102.9,26.28 103.1,26.06 103.1,25.64 L103.1,13.86 L103.1,13.86 L103.1,13.86 Z M107.9,9.62 C107.46,9.62 107.26,9.84 107.26,10.26 L107.26,13.34 L106.14,13.34 C105.72,13.34 105.5,13.56 105.5,13.98 L105.5,14.2 C105.5,14.62 105.72,14.82 106.14,14.82 L107.24,14.82 L107.24,21.6 C107.24,22.36 107.34,23.04 107.54,23.64 C107.74,24.24 108.04,24.76 108.44,25.16 C108.84,25.58 109.32,25.9 109.88,26.1 C110.46,26.32 111.1,26.42 111.82,26.42 C112.3,26.42 112.54,26.22 112.54,25.8 L112.54,25.46 C112.54,25.08 112.3,24.86 111.84,24.82 C111.08,24.78 110.48,24.58 110.04,24.22 C109.72,23.96 109.46,23.62 109.3,23.2 C109.1,22.72 109,22.12 109,21.4 L109,14.84 L111.64,14.84 C112.08,14.84 112.28,14.64 112.28,14.22 L112.28,14 C112.28,13.58 112.06,13.36 111.64,13.36 L109,13.36 L109,10.24 C109,9.82 108.8,9.6 108.38,9.6 L107.9,9.6 L107.9,9.62 L107.9,9.62 Z M102.54,8.02 L101.9,8.02 C101.48,8.02 101.28,8.24 101.28,8.66 L101.28,9.6 C101.28,10.02 101.48,10.22 101.9,10.22 L102.54,10.22 C102.96,10.22 103.16,10.02 103.16,9.6 L103.16,8.66 C103.16,8.24 102.96,8.02 102.54,8.02 L102.54,8.02 L102.54,8.02 Z M93.8,9.44 C93.44,9.44 93.18,9.54 93,9.72 C92.82,9.9 92.72,10.18 92.72,10.52 L92.72,13.22 L91.96,13.22 C91.6,13.22 91.32,13.32 91.16,13.5 C90.98,13.68 90.88,13.96 90.88,14.32 L90.88,14.76 C90.88,15.12 90.96,15.4 91.14,15.56 C91.32,15.74 91.58,15.84 91.94,15.84 L92.64,15.84 L92.64,21.56 C92.64,22.42 92.8,23.18 93.12,23.84 C93.42,24.44 93.82,24.94 94.34,25.36 C94.82,25.72 95.38,26 96.02,26.18 C96.6,26.36 97.2,26.44 97.82,26.44 C98.28,26.44 98.62,26.36 98.84,26.18 C99.06,26.02 99.18,25.74 99.18,25.34 L99.18,24.54 C99.18,24.18 99.1,23.92 98.94,23.76 C98.78,23.6 98.48,23.5 98.08,23.48 C97.48,23.42 97.02,23.24 96.68,22.94 C96.46,22.74 96.28,22.5 96.16,22.2 C96.02,21.86 95.94,21.46 95.94,20.98 L95.94,15.84 L97.9,15.84 C98.24,15.84 98.5,15.74 98.68,15.56 C98.86,15.38 98.96,15.1 98.96,14.76 L98.96,14.32 C98.96,13.96 98.86,13.68 98.68,13.5 C98.48,13.32 98.22,13.22 97.88,13.22 L95.96,13.22 L95.96,10.52 C95.96,10.16 95.86,9.9 95.68,9.72 C95.5,9.54 95.22,9.44 94.86,9.44 L93.8,9.44 L93.8,9.44 L93.8,9.44 Z" id="Shape" fill="#040C06"></path>
            </g>
        </g>
    </g>
</svg>