<?xml version="1.0" encoding="UTF-8" standalone="no"?>
<svg width="170px" height="50px" viewBox="0 0 170 50" version="1.1" xmlns="http://www.w3.org/2000/svg" xmlns:xlink="http://www.w3.org/1999/xlink">
    <!-- Generator: Sketch 3.6.1 (26313) - http://www.bohemiancoding.com/sketch -->
    <title>images/logo-mark-inverted</title>
    <desc>Created with Sketch.</desc>
    <defs></defs>
    <g id="Logos" stroke="none" stroke-width="1" fill="none" fill-rule="evenodd">
        <g id="images/logo-mark-inverted">
            <g id="Group" transform="translate(49.000000, 9.000000)">
                <path d="M83.2236317,12.6336537 L83.2236317,27.7852504 C83.2205141,29.3845857 81.9267049,30.6752772 80.3336049,30.6752772 C78.7405049,30.6752772 77.4466958,29.3845857 77.4466958,27.7883681 L77.4466958,27.5950761 L77.3188736,27.5950761 C76.5488233,28.8764148 75.5511873,29.8054633 74.3259656,30.3728688 C73.1007439,30.9433919 71.8474637,31.2270946 70.5630073,31.2270946 C68.9387312,31.2270946 67.6043931,31.0119794 66.5662281,30.5848665 C65.5249455,30.1577536 64.7081311,29.5529367 64.1095495,28.7672984 C63.5109679,27.9847776 63.0900902,27.0276706 62.8469164,25.9022125 C62.6531663,25.0054972 62.5366019,24.0315963 62.4972233,22.9805095 C62.3778172,23.4832955 62.2293845,23.9677313 62.0519252,24.433817 C61.5094606,25.8585659 60.7394103,27.0775524 59.7417743,28.0907765 C58.7441383,29.1040005 57.5407399,29.880286 56.1284614,30.419633 C54.7193006,30.9620976 53.1417887,31.2333299 51.4052785,31.2333299 C49.6656507,31.2333299 48.0974916,30.9620976 46.7008012,30.419633 C45.3041108,29.8771684 44.1069476,29.1008829 43.1093116,28.0907765 C42.1116756,27.0775524 41.3416253,25.8616835 40.8022784,24.433817 C40.6182648,23.9477234 40.4654605,23.4416703 40.3439893,22.9156578 L40.3439893,27.6449579 C40.3439893,29.3222334 38.9847103,30.6815125 37.3074348,30.6815125 C35.6301592,30.6815125 34.2708802,29.3222334 34.2708802,27.6449579 L34.2708802,18.1954744 C34.2708802,16.3716711 33.9840598,15.0092744 33.4166543,14.111402 C32.8492489,13.2135296 31.8360248,12.7645934 30.3800998,12.7645934 C28.7277651,12.7645934 27.5306019,13.2571762 26.7886102,14.2392241 C26.0466184,15.221272 25.6787401,16.8393129 25.6787401,19.0933468 L25.6787401,27.6449579 C25.6787401,29.3222334 24.3194611,30.6815125 22.6421855,30.6815125 C20.96491,30.6815125 19.6056309,29.3222334 19.6056309,27.6449579 L19.6056309,26.6469644 C19.5195692,26.8398329 19.4239561,27.0249304 19.3188106,27.2022569 C18.7420523,28.174952 17.9844724,28.9605904 17.0554239,29.5529367 C16.1232578,30.1452831 15.0570343,30.5630432 13.8567535,30.8030993 C12.6564727,31.0431555 11.4343686,31.1616248 10.1935588,31.1616248 C8.92469051,31.1616248 7.68076312,31.0338027 6.46801185,30.7812761 C5.25214298,30.5256318 4.17344905,30.1047541 3.22881246,29.5124078 C2.28417587,28.9200614 1.50789036,28.134423 0.899955919,27.1617279 C0.790839482,26.9902593 0.694193494,26.8094377 0.603782731,26.622381 C-0.0914448571,25.1726912 1.05583654,23.5016509 2.6645246,23.5016509 L3.76815942,23.5016509 L3.76815942,23.4985332 C4.65356138,23.4985332 5.52025765,23.9817632 5.84448935,24.8048129 C5.89437115,24.932635 5.95360579,25.0542219 6.01907565,25.1726912 C6.28719033,25.6372154 6.63324532,26.0206818 7.05724062,26.316855 C7.48123592,26.6130281 7.96758347,26.831261 8.51940088,26.9746712 C9.07121829,27.1180814 9.64174138,27.1866688 10.2340878,27.1866688 C10.6580831,27.1866688 11.100784,27.136787 11.5684259,27.0370234 C12.0360678,26.9372598 12.4569455,26.7813792 12.8404118,26.5693816 C13.2207605,26.3573839 13.538757,26.0767988 13.7912836,25.721391 C14.0469279,25.3691007 14.1716324,24.9232822 14.1716324,24.3870528 C14.1716324,23.4829452 13.5730508,22.8064233 12.3727699,22.3543695 C11.1724891,21.9023156 9.50144882,21.4502618 7.3534138,20.998208 C6.47736469,20.7986808 5.62313886,20.5679775 4.79073633,20.2998628 C3.95833379,20.0317481 3.21634201,19.6794579 2.56787861,19.2398746 C1.91941521,18.8034088 1.39565631,18.2515914 0.99971952,17.5875399 C0.603782731,16.9234885 0.407373144,16.1129092 0.407373144,15.1526846 C0.407373144,13.7404061 0.681723044,12.5837719 1.23354046,11.6796642 C1.78535787,10.7755566 2.51176158,10.0616233 3.41586921,9.54098206 C4.31997684,9.02034077 5.33631851,8.6524625 6.46489424,8.44046485 C7.59346997,8.2284672 8.75322182,8.12246837 9.93791457,8.12246837 C11.1226073,8.12246837 12.2730063,8.23470242 13.3891116,8.46228813 C14.5052169,8.68987385 15.4997353,9.07022257 16.3757844,9.60645192 C17.2518335,10.1426813 17.9782372,10.8566145 18.5581131,11.7451341 C18.5643484,11.7544869 18.5705836,11.7638398 18.5768188,11.7731926 C19.5027497,13.2135296 18.3710564,15.1121556 16.6563695,15.1121556 L15.4311478,15.1121556 C14.6049805,15.1121556 13.9222234,14.5790439 13.5761684,13.8308169 C13.3548179,13.3538222 13.0181157,12.9952967 12.5660619,12.7614758 C11.7773059,12.3530685 10.8451398,12.1473061 9.7695635,12.1473061 C9.42974373,12.1473061 9.06498307,12.1691294 8.66904628,12.212776 C8.27310949,12.2533049 7.91458406,12.3468333 7.59035235,12.4871259 C7.26612065,12.6274184 6.99177075,12.8331809 6.76418504,13.1012955 C6.53659933,13.3694102 6.42436528,13.7310533 6.42436528,14.1799895 C6.42436528,14.7162188 6.62389248,15.1526846 7.01671165,15.4925043 C7.41264844,15.8323241 7.92705451,16.106674 8.56304746,16.3186716 C9.19904041,16.5306693 9.92544412,16.7208437 10.7453762,16.8891947 C11.5653083,17.0575458 12.3977108,17.2414849 13.2425838,17.4410121 C14.1186329,17.6374217 14.9728588,17.8774779 15.8052613,18.1611806 C16.6376638,18.4448834 17.3796556,18.8189969 18.028119,19.2835211 C18.6765824,19.7480454 19.2003413,20.3279213 19.5931605,21.0200313 C19.5973395,21.0273364 19.6014964,21.0346596 19.6056309,21.0420008 L19.6056309,3.18728778 C19.6087486,1.50689464 20.9680276,0.147615584 22.6453031,0.147615584 C24.3225787,0.147615584 25.6818577,1.50689464 25.6818577,3.18417016 L25.6818577,11.6516057 L25.8096798,11.6516057 C26.5797301,10.3671494 27.5617781,9.43498324 28.7589413,8.8519897 C29.9561045,8.26899616 31.1252092,7.97594058 32.2631377,7.97594058 C33.8874138,7.97594058 35.221752,8.19729107 36.2599169,8.63999205 C37.3011995,9.08269302 38.1211316,9.69374507 38.7197132,10.4793834 C39.3182948,11.2619042 39.7391725,12.2190112 39.9792287,13.3444693 C40.1818065,14.282041 40.3000048,15.3039922 40.3338236,16.4103229 C40.4568976,15.8650754 40.613094,15.3399087 40.8022784,14.8346881 C41.3447429,13.3943511 42.1116756,12.1691294 43.1093116,11.159023 C44.1069476,10.1457989 45.3041108,9.36327815 46.7008012,8.80834312 C48.0974916,8.2534081 49.6656507,7.97594058 51.4052785,7.97594058 C53.1449063,7.97594058 54.7193006,8.2534081 56.1284614,8.80834312 C57.5376223,9.36327815 58.7441383,10.1489165 59.7417743,11.159023 C60.7394103,12.172247 61.5094606,13.3974687 62.0519252,14.8346881 C62.2219949,15.2862525 62.3654051,15.7537513 62.4821557,16.2372807 L62.4821557,11.6017239 C62.4821557,9.9244484 63.8414348,8.56516935 65.5187103,8.56516935 C67.1959858,8.56516935 68.5552649,9.9244484 68.5552649,11.6017239 L68.5552649,21.0512074 C68.5552649,22.8750107 68.8389676,24.2374074 69.4094907,25.1352798 C69.9800138,26.0331522 70.9901203,26.4820884 72.4460453,26.4820884 C74.0983799,26.4820884 75.2955431,25.9895056 76.0375349,25.0074577 C76.7795267,24.0222921 77.1505226,22.4073689 77.1505226,20.153335 L77.1505226,12.2252464 C77.1505226,10.2050335 78.7903867,8.56516935 80.8105996,8.56516935 L82.7746955,8.56516935 C82.8212601,8.56516935 82.8662645,8.5723014 82.9086342,8.5855542 C82.9444978,8.57632142 82.9821372,8.57140457 83.0209869,8.57140457 L85.8018973,8.57140457 C86.0481887,8.57140457 86.2508335,8.37187737 86.2508335,8.12246837 L86.2508335,4.97991497 C86.2508335,3.30263944 87.6101125,1.94336039 89.287388,1.94336039 C90.9646636,1.94336039 92.3239426,3.30263944 92.3239426,4.97991497 L92.3239426,8.12246837 C92.3239426,8.37187737 92.5265874,8.57140457 92.7728788,8.57140457 L93.5366939,8.57140457 C94.6590344,8.57140457 95.5662596,9.48174742 95.5662596,10.6009703 C95.5662596,11.7233108 94.6559168,12.6305361 93.5366939,12.6305361 L92.7728788,12.6305361 C92.5265874,12.6305361 92.3239426,12.8300633 92.3239426,13.0794723 L92.3239426,23.5764736 C92.3239426,24.6021681 92.4954113,25.2880428 92.8352311,25.6278626 C93.1781685,25.9708 93.8609256,26.1422686 94.8897377,26.1422686 C96.3176042,26.1422686 96.7758933,26.4945589 96.7758933,27.233433 C96.7758933,28.1624816 96.7696581,29.0541187 96.7696581,29.0541187 C96.7696581,30.0112258 96.0151958,30.7999817 95.0580888,30.8467459 C94.4314487,30.8748044 93.817279,30.8903925 93.2186974,30.8903925 C92.2771784,30.8903925 91.3886589,30.8249226 90.5469035,30.6971005 C89.7082657,30.5692784 88.966274,30.3198694 88.3240458,29.9488735 C87.6818176,29.5778776 87.1767644,29.0510011 86.8057685,28.368244 C86.4347726,27.6823692 86.2508335,26.7844968 86.2508335,25.6746268 L86.2508335,13.0825899 C86.2508335,12.8362985 86.0513063,12.6336537 85.8018973,12.6336537 L83.2236317,12.6336537 L83.2236317,12.6336537 Z M46.0648083,19.6451642 C46.0648083,20.5305661 46.1489838,21.3910272 46.3204525,22.2327826 C46.4919212,23.0745379 46.7849768,23.8290002 47.1965016,24.4992869 C47.6111441,25.1695735 48.1598439,25.7026853 48.842601,26.1017397 C49.5253582,26.5007941 50.379584,26.7003213 51.4083961,26.7003213 C52.4340906,26.7003213 53.2976693,26.5007941 53.9960145,26.1017397 C54.6943597,25.7026853 55.2492947,25.1695735 55.6639372,24.4992869 C56.0785796,23.8290002 56.3685176,23.0745379 56.5399863,22.2327826 C56.711455,21.3910272 56.7956305,20.5305661 56.7956305,19.6451642 C56.7956305,18.7628799 56.711455,17.893066 56.5399863,17.0357225 C56.3685176,16.1814967 56.075462,15.4239169 55.6639372,14.7692182 C55.2492947,14.1145196 54.6943597,13.5782903 53.9960145,13.1667654 C53.2976693,12.7521229 52.4372082,12.5463605 51.4083961,12.5463605 C50.3827016,12.5463605 49.5284758,12.7521229 48.842601,13.1667654 C48.1567263,13.5814079 47.6080265,14.1145196 47.1965016,14.7692182 C46.7849768,15.4239169 46.4919212,16.1814967 46.3204525,17.0357225 C46.1489838,17.893066 46.0648083,18.7628799 46.0648083,19.6451642 L46.0648083,19.6451642 Z" id="h" fill="#FFFFFF"></path>
                <path d="M105.365055,11.60812 L108.238907,11.60812 C108.498984,11.60812 108.707045,11.8257367 108.707045,12.0902248 L108.707045,25.6125942 C108.707045,26.8044643 108.898852,27.7686739 109.285717,28.5052229 C109.672582,29.2384239 110.199238,29.8042274 110.868936,30.2026334 C111.538635,30.6010395 112.312364,30.8688755 113.186873,31.0061414 C114.064633,31.1434073 114.991158,31.2137143 115.972949,31.2137143 C116.597134,31.2137143 117.237574,31.1969745 117.891018,31.166843 C118.889063,31.1166237 119.675797,30.2695924 119.675797,29.2417718 C119.675797,29.2417718 119.682299,28.2842582 119.682299,27.2865691 C119.682299,26.493105 119.204407,26.1147867 117.715466,26.1147867 C116.642648,26.1147867 115.930687,25.9306494 115.573081,25.562375 C115.218726,25.1974484 115.039923,24.4608995 115.039923,23.359424 L115.039923,12.0868768 C115.039923,11.8190408 115.251235,11.6047721 115.508061,11.6047721 L116.304547,11.6047721 C117.471643,11.6047721 118.420925,10.6305187 118.420925,9.42525671 C118.420925,8.22334272 117.474894,7.24574136 116.304547,7.24574136 L115.508061,7.24574136 C115.251235,7.24574136 115.043174,7.03147257 115.039923,6.76363659 L115.039923,3.38890315 C115.039923,1.58770613 113.622502,0.128 111.873484,0.128 C110.124466,0.128 108.707045,1.58770613 108.707045,3.38890315 L108.707045,6.76363659 C108.707045,7.03147257 108.495733,7.24574136 108.238907,7.24574136 L105.352051,7.24574136 L102.07508,7.24574136 C100.397582,7.24574136 99.0354286,8.64853235 99.0354286,10.3760745 L99.0354286,27.4606625 C99.0354286,29.4058214 100.566632,30.9827057 102.455442,30.9827057 C104.061418,30.9827057 105.365055,29.6435258 105.365055,27.9862906 L105.365055,11.60812 L105.365055,11.60812 Z M102.757782,5.34254567 L101.642701,5.34254567 C100.202525,5.34254567 99.0354286,4.17544973 99.0354286,2.73527284 C99.0354286,1.29509595 100.202525,0.128 101.642701,0.128 L102.757782,0.128 C104.197959,0.128 105.365055,1.29509595 105.365055,2.73527284 C105.365055,4.17219876 104.197959,5.34254567 102.757782,5.34254567 L102.757782,5.34254567 Z" id="t" fill="#A7D281"></path>
            </g>
            <g id="Shape" transform="translate(0.000000, 3.000000)">
                <path d="M11.1091364,21.9832727 L11.1091364,21.9832727 C11.1091364,18.618303 12.8772614,15.5070303 15.7551818,13.7687879 L15.6279886,13.8412727 L15.7551818,13.7687879 C15.8124886,13.7339394 15.867,13.696303 15.9257045,13.6628485 C15.99,13.6266061 16.0556932,13.5945455 16.1199886,13.559697 L31.0127727,5.01624242 L23.6607273,0.782848485 C21.8548636,-0.257030303 19.6296818,-0.257030303 17.8238182,0.782848485 L3.79203409,8.86212121 C1.98617045,9.902 0.873579545,11.8242424 0.873579545,13.904 L0.873579545,21.8578182 L15.4966023,30.0360606 C12.7710341,28.2713333 11.1091364,25.2464848 11.1091364,21.9832727 L11.1091364,21.9832727 Z" fill="#67AA59"></path>
                <path d="M26.1472841,29.934303 L26.1500795,29.934303 L26.1500795,31.0215758 C26.1500795,32.9675152 24.5398977,33.4191515 22.3538523,33.4052121 L16.7321932,30.717697 L16.7419773,30.716303 C16.6930568,30.694 16.6441364,30.6730909 16.5952159,30.6507879 L16.6343523,30.671697 L16.5952159,30.6507879 C16.3687841,30.5434545 16.1451477,30.4291515 15.9257045,30.303697 C15.7789432,30.2186667 15.6377727,30.1280606 15.4966023,30.0374545 L0.873579545,21.8592121 L0.873579545,30.0639394 C0.873579545,32.143697 1.98617045,34.0659394 3.79203409,35.1058182 L17.8238182,43.1850909 C19.6296818,44.2249697 21.8548636,44.2249697 23.6607273,43.1850909 L26.1556705,41.7493333 L26.1556705,29.9301212 C26.152875,29.9301212 26.1500795,29.9329091 26.1472841,29.934303 L26.1472841,29.934303 Z" fill="#7EBD59"></path>
                <path d="M37.6925114,8.86351515 L31.0127727,5.01763636 L16.1199886,13.5610909 C19.065,11.9538788 22.6417841,11.9859394 25.5588409,13.6642424 C28.5387955,15.3801818 30.3754091,18.5513939 30.3754091,21.9846667 L30.3754091,21.9846667 C30.3754091,25.1809697 28.782,28.1500606 26.1556705,29.9287273 L26.1556705,41.7479394 L30.3754091,39.318303 L37.6925114,35.1044242 C39.498375,34.0645455 40.6109659,32.142303 40.6109659,30.0625455 L40.6109659,13.904 C40.6123636,11.8242424 39.4997727,9.90339394 37.6925114,8.86351515 L37.6925114,8.86351515 Z" fill="#A5D180"></path>
                <path d="M25.5588409,13.6642424 C22.6417841,11.9845455 19.065,11.9538788 16.1199886,13.5610909 L15.7551818,13.7701818 C12.8772614,15.5084242 11.1091364,18.619697 11.1091364,21.9846667 L11.1091364,21.9846667 C11.1091364,25.2283636 12.7514659,28.2364848 15.4462841,30.0053939 C15.4784318,30.026303 15.513375,30.0472121 15.5469205,30.0667273 L16.5938182,30.6521818 C16.6427386,30.6758788 16.6916591,30.6953939 16.7405795,30.717697 L16.7307955,30.7190909 L24.2659432,34.3210303 C25.138125,34.7378182 26.1486818,34.1035758 26.1486818,33.1389697 L26.1472841,31.2362424 C26.1472841,30.4821212 26.4589773,29.7530909 27.0306477,29.2610303 C29.1314318,27.4558788 30.3740114,24.8087879 30.3740114,21.9860606 L30.3740114,21.9860606 C30.3754091,18.5513939 28.5401932,15.3801818 25.5588409,13.6642424 L25.5588409,13.6642424 Z" fill="#FFFFFF"></path>
            </g>
        </g>
    </g>
</svg>