<?xml version="1.0" encoding="UTF-8" standalone="no"?>
<svg width="32px" height="36px" viewBox="0 0 32 36" version="1.1" xmlns="http://www.w3.org/2000/svg" xmlns:xlink="http://www.w3.org/1999/xlink">
    <defs></defs>
    <g stroke="none" stroke-width="1" fill="none" fill-rule="evenodd">
        <g>
            <g>
                <path d="M8.67054545,17.9869091 L8.67054545,17.9869091 C8.67054545,15.3534545 10.0505455,12.9185455 12.2967273,11.5581818 L12.1974545,11.6149091 L12.2967273,11.5581818 C12.3414545,11.5309091 12.384,11.5014545 12.4298182,11.4752727 C12.48,11.4469091 12.5312727,11.4218182 12.5814545,11.3945455 L24.2050909,4.70836364 L18.4669091,1.39527273 C17.0574545,0.581454545 15.3207273,0.581454545 13.9112727,1.39527273 L2.95963636,7.71818182 C1.55018182,8.532 0.681818182,10.0363636 0.681818182,11.664 L0.681818182,17.8887273 L12.0949091,24.2890909 C9.96763636,22.908 8.67054545,20.5407273 8.67054545,17.9869091 L8.67054545,17.9869091 Z" fill="#67AA59"></path>
                <path d="M20.4076364,24.2094545 L20.4098182,24.2094545 L20.4098182,25.0603636 C20.4098182,26.5832727 19.1530909,26.9367273 17.4469091,26.9258182 L13.0592727,24.8225455 L13.0669091,24.8214545 C13.0287273,24.804 12.9905455,24.7876364 12.9523636,24.7701818 L12.9829091,24.7865455 L12.9523636,24.7701818 C12.7756364,24.6861818 12.6010909,24.5967273 12.4298182,24.4985455 C12.3152727,24.432 12.2050909,24.3610909 12.0949091,24.2901818 L0.681818182,17.8898182 L0.681818182,24.3109091 C0.681818182,25.9385455 1.55018182,27.4429091 2.95963636,28.2567273 L13.9112727,34.5796364 C15.3207273,35.3934545 17.0574545,35.3934545 18.4669091,34.5796364 L20.4141818,33.456 L20.4141818,24.2061818 C20.412,24.2061818 20.4098182,24.2083636 20.4076364,24.2094545 L20.4076364,24.2094545 Z" fill="#7EBD59"></path>
                <path d="M29.4185455,7.71927273 L24.2050909,4.70945455 L12.5814545,11.3956364 C14.88,10.1378182 17.6716364,10.1629091 19.9483636,11.4763636 C22.2741818,12.8192727 23.7076364,15.3010909 23.7076364,17.988 L23.7076364,17.988 C23.7076364,20.4894545 22.464,22.8130909 20.4141818,24.2050909 L20.4141818,33.4549091 L23.7076364,31.5534545 L29.4185455,28.2556364 C30.828,27.4418182 31.6963636,25.9374545 31.6963636,24.3098182 L31.6963636,11.664 C31.6974545,10.0363636 30.8290909,8.53309091 29.4185455,7.71927273 L29.4185455,7.71927273 Z" fill="#A5D180"></path>
                <path d="M19.9483636,11.4763636 C17.6716364,10.1618182 14.88,10.1378182 12.5814545,11.3956364 L12.2967273,11.5592727 C10.0505455,12.9196364 8.67054545,15.3545455 8.67054545,17.988 L8.67054545,17.988 C8.67054545,20.5265455 9.95236364,22.8807273 12.0556364,24.2650909 C12.0807273,24.2814545 12.108,24.2978182 12.1341818,24.3130909 L12.9512727,24.7712727 C12.9894545,24.7898182 13.0276364,24.8050909 13.0658182,24.8225455 L13.0581818,24.8236364 L18.9392727,27.6425455 C19.62,27.9687273 20.4087273,27.4723636 20.4087273,26.7174545 L20.4076364,25.2283636 C20.4076364,24.6381818 20.6509091,24.0676364 21.0970909,23.6825455 C22.7367273,22.2698182 23.7065455,20.1981818 23.7065455,17.9890909 L23.7065455,17.9890909 C23.7076364,15.3010909 22.2752727,12.8192727 19.9483636,11.4763636 L19.9483636,11.4763636 Z" fill="#FFFFFF"></path>
            </g>
        </g>
    </g>
</svg>