<?xml version="1.0" encoding="UTF-8" standalone="no"?>
<svg width="29px" height="36px" viewBox="0 0 29 36" version="1.1" xmlns="http://www.w3.org/2000/svg" xmlns:xlink="http://www.w3.org/1999/xlink">
    <!-- Generator: Sketch 3.8.3 (29802) - http://www.bohemiancoding.com/sketch -->
    <title>images/mark</title>
    <desc>Created with Sketch.</desc>
    <defs></defs>
    <g id="Logos" stroke="none" stroke-width="1" fill="none" fill-rule="evenodd">
        <g id="images/mark" fill="#35DD69">
            <path d="M28.0892359,8.4327942 C28.0892359,7.44896821 27.3061907,6.66592303 26.3223648,6.66592303 L21.3630786,6.66592303 C21.3630786,2.89124373 18.3112103,0 14.4361405,0 C10.5610708,0 7.50920245,2.89124373 7.50920245,6.66592303 L2.56999442,6.66592303 C1.58616843,6.66592303 0.803123257,7.44896821 0.803123257,8.4327942 L1.77635684e-15,29.8962632 C1.77635684e-15,30.8800892 0.783045176,31.6631344 1.76687117,31.6631344 L5.64194088,31.6631344 L5.64194088,36 L12.8499721,31.6631344 L27.1455661,31.6631344 C28.1293921,31.6631344 28.9124373,30.8800892 28.9124373,29.8962632 L28.0892359,8.4327942 L28.0892359,8.4327942 Z M9.31622978,6.66592303 C9.31622978,3.91522588 11.5649749,1.80702733 14.4361405,1.80702733 C17.3073062,1.80702733 19.5560513,3.91522588 19.5560513,6.66592303 L9.31622978,6.66592303 L9.31622978,6.66592303 Z M7.04740658,21.5839375 L21.8248745,21.5839375 L21.8248745,22.9894032 L7.04740658,22.9894032 L7.04740658,21.5839375 L7.04740658,21.5839375 Z M7.04740658,18.5119911 L21.8248745,18.5119911 L21.8248745,19.9174568 L7.04740658,19.9174568 L7.04740658,18.5119911 L7.04740658,18.5119911 Z M7.04740658,15.4400446 L14.2353597,15.4400446 L14.2353597,16.8455103 L7.04740658,16.8455103 L7.04740658,15.4400446 L7.04740658,15.4400446 Z M7.50920245,6.68600112 L9.31622978,6.68600112 L9.31622978,9.47685443 L7.50920245,9.47685443 L7.50920245,6.68600112 L7.50920245,6.68600112 Z M19.5560513,6.68600112 L21.3630786,6.68600112 L21.3630786,9.47685443 L19.5560513,9.47685443 L19.5560513,6.68600112 L19.5560513,6.68600112 Z" id="Logo"></path>
        </g>
    </g>
</svg>