<?xml version="1.0" encoding="UTF-8" standalone="no"?>
<svg width="44px" height="44px" viewBox="0 0 44 44" version="1.1" xmlns="http://www.w3.org/2000/svg" xmlns:xlink="http://www.w3.org/1999/xlink">
    <!-- Generator: Sketch 3.8.3 (29802) - http://www.bohemiancoding.com/sketch -->
    <title>svg/icons/add</title>
    <desc>Created with Sketch.</desc>
    <defs></defs>
    <g id="SVG-icons" stroke="none" stroke-width="1" fill="none" fill-rule="evenodd">
        <g id="svg/icons/add" fill="#FFFFFF">
            <path d="M36,20.0909091 C36,19.0369318 35.1448864,18.1818182 34.0909091,18.1818182 L25.8181818,18.1818182 L25.8181818,9.90909091 C25.8181818,8.85511364 24.9630682,8 23.9090909,8 L20.0909091,8 C19.0369318,8 18.1818182,8.85511364 18.1818182,9.90909091 L18.1818182,18.1818182 L9.90909091,18.1818182 C8.85511364,18.1818182 8,19.0369318 8,20.0909091 L8,23.9090909 C8,24.9630682 8.85511364,25.8181818 9.90909091,25.8181818 L18.1818182,25.8181818 L18.1818182,34.0909091 C18.1818182,35.1448864 19.0369318,36 20.0909091,36 L23.9090909,36 C24.9630682,36 25.8181818,35.1448864 25.8181818,34.0909091 L25.8181818,25.8181818 L34.0909091,25.8181818 C35.1448864,25.8181818 36,24.9630682 36,23.9090909 L36,20.0909091 Z" id="add"></path>
        </g>
    </g>
</svg>