<?xml version="1.0" encoding="UTF-8" standalone="no"?>
<svg width="44px" height="44px" viewBox="0 0 44 44" version="1.1" xmlns="http://www.w3.org/2000/svg" xmlns:xlink="http://www.w3.org/1999/xlink">
    <!-- Generator: Sketch 39.1 (31720) - http://www.bohemiancoding.com/sketch -->
    <title>svg/icons/info</title>
    <desc>Created with Sketch.</desc>
    <defs></defs>
    <g id="SVG-icons" stroke="none" stroke-width="1" fill="none" fill-rule="evenodd">
        <g id="svg/icons/info" fill="#FFFFFF">
            <path d="M26.6666667,30.75 C26.6666667,31.078125 26.4114583,31.3333333 26.0833333,31.3333333 L17.9166667,31.3333333 C17.5885417,31.3333333 17.3333333,31.078125 17.3333333,30.75 L17.3333333,27.8333333 C17.3333333,27.5052083 17.5885417,27.25 17.9166667,27.25 L19.6666667,27.25 L19.6666667,21.4166667 L17.9166667,21.4166667 C17.5885417,21.4166667 17.3333333,21.1614583 17.3333333,20.8333333 L17.3333333,17.9166667 C17.3333333,17.5885417 17.5885417,17.3333333 17.9166667,17.3333333 L23.75,17.3333333 C24.078125,17.3333333 24.3333333,17.5885417 24.3333333,17.9166667 L24.3333333,27.25 L26.0833333,27.25 C26.4114583,27.25 26.6666667,27.5052083 26.6666667,27.8333333 L26.6666667,30.75 Z M24.3333333,14.4166667 C24.3333333,14.7447917 24.078125,15 23.75,15 L20.25,15 C19.921875,15 19.6666667,14.7447917 19.6666667,14.4166667 L19.6666667,11.5 C19.6666667,11.171875 19.921875,10.9166667 20.25,10.9166667 L23.75,10.9166667 C24.078125,10.9166667 24.3333333,11.171875 24.3333333,11.5 L24.3333333,14.4166667 Z M36,22 C36,14.2708333 29.7291667,8 22,8 C14.2708333,8 8,14.2708333 8,22 C8,29.7291667 14.2708333,36 22,36 C29.7291667,36 36,29.7291667 36,22 L36,22 Z" id="info"></path>
        </g>
    </g>
</svg>