<?xml version="1.0" encoding="UTF-8" standalone="no"?>
<svg width="44px" height="44px" viewBox="0 0 44 44" version="1.1" xmlns="http://www.w3.org/2000/svg" xmlns:xlink="http://www.w3.org/1999/xlink">
    <defs></defs>
    <g stroke="none" stroke-width="1" fill="none" fill-rule="evenodd">
        <g fill="#969696">
            <path d="M21.8241474,4 C13.6364419,4 7,10.092496 7,17.6103186 C7,17.756208 7.07292793,21.2549713 8.34731266,23.7492926 C11.9986536,31.4827216 21.8105507,40.0450089 21.8229114,39.9998219 C21.8377442,40.0295162 31.6088511,31.513707 35.277497,23.7957707 C36.3652356,21.9663435 36.6470588,17.9085526 36.6470588,17.6103186 C36.6470588,10.092496 30.0106169,4 21.8241474,4 L21.8241474,4 L21.8241474,4 Z M21.8241474,24.5691136 C19.1072729,24.5691136 16.9033661,22.2671597 16.9033661,19.4281262 C16.9033661,16.5865107 19.1060369,14.2871389 21.8241474,14.2871389 C24.5434941,14.2871389 26.7461649,16.5865107 26.7461649,19.4281262 C26.7461649,22.2658686 24.542258,24.5691136 21.8241474,24.5691136 L21.8241474,24.5691136 L21.8241474,24.5691136 Z"></path>
        </g>
    </g>
</svg>