<?xml version="1.0" encoding="UTF-8" standalone="no"?>
<svg width="44px" height="44px" viewBox="0 0 44 44" version="1.1" xmlns="http://www.w3.org/2000/svg" xmlns:xlink="http://www.w3.org/1999/xlink">
    <defs></defs>
    <g stroke="none" stroke-width="1" fill="none" fill-rule="evenodd">
        <g fill="#969696">
            <path d="M34.2702594,18.4830951 L13.8347928,5.88243647 C13.3250384,5.43659546 12.6836324,5.13868326 11.9695549,5.04520047 C11.9010961,5.03492764 11.8347438,5.03184579 11.766285,5.02568209 C11.676762,5.0184911 11.5903987,5 11.4998225,5 C11.4492683,5 11.4018738,5.0123274 11.3513196,5.01438197 C11.2491581,5.0184911 11.149103,5.0308185 11.0490479,5.04417319 C10.9047579,5.06266429 10.7636275,5.08526453 10.6256568,5.12019216 C10.5877411,5.130465 10.5508787,5.1427924 10.5140163,5.15409252 C9.06374382,5.57014231 8,6.85835574 8,8.40133547 L8,35.6007191 C8,37.1272623 9.04373279,38.4052029 10.4718879,38.8335801 C10.5340273,38.8541258 10.5961668,38.8736441 10.6593595,38.8900807 C10.7720532,38.91679 10.8858001,38.9352811 11.0016533,38.9517177 C11.1280387,38.9702088 11.2544242,38.985618 11.382916,38.9886999 C11.422938,38.9897272 11.4608536,39 11.5019289,39 C11.5756537,39 11.6441125,38.9835635 11.7157309,38.9794543 C11.8094667,38.9722633 11.9032026,38.9671269 11.9969384,38.9517177 C12.6941645,38.855153 13.3197723,38.5634045 13.8211011,38.1298909 L34.2723658,25.5230686 C35.4751336,24.7813699 36.0954753,23.3883736 35.9880477,22.0025682 C36.0933689,20.6167628 35.4730272,19.2237665 34.2702594,18.4830951 L34.2702594,18.4830951 L34.2702594,18.4830951 Z M15.0006982,15.1680515 L26.0857513,22.0015409 L15.0006982,28.8340031 L15.0006982,15.1680515 L15.0006982,15.1680515 L15.0006982,15.1680515 Z"></path>
        </g>
    </g>
</svg>