<?xml version="1.0" encoding="UTF-8" standalone="no"?>
<svg width="44px" height="44px" viewBox="0 0 44 44" version="1.1" xmlns="http://www.w3.org/2000/svg" xmlns:xlink="http://www.w3.org/1999/xlink">
    <defs></defs>
    <g stroke="none" stroke-width="1" fill="none" fill-rule="evenodd">
        <g fill="#7EBE59">
            <path d="M22.0005837,4 C14.2677507,4 8,10.092496 8,17.6103186 C8,17.756208 8.06887638,21.2549713 9.27246196,23.7492926 C12.7209506,31.4827216 21.9877423,40.0450089 21.9994163,39.9998219 C22.0134251,40.0295162 31.2416927,31.513707 34.7065249,23.7957707 C35.7338336,21.9663435 36,17.9085526 36,17.6103186 C36,10.092496 29.7322493,4 22.0005837,4 L22.0005837,4 L22.0005837,4 Z M22.0005837,24.5691136 C19.4346467,24.5691136 17.3531791,22.2671597 17.3531791,19.4281262 C17.3531791,16.5865107 19.4334793,14.2871389 22.0005837,14.2871389 C24.5688555,14.2871389 26.6491557,16.5865107 26.6491557,19.4281262 C26.6491557,22.2658686 24.5676881,24.5691136 22.0005837,24.5691136 L22.0005837,24.5691136 L22.0005837,24.5691136 Z"></path>
        </g>
    </g>
</svg>