<?xml version="1.0" encoding="UTF-8" standalone="no"?>
<svg width="44px" height="41px" viewBox="0 0 44 41" version="1.1" xmlns="http://www.w3.org/2000/svg" xmlns:xlink="http://www.w3.org/1999/xlink">
    <!-- Generator: Sketch 3.8.3 (29802) - http://www.bohemiancoding.com/sketch -->
    <title>icons/attach-active</title>
    <desc>Created with Sketch.</desc>
    <defs></defs>
    <g id="Icons" stroke="none" stroke-width="1" fill="none" fill-rule="evenodd">
        <g id="icons/attach-active" fill="#36DD69">
            <path d="M13.5444638,19.5455351 L13.4962275,19.5835074 L4.97117431,28.3595009 C3.91423228,29.4475546 3.3737022,30.906569 3.3737022,32.3144668 C3.3737022,33.7617974 3.91281357,35.2076675 4.97117431,36.2957213 L5.04211001,36.368745 C6.0749339,37.4086031 7.46811118,37.9270717 8.82440188,37.9270717 C10.2303476,37.9270717 11.6235249,37.3823146 12.6790482,36.2957213 L22.3092797,26.3820179 L22.3461662,26.3571898 L32.6971045,15.7015652 C33.1638615,15.2312923 33.3809247,14.5886834 33.3809247,13.9475349 C33.3809247,13.3166098 33.1638615,12.6856846 32.6971045,12.2154117 C32.2161604,11.7349155 31.6032759,11.4866348 30.9918102,11.4866348 C30.3803444,11.4866348 29.7546914,11.7349155 29.2992842,12.2154117 L14.4098794,27.5314116 C13.7487586,28.236821 12.6804669,28.236821 12.0065777,27.5314116 C11.3582253,26.8522908 11.3582253,25.7510928 12.0065777,25.071972 L26.8974012,9.7428278 C28.0266976,8.58028981 29.5149287,8.01216509 30.9918102,8.01216509 C32.4686916,8.01216509 33.9583414,8.58028981 35.0748694,9.7428278 C36.2041659,10.9053658 36.7673954,12.4257201 36.7673954,13.9460745 C36.7673954,15.4781126 36.2027471,17.0101507 35.0748694,18.1726887 L24.7366996,28.8283133 L24.7012317,28.8531414 L24.6643451,28.876509 L15.0823499,38.7537005 C13.3529374,40.5223355 11.0957632,41.4117647 8.8258206,41.4117647 C6.62823241,41.4117647 4.39517637,40.5588474 2.68988199,38.8413289 L2.59340943,38.7537005 L2.59340943,38.7537005 C0.863996905,36.9865259 8.17124146e-14,34.6497661 8.17124146e-14,32.3130063 C8.17124146e-14,30.0142189 0.863996905,27.6657753 2.59340943,25.9102845 L12.2009415,15.9834369 L12.2491778,15.946925 L24.3649965,3.47300922 C26.6108209,1.16107752 29.553234,0 32.5069968,0 C35.4494099,0 38.4031728,1.16253799 40.6376475,3.47300922 C42.8707036,5.77325713 44,8.81396579 44,11.8415302 C44,14.8836993 42.8707036,17.924408 40.6376475,20.2231954 L23.9705939,37.356026 C23.3222416,38.0482911 22.2411814,38.0482911 21.592829,37.356026 C20.9090088,36.6871285 20.9090088,35.5757072 21.592829,34.9082701 L38.2371832,17.7506115 C39.8218869,16.1440891 40.6135294,13.9942701 40.6135294,11.8415302 C40.6135294,9.70339498 39.8218869,7.55211551 38.2371832,5.93244889 C36.675179,4.31424274 34.5868318,3.49783729 32.5084156,3.49783729 C30.4186496,3.49783729 28.3430709,4.31278227 26.7569485,5.93244889 L13.5444638,19.5455351 L13.5444638,19.5455351 L13.5444638,19.5455351 Z" id="Shape"></path>
        </g>
    </g>
</svg>