<?xml version="1.0" encoding="UTF-8" standalone="no"?>
<svg width="36px" height="44px" viewBox="0 0 36 44" version="1.1" xmlns="http://www.w3.org/2000/svg" xmlns:xlink="http://www.w3.org/1999/xlink">
    <!-- Generator: Sketch 3.7.2 (28276) - http://www.bohemiancoding.com/sketch -->
    <title>icons/attach-video</title>
    <desc>Created with Sketch.</desc>
    <defs></defs>
    <g id="Icons" stroke="none" stroke-width="1" fill="none" fill-rule="evenodd">
        <g id="icons/attach-video" fill="#969696">
            <path d="M33.9968063,17.4487114 L7.55090835,1.14197661 C6.8912261,0.565005892 6.06117138,0.17947246 5.13707104,0.0584947276 C5.04847735,0.0452004713 4.96260962,0.0412121945 4.87401593,0.0332356407 C4.75816264,0.0239296613 4.6463983,-7.46069873e-14 4.52918203,-7.46069873e-14 C4.463759,-7.46069873e-14 4.4024249,0.0159531075 4.33700187,0.0186119588 C4.20479283,0.0239296613 4.07530974,0.0398827688 3.94582665,0.057165302 C3.75909842,0.0810949633 3.57645912,0.110342327 3.39790876,0.155542798 C3.34884148,0.168837055 3.30113719,0.184790162 3.25343289,0.199413844 C1.37660964,0.737831223 0,2.40493096 0,4.40172825 L0,39.6009306 C0,41.5764571 1.35071303,43.2302626 3.1989137,43.784633 C3.27932951,43.8112216 3.35974532,43.8364806 3.44152411,43.8577515 C3.58736295,43.8923165 3.73456478,43.9162462 3.88449256,43.937517 C4.04805014,43.9614467 4.21160772,43.981388 4.37789127,43.9853763 C4.4296845,43.9867057 4.47875177,44 4.53190799,44 C4.62731658,44 4.71591027,43.9787292 4.8085929,43.9734115 C4.9298981,43.9641055 5.05120331,43.9574584 5.17250852,43.937517 C6.07480117,43.812551 6.8844112,43.4349941 7.53318961,42.8739765 L33.9995323,26.5592652 C35.5560552,25.5994199 36.3588504,23.7967187 36.2198264,22.0033236 C36.3561244,20.2099284 35.5533293,18.4072272 33.9968063,17.4487114 L33.9968063,17.4487114 L33.9968063,17.4487114 Z M9.05972704,13.1586549 L23.4050899,22.0019941 L9.05972704,30.844004 L9.05972704,13.1586549 L9.05972704,13.1586549 L9.05972704,13.1586549 Z" id="Shape"></path>
        </g>
    </g>
</svg>