<?xml version="1.0" encoding="UTF-8" standalone="no"?>
<svg width="36px" height="44px" viewBox="0 0 36 44" version="1.1" xmlns="http://www.w3.org/2000/svg" xmlns:xlink="http://www.w3.org/1999/xlink">
    <!-- Generator: Sketch 3.7.2 (28276) - http://www.bohemiancoding.com/sketch -->
    <title>icons/attach-location</title>
    <desc>Created with Sketch.</desc>
    <defs></defs>
    <g id="Icons" stroke="none" stroke-width="1" fill="none" fill-rule="evenodd">
        <g id="icons/attach-location" fill="#969696">
            <path d="M18.1184024,0 C8.11120676,0 -3.55271368e-15,7.44638405 -3.55271368e-15,16.6348338 C-3.55271368e-15,16.8131431 0.0891341402,21.0894094 1.64671547,24.1380243 C6.10946547,33.5899931 18.1017842,44.0550109 18.1168917,43.9997823 C18.1350207,44.0360754 30.0774847,33.6278641 34.5613852,24.1948308 C35.8908435,21.9588643 36.2352941,16.9993421 36.2352941,16.6348338 C36.2352941,7.44638405 28.1240874,0 18.1184024,0 L18.1184024,0 L18.1184024,0 Z M18.1184024,25.1400277 C14.797778,25.1400277 12.1041141,22.3265285 12.1041141,18.8565987 C12.1041141,15.3835131 14.7962673,12.5731698 18.1184024,12.5731698 C21.4420483,12.5731698 24.1342015,15.3835131 24.1342015,18.8565987 C24.1342015,22.3249505 21.4405376,25.1400277 18.1184024,25.1400277 L18.1184024,25.1400277 L18.1184024,25.1400277 Z" id="Shape"></path>
        </g>
    </g>
</svg>