<?xml version="1.0" encoding="UTF-8" standalone="no"?>
<svg width="44px" height="44px" viewBox="0 0 44 44" version="1.1" xmlns="http://www.w3.org/2000/svg" xmlns:xlink="http://www.w3.org/1999/xlink">
    <defs></defs>
    <g stroke="none" stroke-width="1" fill="none" fill-rule="evenodd">
        <g fill="#969696">
            <path d="M15.4661766,21.103368 L15.4289031,21.1327103 L8.84136197,27.9141598 C8.02463404,28.7549286 7.6069517,29.8823488 7.6069517,30.9702698 C7.6069517,32.0886616 8.02353776,33.2059249 8.84136197,34.0466937 L8.89617592,34.1031211 C9.69426711,34.9066479 10.7708132,35.3072827 11.818856,35.3072827 C12.9052686,35.3072827 13.9818147,34.886334 14.7974463,34.0466937 L22.2389888,26.3861047 L22.2674921,26.3669194 L30.2659444,18.1330277 C30.6266202,17.769635 30.7943509,17.2730735 30.7943509,16.7776406 C30.7943509,16.2901076 30.6266202,15.8025745 30.2659444,15.4391818 C29.8943058,15.0678893 29.4207132,14.876036 28.9482169,14.876036 C28.4757206,14.876036 27.9922616,15.0678893 27.640356,15.4391818 L16.1349068,27.2742726 C15.6240408,27.8193617 14.7985426,27.8193617 14.27781,27.2742726 C13.7768105,26.7494974 13.7768105,25.8985717 14.27781,25.3737965 L25.7843555,13.5285488 C26.6569936,12.6302239 27.8069904,12.1912185 28.9482169,12.1912185 C30.0894435,12.1912185 31.2405365,12.6302239 32.1033082,13.5285488 C32.9759463,14.4268736 33.4111691,15.6016928 33.4111691,16.7765121 C33.4111691,17.9603597 32.9748501,19.1442074 32.1033082,20.0425322 L24.1147224,28.2764239 L24.0873154,28.2956092 L24.0588121,28.313666 L16.6545431,35.9460413 C15.3181789,37.3127138 13.5739988,38 11.8199523,38 C10.121816,38 8.39627265,37.3409275 7.07854517,36.0137542 L7.00399819,35.9460413 L7.00399819,35.9460413 C5.66763397,34.5804973 5,32.7748193 5,30.9691412 C5,29.1928055 5.66763397,27.3780991 7.00399819,26.0215835 L14.4280003,18.3508376 L14.4652737,18.3226239 L23.8274973,8.68368894 C25.5629071,6.89719626 27.8365899,6 30.119043,6 C32.3927259,6 34.675179,6.89832481 36.4018185,8.68368894 C38.1273618,10.4611532 39,12.8107917 39,15.1502733 C39,17.5010404 38.1273618,19.8506789 36.4018185,21.6270146 L23.5227317,34.8660201 C23.0217321,35.4009522 22.1863674,35.4009522 21.6853679,34.8660201 C21.1569614,34.3491448 21.1569614,33.4903192 21.6853679,32.9745724 L34.5469143,19.7163816 C35.7714581,18.474978 36.3831818,16.8137542 36.3831818,15.1502733 C36.3831818,13.4980779 35.7714581,11.8357256 34.5469143,10.5841651 C33.339911,9.33373303 31.7261882,8.70287427 30.1201393,8.70287427 C28.5053202,8.70287427 26.9014639,9.33260448 25.6758238,10.5841651 L15.4661766,21.103368 L15.4661766,21.103368 L15.4661766,21.103368 Z"></path>
        </g>
    </g>
</svg>