<?xml version="1.0" encoding="UTF-8" standalone="no"?>
<svg width="44px" height="35px" viewBox="0 0 44 35" version="1.1" xmlns="http://www.w3.org/2000/svg" xmlns:xlink="http://www.w3.org/1999/xlink">
    <!-- Generator: Sketch 3.7.2 (28276) - http://www.bohemiancoding.com/sketch -->
    <title>icons/balloon-dots-fill</title>
    <desc>Created with Sketch.</desc>
    <defs></defs>
    <g id="Icons" stroke="none" stroke-width="1" fill="none" fill-rule="evenodd">
        <g id="icons/balloon-dots-fill" fill="#FFFFFF">
            <path d="M37.0675241,0 L6.93247588,0 C3.25401929,0 0,2.98008705 0,6.66971863 L0,21.8539717 C0,25.5436033 3.25401929,28.3817814 6.93247588,28.3817814 L21.7877814,28.3817814 L20.2315113,33.4905021 C20.0900322,34.3419555 20.9389068,34.7676822 21.7877814,34.4838644 L37.2090032,28.3817814 C39.1897106,27.3884191 44,25.5436033 44,21.8539717 L44,6.66971863 C43.8585209,2.98008705 40.7459807,0 37.0675241,0 L37.0675241,0 L37.0675241,0 Z M12.733119,17.0290688 C11.1768489,17.0290688 9.90353698,15.7518887 9.90353698,14.1908907 C9.90353698,12.6298927 11.1768489,11.3527126 12.733119,11.3527126 C14.2893891,11.3527126 15.562701,12.6298927 15.562701,14.1908907 C15.562701,15.7518887 14.2893891,17.0290688 12.733119,17.0290688 L12.733119,17.0290688 L12.733119,17.0290688 Z M21.221865,17.0290688 C19.6655949,17.0290688 18.392283,15.7518887 18.392283,14.1908907 C18.392283,12.6298927 19.6655949,11.3527126 21.221865,11.3527126 C22.778135,11.3527126 24.0514469,12.6298927 24.0514469,14.1908907 C24.0514469,15.7518887 22.778135,17.0290688 21.221865,17.0290688 L21.221865,17.0290688 L21.221865,17.0290688 Z M29.7106109,17.0290688 C28.1543408,17.0290688 26.8810289,15.7518887 26.8810289,14.1908907 C26.8810289,12.6298927 28.1543408,11.3527126 29.7106109,11.3527126 C31.266881,11.3527126 32.5401929,12.6298927 32.5401929,14.1908907 C32.5401929,15.7518887 31.266881,17.0290688 29.7106109,17.0290688 L29.7106109,17.0290688 L29.7106109,17.0290688 Z" id="Shape"></path>
        </g>
    </g>
</svg>