<?xml version="1.0" encoding="UTF-8" standalone="no"?>
<svg width="44px" height="44px" viewBox="0 0 44 44" version="1.1" xmlns="http://www.w3.org/2000/svg" xmlns:xlink="http://www.w3.org/1999/xlink">
    <defs></defs>
    <g stroke="none" stroke-width="1" fill="none" fill-rule="evenodd">
        <g fill="#7DC15B">
            <path d="M36.3826367,6 L7.61736334,6 C4.10610932,6 1,8.84462855 1,12.3665496 L1,26.8606093 C1,30.3825304 4.10610932,33.0917004 7.61736334,33.0917004 L21.7974277,33.0917004 L20.3118971,37.9682065 C20.1768489,38.7809575 20.9871383,39.187333 21.7974277,38.916416 L36.5176849,33.0917004 C38.4083601,32.1434909 43,30.3825304 43,26.8606093 L43,12.3665496 C42.8649518,8.84462855 39.8938907,6 36.3826367,6 L36.3826367,6 L36.3826367,6 Z M13.1543408,22.2550203 C11.6688103,22.2550203 10.4533762,21.0358937 10.4533762,19.5458502 C10.4533762,18.0558067 11.6688103,16.8366802 13.1543408,16.8366802 C14.6398714,16.8366802 15.8553055,18.0558067 15.8553055,19.5458502 C15.8553055,21.0358937 14.6398714,22.2550203 13.1543408,22.2550203 L13.1543408,22.2550203 L13.1543408,22.2550203 Z M21.2572347,22.2550203 C19.7717042,22.2550203 18.5562701,21.0358937 18.5562701,19.5458502 C18.5562701,18.0558067 19.7717042,16.8366802 21.2572347,16.8366802 C22.7427653,16.8366802 23.9581994,18.0558067 23.9581994,19.5458502 C23.9581994,21.0358937 22.7427653,22.2550203 21.2572347,22.2550203 L21.2572347,22.2550203 L21.2572347,22.2550203 Z M29.3601286,22.2550203 C27.8745981,22.2550203 26.659164,21.0358937 26.659164,19.5458502 C26.659164,18.0558067 27.8745981,16.8366802 29.3601286,16.8366802 C30.8456592,16.8366802 32.0610932,18.0558067 32.0610932,19.5458502 C32.0610932,21.0358937 30.8456592,22.2550203 29.3601286,22.2550203 L29.3601286,22.2550203 L29.3601286,22.2550203 Z"></path>
        </g>
    </g>
</svg>