<?xml version="1.0" encoding="UTF-8" standalone="no"?>
<svg width="44px" height="44px" viewBox="0 0 44 44" version="1.1" xmlns="http://www.w3.org/2000/svg" xmlns:xlink="http://www.w3.org/1999/xlink">
    <defs></defs>
    <g stroke="none" stroke-width="1" fill="none" fill-rule="evenodd">
        <g fill="#7EBE59">
            <path d="M22,5 C12.6114667,5 5,12.6114667 5,22 C5,31.3885333 12.6114667,39 22,39 C31.3885333,39 39,31.3885333 39,22 C39,12.6114667 31.3885333,5 22,5 L22,5 Z M22,35.6 C14.5007333,35.6 8.4,29.4992667 8.4,22 C8.4,14.5007333 14.5007333,8.4 22,8.4 C29.4992667,8.4 35.6,14.5007333 35.6,22 C35.6,29.4992667 29.4992667,35.6 22,35.6 L22,35.6 Z M29.9333333,18.6 L14.0666667,18.6 C12.8154667,18.6 11.8,19.6154667 11.8,20.8666667 L11.8,23.1333333 C11.8,24.3845333 12.8154667,25.4 14.0666667,25.4 L29.9333333,25.4 C31.1845333,25.4 32.2,24.3845333 32.2,23.1333333 L32.2,20.8666667 C32.2,19.6154667 31.1845333,18.6 29.9333333,18.6 L29.9333333,18.6 Z"></path>
        </g>
    </g>
</svg>