<?xml version="1.0" encoding="UTF-8" standalone="no"?>
<svg width="44px" height="44px" viewBox="0 0 44 44" version="1.1" xmlns="http://www.w3.org/2000/svg" xmlns:xlink="http://www.w3.org/1999/xlink">
    <!-- Generator: Sketch 3.7.2 (28276) - http://www.bohemiancoding.com/sketch -->
    <title>icons/ban-active</title>
    <desc>Created with Sketch.</desc>
    <defs></defs>
    <g id="Icons" stroke="none" stroke-width="1" fill="none" fill-rule="evenodd">
        <g id="icons/ban-active" fill="#7EBE59">
            <path d="M22,0 C9.85013333,0 0,9.85013333 0,22 C0,34.1498667 9.85013333,44 22,44 C34.1498667,44 44,34.1498667 44,22 C44,9.85013333 34.1498667,0 22,0 L22,0 Z M22,39.6 C12.2950667,39.6 4.4,31.7049333 4.4,22 C4.4,12.2950667 12.2950667,4.4 22,4.4 C31.7049333,4.4 39.6,12.2950667 39.6,22 C39.6,31.7049333 31.7049333,39.6 22,39.6 L22,39.6 Z M32.2666667,17.6 L11.7333333,17.6 C10.1141333,17.6 8.8,18.9141333 8.8,20.5333333 L8.8,23.4666667 C8.8,25.0858667 10.1141333,26.4 11.7333333,26.4 L32.2666667,26.4 C33.8858667,26.4 35.2,25.0858667 35.2,23.4666667 L35.2,20.5333333 C35.2,18.9141333 33.8858667,17.6 32.2666667,17.6 L32.2666667,17.6 Z" id="Shape"></path>
        </g>
    </g>
</svg>