<?xml version="1.0" encoding="UTF-8" standalone="no"?>
<svg width="44px" height="44px" viewBox="0 0 44 44" version="1.1" xmlns="http://www.w3.org/2000/svg" xmlns:xlink="http://www.w3.org/1999/xlink">
    <defs></defs>
    <g stroke="none" stroke-width="1" fill="none" fill-rule="evenodd">
        <g fill="#7DC15B">
            <path d="M36.7858182,29.0926518 C33.5296685,27.0479233 33.3994225,18.2300319 33.3994225,18.2300319 C33.1389305,12.9904153 30.0130268,8.64536741 25.7149091,6.98402556 C25.7149091,6.7284345 25.8451551,6.60063898 25.8451551,6.34504792 C25.8451551,3.91693291 23.8914653,2 21.4167915,2 C18.9421177,2 16.9884278,3.91693291 16.9884278,6.34504792 C16.9884278,6.60063898 16.9884278,6.85623003 17.1186738,6.98402556 C12.9508022,8.77316294 10.0853904,12.7348243 9.95514443,18.2300319 C9.95514443,18.2300319 10.2156364,26.9201278 6.82924069,29.0926518 C6.69899471,29.2204473 5.13604284,29.9872204 5.00579685,31.3929712 C4.87555086,32.9265176 6.95948668,34.2044728 9.30391449,34.2044728 L34.7018824,34.2044728 C37.0463102,34.2044728 39,32.9265176 39,31.3929712 C38.869754,29.9872204 36.9160642,29.0926518 36.7858182,29.0926518 L36.7858182,29.0926518 Z M17.7699038,35.8658147 C17.5094118,36.3769968 17.3791658,37.0159744 17.3791658,37.6549521 C17.3791658,40.0830671 19.3328556,42 21.8075294,42 C24.2822032,42 26.2358931,40.0830671 26.2358931,37.6549521 C26.2358931,37.0159744 26.1056471,36.3769968 25.8451551,35.8658147 L17.7699038,35.8658147 L17.7699038,35.8658147 Z"></path>
        </g>
    </g>
</svg>