<?xml version="1.0" encoding="UTF-8" standalone="no"?>
<svg width="37px" height="44px" viewBox="0 0 37 44" version="1.1" xmlns="http://www.w3.org/2000/svg" xmlns:xlink="http://www.w3.org/1999/xlink">
    <!-- Generator: Sketch 3.8.3 (29802) - http://www.bohemiancoding.com/sketch -->
    <title>icons/bell-active</title>
    <desc>Created with Sketch.</desc>
    <defs></defs>
    <g id="Icons" stroke="none" stroke-width="1" fill="none" fill-rule="evenodd">
        <g id="icons/bell-active" fill="#36DD69">
            <path d="M34.9644,29.8019169 C31.3826353,27.5527157 31.2393647,17.8530351 31.2393647,17.8530351 C30.9528235,12.0894569 27.5143294,7.30990415 22.7864,5.48242812 C22.7864,5.20127796 22.9296706,5.06070288 22.9296706,4.77955272 C22.9296706,2.1086262 20.7806118,0 18.0584706,0 C15.3363294,0 13.1872706,2.1086262 13.1872706,4.77955272 C13.1872706,5.06070288 13.1872706,5.34185304 13.3305412,5.48242812 C8.7458824,7.45047923 5.59392946,11.8083067 5.45065888,17.8530351 C5.45065888,17.8530351 5.73720005,27.4121406 2.01216476,29.8019169 C1.86889418,29.942492 0.14964712,30.7859425 0.00637653182,32.3322684 C-0.136894056,34.0191693 2.15543535,35.4249201 4.73430594,35.4249201 L32.6720706,35.4249201 C35.2509412,35.4249201 37.4,34.0191693 37.4,32.3322684 C37.2567294,30.7859425 35.1076706,29.8019169 34.9644,29.8019169 L34.9644,29.8019169 Z M14.0468942,37.2523962 C13.760353,37.8146965 13.6170824,38.5175719 13.6170824,39.2204473 C13.6170824,41.8913738 15.7661412,44 18.4882824,44 C21.2104236,44 23.3594824,41.8913738 23.3594824,39.2204473 C23.3594824,38.5175719 23.2162118,37.8146965 22.9296706,37.2523962 L14.0468942,37.2523962 L14.0468942,37.2523962 Z" id="bell"></path>
        </g>
    </g>
</svg>