<?xml version="1.0" encoding="UTF-8" standalone="no"?>
<svg width="44px" height="44px" viewBox="0 0 44 44" version="1.1" xmlns="http://www.w3.org/2000/svg" xmlns:xlink="http://www.w3.org/1999/xlink">
    <defs></defs>
    <g stroke="none" stroke-width="1" fill="none" fill-rule="evenodd">
        <g fill="#969696">
            <path d="M34.8130612,13.7412987 L29.5232653,13.7412987 C29.5232653,13.7412987 29.1265306,12.694026 28.7297959,11.3849351 C28.3330612,10.0758442 26.7461224,9.02857143 25.2914286,9.02857143 L19.4726531,9.02857143 L18.6791837,9.02857143 C16.96,9.02857143 15.2408163,10.0758442 14.8440816,11.3849351 C14.4473469,12.694026 14.0506122,13.7412987 14.0506122,13.7412987 L8.76081633,13.7412987 C6.11591837,13.7412987 4,15.8358442 4,18.454026 L4,31.9376623 C4,34.5558442 6.11591837,36.6503896 8.76081633,36.6503896 L28.0685714,36.6503896 L34.6808163,36.6503896 C37.3257143,36.6503896 39.4416327,34.5558442 39.4416327,31.9376623 L39.4416327,18.454026 C39.5738776,15.8358442 37.4579592,13.7412987 34.8130612,13.7412987 L34.8130612,13.7412987 L34.8130612,13.7412987 L34.8130612,13.7412987 Z M29.5232653,26.3085714 C28.9942857,29.4503896 26.3493878,32.0685714 23.1755102,32.5922078 C22.7787755,32.7231169 22.2497959,32.7231169 21.8530612,32.7231169 C19.7371429,32.7231169 17.8857143,31.9376623 16.4310204,30.4976623 C14.5795918,28.6649351 13.7861224,26.3085714 14.315102,23.8212987 C14.8440816,20.6794805 17.4889796,18.0612987 20.6628571,17.5376623 C23.1755102,17.1449351 25.6881633,17.9303896 27.4073469,19.6322078 C29.1265306,21.334026 29.92,23.8212987 29.5232653,26.3085714 L29.5232653,26.3085714 L29.5232653,26.3085714 L29.5232653,26.3085714 Z M22.0146939,19.3890909 C21.7502041,19.3890909 21.3534694,19.3890909 21.0889796,19.52 C18.8408163,19.9127273 16.9893878,21.7454545 16.5926531,23.9709091 C16.3281633,25.6727273 16.8571429,27.5054545 18.1795918,28.6836364 C19.5020408,29.9927273 21.2212245,30.5163636 22.9404082,30.2545455 C25.1885714,29.8618182 27.04,28.0290909 27.4367347,25.8036364 C27.7012245,24.1018182 27.1722449,22.2690909 25.8497959,21.0909091 C24.7918367,20.0436364 23.4693878,19.3890909 22.0146939,19.3890909 L22.0146939,19.3890909 L22.0146939,19.3890909 Z"></path>
        </g>
    </g>
</svg>