<?xml version="1.0" encoding="UTF-8" standalone="no"?>
<svg width="44px" height="34px" viewBox="0 0 44 34" version="1.1" xmlns="http://www.w3.org/2000/svg" xmlns:xlink="http://www.w3.org/1999/xlink">
    <!-- Generator: Sketch 3.7.2 (28276) - http://www.bohemiancoding.com/sketch -->
    <title>icons/camera-active</title>
    <desc>Created with Sketch.</desc>
    <defs></defs>
    <g id="Icons" stroke="none" stroke-width="1" fill="none" fill-rule="evenodd">
        <g id="icons/camera-active" fill="#7EBE59">
            <path d="M38.2473871,5.84977595 L31.6813121,5.84977595 C31.6813121,5.84977595 31.1888564,4.54982574 30.6964008,2.92488797 C30.2039452,1.29995021 28.2341227,9.23705556e-14 26.428452,9.23705556e-14 L19.2057695,9.23705556e-14 L18.2208582,9.23705556e-14 C16.0868839,9.23705556e-14 13.9529095,1.29995021 13.4604538,2.92488797 C12.9679982,4.54982574 12.4755426,5.84977595 12.4755426,5.84977595 L5.90946754,5.84977595 C2.62643002,5.84977595 0,8.44967637 0,11.6995519 L0,28.4364108 C0,31.6862864 2.62643002,34.2861868 5.90946754,34.2861868 L29.8756414,34.2861868 L38.0832352,34.2861868 C41.3662728,34.2861868 43.9927028,31.6862864 43.9927028,28.4364108 L43.9927028,11.6995519 C44.1568547,8.44967637 41.5304246,5.84977595 38.2473871,5.84977595 L38.2473871,5.84977595 L38.2473871,5.84977595 L38.2473871,5.84977595 Z M31.6813121,21.4491785 C31.0247046,25.3490291 27.741667,28.5989046 23.802022,29.2488797 C23.3095664,29.4113735 22.6529589,29.4113735 22.1605033,29.4113735 C19.5340732,29.4113735 17.235947,28.4364108 15.4302763,26.6489793 C13.1321501,24.3740664 12.1472388,21.4491785 12.8038463,18.3617967 C13.4604538,14.4619461 16.7434914,11.2120706 20.6831364,10.5620955 C23.802022,10.0746141 26.9209077,11.0495768 29.0548821,13.1619959 C31.1888564,15.274415 32.1737677,18.3617967 31.6813121,21.4491785 L31.6813121,21.4491785 L31.6813121,21.4491785 L31.6813121,21.4491785 Z M22.3611333,12.8602217 C22.0328296,12.8602217 21.540374,12.8602217 21.2120702,13.0227155 C18.4214883,13.5101968 16.123362,15.7851097 15.6309064,18.5475039 C15.3026027,20.659923 15.9592102,22.9348359 17.6007289,24.3972798 C19.2422477,26.0222176 21.3762221,26.6721927 23.5101965,26.3472052 C26.3007784,25.8597238 28.5989046,23.584811 29.0913603,20.8224168 C29.419664,18.7099977 28.7630565,16.4350848 27.1215377,14.9726408 C25.8083227,13.6726906 24.166804,12.8602217 22.3611333,12.8602217 L22.3611333,12.8602217 L22.3611333,12.8602217 Z" id="Shape"></path>
        </g>
    </g>
</svg>