<?xml version="1.0" encoding="UTF-8" standalone="no"?>
<svg width="44px" height="44px" viewBox="0 0 44 44" version="1.1" xmlns="http://www.w3.org/2000/svg" xmlns:xlink="http://www.w3.org/1999/xlink">
    <!-- Generator: Sketch 3.7.2 (28276) - http://www.bohemiancoding.com/sketch -->
    <title>icons/clock</title>
    <desc>Created with Sketch.</desc>
    <defs></defs>
    <g id="Icons" stroke="none" stroke-width="1" fill="none" fill-rule="evenodd">
        <g id="icons/clock" fill="#969696">
            <path d="M22,-3.55271368e-15 C9.85010567,-3.55271368e-15 -3.55271368e-15,9.84992675 -3.55271368e-15,22.0011936 C-3.55271368e-15,34.1500732 9.85010567,44 22,44 C34.1498943,44 44,34.1500732 44,22.0011936 C44,9.84992675 34.1475099,-3.55271368e-15 22,-3.55271368e-15 L22,-3.55271368e-15 L22,-3.55271368e-15 Z M22,38.1344474 C13.104861,38.1344474 5.86690511,30.8962075 5.86690511,22.0011936 C5.86690511,13.1037925 13.104861,5.86435896 22,5.86435896 C30.895139,5.86435896 38.1330949,13.1025989 38.1330949,22.0011936 C38.1330949,30.8962075 30.895139,38.1344474 22,38.1344474 L22,38.1344474 L22,38.1344474 Z M33.7183114,20.5127231 L24.5227334,20.5127231 C24.2640221,20.0722695 23.8956267,19.7117899 23.4556983,19.458738 L23.4556983,8.78042429 C23.4556983,7.97113559 22.7987861,7.31343931 21.9904623,7.31343931 C21.1821384,7.31343931 20.5252263,7.9687483 20.5252263,8.78042429 L20.5252263,19.4706744 C19.6477538,19.9827465 19.0576058,20.9161738 19.0576058,22.0023873 C19.0576058,23.6257392 20.3738146,24.9447127 21.9988078,24.9447127 C23.0956484,24.9447127 24.0410773,24.3395367 24.5465778,23.4478867 L33.7195036,23.4478867 C34.5278275,23.4478867 35.1847396,22.7925777 35.1847396,21.9809017 C35.1847396,21.1692258 34.5266352,20.5127231 33.7183114,20.5127231 L33.7183114,20.5127231 Z" id="Shape"></path>
        </g>
    </g>
</svg>