<?xml version="1.0" encoding="UTF-8" standalone="no"?>
<svg width="44px" height="44px" viewBox="0 0 44 44" version="1.1" xmlns="http://www.w3.org/2000/svg" xmlns:xlink="http://www.w3.org/1999/xlink">
    <defs></defs>
    <g stroke="none" stroke-width="1" fill="none" fill-rule="evenodd">
        <g fill="#7EBE59">
            <path d="M22,5 C12.6114453,5 5,12.611307 5,22.0009224 C5,31.388693 12.6114453,39 22,39 C31.3885547,39 39,31.388693 39,22.0009224 C39,12.611307 31.3867122,5 22,5 L22,5 L22,5 Z M22,34.4675275 C15.1264835,34.4675275 9.53351759,28.8743421 9.53351759,22.0009224 C9.53351759,15.1256579 15.1264835,9.53155011 22,9.53155011 C28.8735165,9.53155011 34.4664824,15.1247355 34.4664824,22.0009224 C34.4664824,28.8743421 28.8735165,34.4675275 22,34.4675275 L22,34.4675275 L22,34.4675275 Z M31.0550588,20.8507406 L23.9493849,20.8507406 C23.7494716,20.5103901 23.4648025,20.2318377 23.1248577,20.0362975 L23.1248577,11.7848733 C23.1248577,11.1595139 22.6172438,10.651294 21.9926299,10.651294 C21.368016,10.651294 20.8604021,11.1576691 20.8604021,11.7848733 L20.8604021,20.0455211 C20.1823552,20.4412132 19.7263318,21.162498 19.7263318,22.0018447 C19.7263318,23.2562531 20.7434022,24.2754598 21.9990787,24.2754598 C22.8466374,24.2754598 23.5771961,23.8078238 23.9678101,23.1188216 L31.0559801,23.1188216 C31.6805939,23.1188216 32.1882079,22.6124464 32.1882079,21.9852423 C32.1882079,21.3580381 31.6796727,20.8507406 31.0550588,20.8507406 L31.0550588,20.8507406 Z"></path>
        </g>
    </g>
</svg>