<?xml version="1.0" encoding="UTF-8" standalone="no"?>
<svg width="44px" height="44px" viewBox="0 0 44 44" version="1.1" xmlns="http://www.w3.org/2000/svg" xmlns:xlink="http://www.w3.org/1999/xlink">
    <!-- Generator: Sketch 3.7.2 (28276) - http://www.bohemiancoding.com/sketch -->
    <title>icons/cog-active</title>
    <desc>Created with Sketch.</desc>
    <defs></defs>
    <g id="Icons" stroke="none" stroke-width="1" fill="none" fill-rule="evenodd">
        <g id="icons/cog-active" fill="#7BBD59">
            <path d="M43.1016536,18.7104374 L40.158291,18.717741 C39.6689479,18.717741 39.1591545,18.3408738 39.0203856,17.8719808 L36.9359298,12.7944977 C36.7051351,12.3708872 36.7942394,11.7369322 37.1389707,11.3907402 L39.2015156,9.3179702 C39.5447862,8.97177817 39.5433254,8.40647727 39.1971334,8.06466742 L35.8652177,4.74881974 C35.5161043,4.40993134 34.9566463,4.41139207 34.6060721,4.75320192 L32.5493701,6.82305044 C32.203178,7.16924247 31.569223,7.26272893 31.1441518,7.03193424 L26.0476793,4.98253587 C25.5773256,4.84668837 25.1946154,4.33689505 25.1946154,3.85047334 L25.1858511,0.883739139 C25.1814689,0.394395979 24.7826907,0 24.2977297,0 L19.639475,0.0087643551 C19.154514,0.0087643551 18.7513537,0.41192469 18.7557359,0.896885672 L18.760118,3.93665617 C18.760118,4.42161715 18.3876329,4.944557 17.9172792,5.09355104 L12.9858688,7.22036788 C12.5578761,7.46284837 11.9312247,7.37812627 11.5821112,7.03193424 L9.35158284,4.81163095 C9.00539081,4.4698211 8.44008991,4.4698211 8.09828006,4.81893458 L4.77805021,8.14646806 C4.43185818,8.48973864 4.44208326,9.05503954 4.78681456,9.40123157 L7.0830756,11.690189 C7.43218907,12.0334596 7.53005771,12.6717967 7.30218447,13.1012501 L5.39009434,17.95086 C5.25132538,18.4212137 4.74299278,18.8053846 4.2580318,18.8053846 L0.885215815,18.8141489 C0.395872655,18.8141489 -0.00290550152,19.2143878 1.59501834e-05,19.703731 L0.011701757,24.4043468 C0.0146232087,24.8922292 0.414862092,25.2895466 0.899823074,25.2880859 L4.34567535,25.2807823 C4.83355779,25.2764001 5.35649764,25.660571 5.49672732,26.1236211 L7.48185375,30.8213154 C7.71995207,31.2493081 7.63084779,31.8803417 7.28611649,32.225073 L4.84232214,34.6790924 C4.49905157,35.0282059 4.49905157,35.5935068 4.84962577,35.9338559 L8.18154144,39.2424 C8.52481201,39.5856705 9.09303437,39.5856705 9.43484421,39.2409392 L11.8771778,36.7942234 C12.2189877,36.4480314 12.8500213,36.3560057 13.2823961,36.5897218 L18.003462,38.5558588 C18.4679729,38.6975492 18.850683,39.2131854 18.8536045,39.7010679 L18.8609081,43.1133235 C18.8609081,43.6055881 19.2596863,43.9985233 19.7490294,43.9985233 L24.4072842,43.9868375 C24.8922452,43.9853768 25.2910233,43.5836772 25.2881019,43.0972555 L25.2837197,39.7580362 C25.282259,39.2701537 25.6649691,38.7647426 26.1338621,38.6259736 L30.9893149,36.6861297 C31.420229,36.4597172 32.0556447,36.5546644 32.400376,36.897935 L34.6937156,39.178128 C35.0399076,39.5199379 35.6052085,39.5199379 35.9470184,39.1737458 L39.2628661,35.8505945 C39.6061366,35.5014811 39.6061366,34.9391016 39.2628661,34.5929096 L37.0396413,32.3857528 C36.6963708,32.0424822 36.6058057,31.4085272 36.8482862,30.9863775 L38.9517315,26.0418205 C39.0948826,25.5758489 39.6178225,25.1887566 40.1027834,25.1887566 L43.1148001,25.1843744 C43.5997611,25.1843744 44,24.781214 44,24.2962531 L43.9853927,19.5927158 C43.9868535,19.1092156 43.5909968,18.707516 43.1016536,18.7104374 L43.1016536,18.7104374 L43.1016536,18.7104374 Z M22.2366456,30.1932033 C17.6119875,30.2078106 13.847697,26.4625095 13.8345505,21.83493 C13.8257861,17.2073505 17.566705,13.4445207 22.1942845,13.4328349 C26.8233247,13.4182277 30.5876152,17.1635287 30.6007618,21.7954904 C30.6109869,26.4201484 26.8656858,30.1829782 22.2366456,30.1932033 L22.2366456,30.1932033 L22.2366456,30.1932033 Z" id="Shape"></path>
        </g>
    </g>
</svg>