<?xml version="1.0" encoding="UTF-8" standalone="no"?>
<svg width="44px" height="44px" viewBox="0 0 44 44" version="1.1" xmlns="http://www.w3.org/2000/svg" xmlns:xlink="http://www.w3.org/1999/xlink">
    <defs></defs>
    <g stroke="none" stroke-width="1" fill="none" fill-rule="evenodd">
        <g fill="#969696">
            <path d="M38.3058232,19.4580653 L36.0314067,19.463709 C35.6532779,19.463709 35.2593467,19.1724934 35.1521161,18.810167 L33.5414003,14.8866573 C33.3630589,14.5593219 33.4319123,14.0694476 33.6982955,13.8019356 L35.2920802,12.2002497 C35.5573348,11.9327377 35.556206,11.4959143 35.288694,11.2317885 L32.7140319,8.66954252 C32.4442624,8.40767422 32.0119539,8.40880296 31.7410557,8.67292875 L30.151786,10.2723572 C29.8842739,10.5398692 29.3943996,10.6121087 29.0659355,10.4337674 L25.1277522,8.85014136 C24.764297,8.74516829 24.4685665,8.35123708 24.4685665,7.97536576 L24.461794,5.68288933 C24.4584078,5.30476053 24.150261,5 23.7755184,5 L20.175958,5.00677246 C19.8012154,5.00677246 19.4896824,5.31830544 19.4930686,5.69304802 L19.4964548,8.04196158 C19.4964548,8.41670416 19.2086255,8.82079405 18.8451703,8.9359258 L15.0345349,10.5793752 C14.7038133,10.7667465 14.2195827,10.7012794 13.9498132,10.4337674 L12.2262231,8.71807846 C11.9587111,8.45395267 11.5218877,8.45395267 11.2577619,8.72372217 L8.6921297,11.2949981 C8.42461768,11.5602526 8.43251888,11.997076 8.69890216,12.264588 L10.4732857,14.0333278 C10.7430552,14.2985824 10.818681,14.7918429 10.6425971,15.1236933 L9.1650729,18.8711191 C9.05784234,19.2345742 8.66503988,19.5314335 8.2902973,19.5314335 L5.6840304,19.538206 C5.3059016,19.538206 4.99775484,19.8474815 5.00001233,20.2256103 L5.00904227,23.8579043 C5.01129975,24.2349044 5.32057525,24.5419224 5.69531783,24.5407937 L8.35802186,24.5351499 C8.73502193,24.5317637 9.13911181,24.828623 9.24747111,25.1864345 L10.7814324,28.816471 C10.9654175,29.1471926 10.8965642,29.6348095 10.6301809,29.9011928 L8.74179438,31.7974805 C8.47653985,32.06725 8.47653985,32.5040734 8.7474381,32.7670705 L11.3221002,35.3236727 C11.5873547,35.5889272 12.0264356,35.5889272 12.2905614,35.322544 L14.1778192,33.4318999 C14.441945,33.1643879 14.9295619,33.0932771 15.2636697,33.2738759 L18.9117661,34.7931636 C19.2707063,34.9026517 19.5664369,35.3010978 19.5686944,35.6780979 L19.5743381,38.3148409 C19.5743381,38.6952271 19.8824849,38.9988589 20.2606137,38.9988589 L23.8601741,38.989829 C24.2349167,38.9887002 24.5430635,38.678296 24.540806,38.3024247 L24.5374198,35.7221189 C24.536291,35.3451188 24.8320216,34.9545738 25.194348,34.8473433 L28.9462888,33.348373 C29.2792678,33.1734178 29.7702709,33.2467861 30.0366542,33.5120407 L31.8087802,35.274008 C32.0762923,35.5381338 32.5131157,35.5381338 32.7772415,35.2706218 L35.3394874,32.7027321 C35.604742,32.4329626 35.604742,31.9983967 35.3394874,31.7308847 L33.621541,30.0253544 C33.3562865,29.7600999 33.2863044,29.2702256 33.4736757,28.9440189 L35.0990652,25.1232249 C35.209682,24.763156 35.6137719,24.4640392 35.9885145,24.4640392 L38.3159819,24.4606529 C38.6907245,24.4606529 39,24.1491199 39,23.7743774 L38.9887126,20.1398259 C38.9898413,19.766212 38.683952,19.4558078 38.3058232,19.4580653 L38.3058232,19.4580653 L38.3058232,19.4580653 Z M22.1828625,28.3311117 C18.6092631,28.3423991 15.7004931,25.4483028 15.6903345,21.8724459 C15.683562,18.296589 18.5742721,15.3889478 22.1501289,15.3799179 C25.7271146,15.3686305 28.6358845,18.2627268 28.6460432,21.8419699 C28.6539444,25.4155693 25.7598481,28.3232105 22.1828625,28.3311117 L22.1828625,28.3311117 L22.1828625,28.3311117 Z"></path>
        </g>
    </g>
</svg>