<?xml version="1.0" encoding="UTF-8" standalone="no"?>
<svg width="44px" height="44px" viewBox="0 0 44 44" version="1.1" xmlns="http://www.w3.org/2000/svg" xmlns:xlink="http://www.w3.org/1999/xlink">
    <!-- Generator: Sketch 3.8.3 (29802) - http://www.bohemiancoding.com/sketch -->
    <title>icons/current-location-active</title>
    <desc>Created with Sketch.</desc>
    <defs></defs>
    <g id="Icons" stroke="none" stroke-width="1" fill="none" fill-rule="evenodd">
        <g id="icons/current-location-active" fill="#36DD69">
            <path d="M23.4666667,40.9918667 L23.4666667,33.7333333 C23.4666667,32.9237333 22.8110667,32.2666667 22,32.2666667 C21.1889333,32.2666667 20.5333333,32.9237333 20.5333333,33.7333333 L20.5333333,40.9918667 C11.176,40.2790667 3.718,32.8225333 3.00373333,23.4666667 L10.2666667,23.4666667 C11.0777333,23.4666667 11.7333333,22.8110667 11.7333333,22 C11.7333333,21.1889333 11.0777333,20.5333333 10.2666667,20.5333333 L3.00373333,20.5333333 C3.718,11.1774667 11.176,3.72093333 20.5333333,3.00813333 L20.5333333,10.2666667 C20.5333333,11.0777333 21.1889333,11.7333333 22,11.7333333 C22.8110667,11.7333333 23.4666667,11.0777333 23.4666667,10.2666667 L23.4666667,3.00813333 C32.824,3.72093333 40.282,11.1774667 40.9962667,20.5333333 L33.7333333,20.5333333 C32.9222667,20.5333333 32.2666667,21.1889333 32.2666667,22 C32.2666667,22.8110667 32.9222667,23.4666667 33.7333333,23.4666667 L40.9962667,23.4666667 C40.282,32.8225333 32.824,40.2790667 23.4666667,40.9918667 L23.4666667,40.9918667 Z M22,0 C9.85013333,0 0,9.85013333 0,22 C0,34.1498667 9.85013333,44 22,44 C34.1498667,44 44,34.1498667 44,22 C44,9.85013333 34.1498667,0 22,0 L22,0 Z" id="Shape"></path>
        </g>
    </g>
</svg>