<?xml version="1.0" encoding="UTF-8" standalone="no"?>
<svg width="44px" height="29px" viewBox="0 0 44 29" version="1.1" xmlns="http://www.w3.org/2000/svg" xmlns:xlink="http://www.w3.org/1999/xlink">
    <!-- Generator: Sketch 3.7.2 (28276) - http://www.bohemiancoding.com/sketch -->
    <title>icons/email</title>
    <desc>Created with Sketch.</desc>
    <defs></defs>
    <g id="Icons" stroke="none" stroke-width="1" fill="none" fill-rule="evenodd">
        <g id="icons/email" fill="#969696">
            <path d="M43.3954438,2.27671253 L29.5633689,13.8627066 C28.9958845,14.338036 28.9930328,15.1182937 29.5605172,15.5961855 L43.3170226,27.173211 C43.7519038,26.512106 44,25.7446604 44,24.9259664 L44,4.39711727 C44,3.62967169 43.7804206,2.90578729 43.3954438,2.27671253 L43.3954438,2.27671253 Z M14.4366311,13.7294606 L0.682977413,2.15243503 C0.248096179,2.81097765 0,3.57842324 0,4.39711727 L0,24.9259664 C0,25.6946932 0.216727697,26.4172964 0.604556207,27.0476523 L14.4337794,15.4629395 C15.0026897,14.9876101 15.0041155,14.2060712 14.4366311,13.7294606 L14.4366311,13.7294606 Z M25.9959169,16.847929 L23.0943323,19.2783868 C22.5268479,19.7549975 21.5943485,19.7549975 21.02829,19.2771056 L17.9941022,16.7223702 C17.4280437,16.2444784 16.4969701,16.2444784 15.926634,16.7198078 L1.93343919,28.4377666 C2.74759389,28.9989372 3.76279205,29.3333333 4.8663923,29.3333333 L37.7191743,29.3333333 L39.1336077,29.3333333 C40.1773227,29.3333333 41.1440423,29.0309675 41.9353835,28.524889 L28.0662368,16.8492102 C27.4973265,16.3713183 26.5676788,16.3700371 25.9959169,16.847929 L25.9959169,16.847929 Z M23.097184,16.7697751 L42.0622833,0.88787945 C41.2495544,0.330552522 40.2357821,0 39.1321819,0 L4.86496646,0 C3.81982566,0 2.8545319,0.297241028 2.06033896,0.803319502 L21.02829,16.7672126 C21.5972002,17.2451045 22.5268479,17.2463857 23.097184,16.7697751 L23.097184,16.7697751 Z" id="Shape"></path>
        </g>
    </g>
</svg>