<?xml version="1.0" encoding="UTF-8" standalone="no"?>
<svg width="44px" height="44px" viewBox="0 0 44 44" version="1.1" xmlns="http://www.w3.org/2000/svg" xmlns:xlink="http://www.w3.org/1999/xlink">
    <defs></defs>
    <g stroke="none" stroke-width="1" fill="none" fill-rule="evenodd">
        <g fill="#7EBE59">
            <path d="M39.5053631,11.8627648 L28.1882109,21.3422145 C27.7239055,21.7311203 27.7215723,22.369513 28.1858777,22.7605154 L39.4412003,32.2326272 C39.7970122,31.6917231 40,31.0638131 40,30.3939725 L40,13.5976414 C40,12.9697314 39.8203441,12.3774623 39.5053631,11.8627648 L39.5053631,11.8627648 Z M15.8117891,21.233195 L4.5587997,11.7610832 C4.20298778,12.2998908 4,12.9278008 4,13.5976414 L4,30.3939725 C4,31.0229308 4.17732266,31.6141516 4.4946369,32.1298974 L15.8094559,22.651496 C16.2749279,22.2625901 16.2760945,21.6231492 15.8117891,21.233195 L15.8117891,21.233195 Z M25.2693866,23.7846691 L22.8953628,25.7732256 C22.4310574,26.1631797 21.6681033,26.1631797 21.2049645,25.7721773 L18.7224473,23.6819393 C18.2593085,23.2909369 17.497521,23.2909369 17.0308824,23.6798428 L5.58190479,33.2672636 C6.24803137,33.7264031 7.07864804,34 7.9815937,34 L34.8611426,34 L36.0184063,34 C36.8723549,34 37.6633073,33.7526097 38.3107683,33.3385455 L26.9632846,23.7857174 C26.4978126,23.394715 25.7371917,23.3936667 25.2693866,23.7846691 L25.2693866,23.7846691 Z M22.897696,23.720725 L38.4145954,10.7264468 C37.7496354,10.2704521 36.9201854,10 36.0172397,10 L7.9804271,10 C7.1253119,10 6.3355261,10.2431972 5.68573188,10.6572614 L21.2049645,23.7186285 C21.6704365,24.1096309 22.4310574,24.1106792 22.897696,23.720725 L22.897696,23.720725 Z"></path>
        </g>
    </g>
</svg>