<?xml version="1.0" encoding="UTF-8" standalone="no"?>
<svg width="44px" height="44px" viewBox="0 0 44 44" version="1.1" xmlns="http://www.w3.org/2000/svg" xmlns:xlink="http://www.w3.org/1999/xlink">
    <defs></defs>
    <g stroke="none" stroke-width="1" fill="none" fill-rule="evenodd">
        <g fill="#7EBE59">
            <path d="M22,40 C12.6261157,40 5,32.3738843 5,23 C5,13.6261157 12.6261157,6 22,6 C31.3738843,6 39,13.6261157 39,23 C39,32.3727603 31.3738843,40 22,40 Z M22,7.68595041 C13.5556364,7.68595041 6.68595041,14.5556364 6.68595041,23 C6.68595041,31.4432397 13.5556364,38.3140496 22,38.3140496 C30.4443636,38.3140496 37.3140496,31.4443636 37.3140496,23 C37.3140496,14.5556364 30.4443636,7.68595041 22,7.68595041 Z M22.5858065,31.4977419 C20.3275484,31.4977419 18.211871,30.4569032 18.1230323,30.4119355 C17.716129,30.2090323 17.5516129,29.7165806 17.7534194,29.3107742 C17.9552258,28.903871 18.4465806,28.7371613 18.8556774,28.9389677 C18.8743226,28.9488387 20.7223871,29.8525806 22.5858065,29.8525806 C24.2923871,29.8525806 25.9232903,28.9641935 25.9397419,28.9565161 C26.337871,28.7349677 26.8369032,28.8808387 27.0573548,29.2789677 C27.2767097,29.6749032 27.134129,30.1750323 26.7381935,30.3954839 C26.6559355,30.4393548 24.7278065,31.4977419 22.5858065,31.4977419 L22.5858065,31.4977419 Z M14.8283226,23.3410323 C15.8380773,23.3410323 16.6566452,22.3692591 16.6566452,21.1705161 C16.6566452,19.9717732 15.8380773,19 14.8283226,19 C13.8185679,19 13,19.9717732 13,21.1705161 C13,22.3692591 13.8185679,23.3410323 14.8283226,23.3410323 L14.8283226,23.3410323 Z M29.9890323,23.6832258 C30.9987869,23.6832258 31.8173548,22.63485 31.8173548,21.3416129 C31.8173548,20.0483758 30.9987869,19 29.9890323,19 C28.9792776,19 28.1607097,20.0483758 28.1607097,21.3416129 C28.1607097,22.63485 28.9792776,23.6832258 29.9890323,23.6832258 L29.9890323,23.6832258 Z"></path>
        </g>
    </g>
</svg>