<?xml version="1.0" encoding="UTF-8" standalone="no"?>
<svg width="44px" height="44px" viewBox="0 0 44 44" version="1.1" xmlns="http://www.w3.org/2000/svg" xmlns:xlink="http://www.w3.org/1999/xlink">
    <!-- Generator: Sketch 3.7.2 (28276) - http://www.bohemiancoding.com/sketch -->
    <title>icons/emoji-active</title>
    <desc>Created with Sketch.</desc>
    <defs></defs>
    <g id="Icons" stroke="none" stroke-width="1" fill="none" fill-rule="evenodd">
        <g id="icons/emoji-active" fill="#7EBE59">
            <path d="M22,44 C9.86909091,44 0,34.1309091 0,22 C0,9.86909091 9.86909091,0 22,0 C34.1309091,0 44,9.86909091 44,22 C44,34.1294545 34.1309091,44 22,44 Z M22,2.18181818 C11.072,2.18181818 2.18181818,11.072 2.18181818,22 C2.18181818,32.9265455 11.072,41.8181818 22,41.8181818 C32.928,41.8181818 41.8181818,32.928 41.8181818,22 C41.8181818,11.072 32.928,2.18181818 22,2.18181818 Z M22.7581025,32.9970778 C19.8356509,32.9970778 17.0977154,31.6501101 16.9827476,31.5919165 C16.456167,31.3293359 16.2432638,30.6920455 16.504425,30.1668843 C16.7655863,29.6403036 17.4014573,29.4245617 17.9308767,29.685723 C17.9550057,29.6984972 20.3466186,30.8680455 22.7581025,30.8680455 C24.9666186,30.8680455 27.0771992,29.7183681 27.0984896,29.7084326 C27.6137154,29.421723 28.2595218,29.6104972 28.5448121,30.125723 C28.8286831,30.6381101 28.644167,31.2853359 28.1317799,31.5706262 C28.0253283,31.6274004 25.5301025,32.9970778 22.7581025,32.9970778 L22.7581025,32.9970778 Z M12.7190057,22.4413359 C14.025747,22.4413359 15.0850702,21.1837471 15.0850702,19.6324326 C15.0850702,18.0811182 14.025747,16.8235294 12.7190057,16.8235294 C11.4122643,16.8235294 10.3529412,18.0811182 10.3529412,19.6324326 C10.3529412,21.1837471 11.4122643,22.4413359 12.7190057,22.4413359 L12.7190057,22.4413359 Z M32.3387476,22.8841746 C33.645489,22.8841746 34.7048121,21.5274529 34.7048121,19.853852 C34.7048121,18.180251 33.645489,16.8235294 32.3387476,16.8235294 C31.0320063,16.8235294 29.9726831,18.180251 29.9726831,19.853852 C29.9726831,21.5274529 31.0320063,22.8841746 32.3387476,22.8841746 L32.3387476,22.8841746 Z" id="Oval"></path>
        </g>
    </g>
</svg>