<?xml version="1.0" encoding="UTF-8" standalone="no"?>
<svg width="44px" height="44px" viewBox="0 0 44 44" version="1.1" xmlns="http://www.w3.org/2000/svg" xmlns:xlink="http://www.w3.org/1999/xlink">
    <defs></defs>
    <g stroke="none" stroke-width="1" fill="none" fill-rule="evenodd">
        <g fill="#7DC15B">
            <path d="M7.75191897,21.5083535 C7.33271651,21.5083535 7,21.1766544 7,20.7655918 C7,20.3636866 7.33271651,20.0411449 7.75191897,20.0411449 L19.3573151,20.0411449 L16.0189577,16.7027875 C15.7391502,16.4148401 15.7391502,15.9427286 16.0189577,15.6720785 C16.306905,15.3658165 16.7881738,15.3658165 17.0669638,15.6720785 L21.6639461,20.2344664 C21.7422922,20.339267 21.8033411,20.4440676 21.8389529,20.5580256 L21.8562501,20.5763402 L21.8562501,20.6190745 L21.8745648,20.7411723 L21.8745648,20.7411723 L21.8745648,20.7676268 L21.8745648,20.8113785 L21.8745648,20.8113785 C21.8745648,20.8459729 21.8745648,20.8815848 21.8562501,20.9334763 L21.8562501,20.977228 L21.8389529,20.9863854 C21.8033411,21.091186 21.7422922,21.2051439 21.6639461,21.3007872 L21.6466489,21.3007872 L17.0669638,25.8794548 C16.7881738,26.1765595 16.306905,26.1765595 16.0189577,25.8794548 C15.7391502,25.6006648 15.7391502,25.1275358 16.0189577,24.8395885 L19.3573151,21.509371 L7.75191897,21.509371 L7.75191897,21.5083535 L7.75191897,21.5083535 L7.75191897,21.5083535 Z M35.9890708,9.39726895 C35.9890708,7.79168285 35.3765468,8.01451134 34.9665017,8.00637148 L34.9583618,8.00637148 L34.9492045,8.00637148 L34.9227499,8.00637148 L34.9135926,8.00637148 L19.3756298,8.00637148 L19.3573151,8.00637148 C18.9381126,8.00637148 18.6053961,8.32993066 18.6053961,8.74913311 L18.6053961,14.4124362 C18.6053961,14.7960268 18.9370952,15.1460405 19.3573151,15.1460405 C19.7592204,15.1460405 20.0827795,14.7960268 20.0827795,14.4124362 L20.0827795,9.47459756 L32.0371719,9.47459756 L24.9148001,13.6076082 C24.4864403,13.7999122 24.1811958,14.2201321 24.1811958,14.7176807 L24.1811958,32.0637085 L20.0827795,32.0637085 L20.0827795,27.449429 C20.0827795,27.0475238 19.7592204,26.7066674 19.3573151,26.7066674 C18.9381126,26.7066674 18.6053961,27.0475238 18.6053961,27.449429 L18.6053961,32.7800156 L18.6053961,32.7983303 C18.6053961,33.2002355 18.9370952,33.5492318 19.3573151,33.5492318 L24.1811958,33.5492318 L24.1811958,38.7750177 C24.1811958,38.9856364 24.2422447,39.2125348 24.3562026,39.3875417 C24.6879017,39.9634363 25.4398206,40.174055 26.0340299,39.842356 L35.5423963,34.3540598 C36.1366056,34.0223607 35.9880533,33.3457354 35.9880533,32.6762325 C35.9890708,30.7430173 35.9890708,12.924878 35.9890708,9.39726895 L35.9890708,9.39726895 L35.9890708,9.39726895 Z"></path>
        </g>
    </g>
</svg>