<?xml version="1.0" encoding="UTF-8" standalone="no"?>
<svg width="40px" height="44px" viewBox="0 0 40 44" version="1.1" xmlns="http://www.w3.org/2000/svg" xmlns:xlink="http://www.w3.org/1999/xlink">
    <!-- Generator: Sketch 3.8.3 (29802) - http://www.bohemiancoding.com/sketch -->
    <title>icons/exit-active</title>
    <desc>Created with Sketch.</desc>
    <defs></defs>
    <g id="Icons" stroke="none" stroke-width="1" fill="none" fill-rule="evenodd">
        <g id="icons/exit-active" fill="#36DD69">
            <path d="M1.03388858,18.573986 C0.457485204,18.573986 0,18.1178999 0,17.5526888 C0,17.000069 0.457485204,16.5565742 1.03388858,16.5565742 L16.9913083,16.5565742 L12.4010668,11.9663328 C12.0163315,11.5704052 12.0163315,10.9212519 12.4010668,10.549108 C12.7969944,10.1279977 13.458739,10.1279977 13.8420752,10.549108 L20.1629259,16.8223913 C20.2706517,16.9664921 20.354594,17.110593 20.4035603,17.2672852 L20.4273439,17.2924678 L20.4273439,17.3512274 L20.4525266,17.5191119 L20.4525266,17.5191119 L20.4525266,17.5554869 L20.4525266,17.6156455 L20.4525266,17.6156455 C20.4525266,17.6632127 20.4525266,17.712179 20.4273439,17.7835299 L20.4273439,17.8436885 L20.4035603,17.8562799 C20.354594,18.0003807 20.2706517,18.1570729 20.1629259,18.2885824 L20.1391422,18.2885824 L13.8420752,24.5842504 C13.458739,24.9927692 12.7969944,24.9927692 12.4010668,24.5842504 C12.0163315,24.2009141 12.0163315,23.5503618 12.4010668,23.1544342 L16.9913083,18.5753851 L1.03388858,18.5753851 L1.03388858,18.573986 L1.03388858,18.573986 L1.03388858,18.573986 Z M39.8599723,1.92124481 C39.8599723,-0.286436085 39.0177518,0.0199530878 38.4539398,0.00876078921 L38.4427475,0.00876078921 L38.4301561,0.00876078921 L38.3937812,0.00876078921 L38.3811898,0.00876078921 L17.0164909,0.00876078921 L16.9913083,0.00876078921 C16.4149049,0.00876078921 15.9574197,0.453654657 15.9574197,1.03005803 L15.9574197,8.81709976 C15.9574197,9.34453683 16.4135058,9.82580566 16.9913083,9.82580566 C17.543928,9.82580566 17.9888219,9.34453683 17.9888219,8.81709976 L17.9888219,2.02757164 L34.4261113,2.02757164 L24.6328501,7.71046124 C24.0438554,7.97487929 23.6241442,8.5526817 23.6241442,9.23681095 L23.6241442,33.0875992 L17.9888219,33.0875992 L17.9888219,26.7429649 C17.9888219,26.1903452 17.543928,25.7216677 16.9913083,25.7216677 C16.4149049,25.7216677 15.9574197,26.1903452 15.9574197,26.7429649 L15.9574197,34.0725215 L15.9574197,34.0977041 C15.9574197,34.6503239 16.4135058,35.1301937 16.9913083,35.1301937 L23.6241442,35.1301937 L23.6241442,42.3156493 C23.6241442,42.6052501 23.7080864,42.9172354 23.8647786,43.1578698 C24.3208648,43.9497249 25.3547534,44.2393257 26.1717911,43.7832395 L39.2457949,36.2368322 C40.0628327,35.780746 39.8585732,34.8503862 39.8585732,33.9298197 C39.8599723,31.2716487 39.8599723,6.77170719 39.8599723,1.92124481 L39.8599723,1.92124481 L39.8599723,1.92124481 Z" id="Shape"></path>
        </g>
    </g>
</svg>