<?xml version="1.0" encoding="UTF-8" standalone="no"?>
<svg width="44px" height="44px" viewBox="0 0 44 44" version="1.1" xmlns="http://www.w3.org/2000/svg" xmlns:xlink="http://www.w3.org/1999/xlink">
    <defs></defs>
    <g stroke="none" stroke-width="1" fill="none" fill-rule="evenodd">
        <g fill="#7EBE59">
            <path d="M14,16.2443824 L17.514549,16.2443824 L17.514549,12.8286678 C17.514549,11.3214441 17.552106,8.99883724 18.6462021,7.56079765 C19.7986105,6.03677219 21.3809482,5 24.1018575,5 C28.5355658,5 30.4025464,5.63253975 30.4025464,5.63253975 L29.5239092,10.8401209 C29.5239092,10.8401209 28.0591843,10.4161216 26.6923055,10.4161216 C25.3254266,10.4161216 24.1018575,10.9063399 24.1018575,12.2722305 L24.1018575,16.2443824 L29.7067527,16.2443824 L29.3153687,21.3303974 L24.1018575,21.3303974 L24.1018575,39 L17.514549,39 L17.514549,21.3303974 L14,21.3303974 L14,16.2443824 L14,16.2443824 Z"></path>
        </g>
    </g>
</svg>