<?xml version="1.0" encoding="UTF-8" standalone="no"?>
<svg width="44px" height="44px" viewBox="0 0 44 44" version="1.1" xmlns="http://www.w3.org/2000/svg" xmlns:xlink="http://www.w3.org/1999/xlink">
    <!-- Generator: Sketch 3.8.3 (29802) - http://www.bohemiancoding.com/sketch -->
    <title>icons/globe</title>
    <desc>Created with Sketch.</desc>
    <defs></defs>
    <g id="Icons" stroke="none" stroke-width="1" fill="none" fill-rule="evenodd">
        <g id="icons/globe" fill="#AFAFAF">
            <path d="M37.9445,32.764875 C35.311375,31.889 32.48025,31.2345 29.500625,30.811 C29.90625,28.428125 30.122125,25.931125 30.190875,23.375 L41.19775,23.375 C40.951625,26.841375 39.787,30.04925 37.9445,32.764875 L37.9445,32.764875 Z M26.72175,40.643625 C27.6375,38.43125 28.386875,36.040125 28.963,33.521125 C31.43525,33.886875 33.80575,34.42725 36.051125,35.13675 C33.570625,37.780875 30.350375,39.7265 26.72175,40.643625 L26.72175,40.643625 Z M23.335125,41.182625 C22.892375,41.21425 22.451,41.25 22,41.25 C21.549,41.25 21.109,41.21425 20.664875,41.182625 C19.49475,38.746125 18.547375,36.034625 17.846125,33.15675 C19.212875,33.037125 20.5975,32.967 22,32.967 C23.4025,32.967 24.787125,33.037125 26.15525,33.15675 C25.452625,36.034625 24.50525,38.746125 23.335125,41.182625 L23.335125,41.182625 Z M7.948875,35.13675 C10.19425,34.42725 12.56475,33.886875 15.037,33.521125 C15.613125,36.040125 16.3625,38.43125 17.27825,40.643625 C13.649625,39.7265 10.43075,37.780875 7.948875,35.13675 L7.948875,35.13675 Z M6.0555,32.764875 C4.213,30.04925 3.048375,26.841375 2.80225,23.375 L13.809125,23.375 C13.877875,25.931125 14.09375,28.428125 14.499375,30.811 C11.51975,31.2345 8.688625,31.889 6.0555,32.764875 L6.0555,32.764875 Z M6.0555,11.235125 C8.688625,12.111 11.51975,12.766875 14.499375,13.189 C14.09375,15.571875 13.877875,18.068875 13.809125,20.625 L2.80225,20.625 C3.048375,17.158625 4.213,13.95075 6.0555,11.235125 L6.0555,11.235125 Z M17.27825,3.356375 C16.3625,5.56875 15.613125,7.959875 15.037,10.478875 C12.56475,10.1145 10.19425,9.57275 7.948875,8.86325 C10.43075,6.219125 13.649625,4.2735 17.27825,3.356375 L17.27825,3.356375 Z M20.664875,2.817375 C21.109,2.787125 21.549,2.75 22,2.75 C22.451,2.75 22.892375,2.787125 23.335125,2.817375 C24.50525,5.253875 25.452625,7.96675 26.15525,10.84325 C24.787125,10.962875 23.4025,11.033 22,11.033 C20.5975,11.033 19.212875,10.962875 17.846125,10.84325 C18.547375,7.96675 19.49475,5.253875 20.664875,2.817375 L20.664875,2.817375 Z M27.43675,23.375 C27.3625,25.796375 27.1425,28.177875 26.728625,30.4645 C25.180375,30.32975 23.606,30.25 22,30.25 C20.394,30.25 18.819625,30.32975 17.27275,30.4645 C16.8575,28.177875 16.6375,25.796375 16.564625,23.375 L27.43675,23.375 L27.43675,23.375 Z M16.564625,20.625 C16.6375,18.203625 16.8575,15.822125 17.27275,13.5355 C18.819625,13.67025 20.394,13.75 22,13.75 C23.606,13.75 25.180375,13.67025 26.72725,13.5355 C27.1425,15.822125 27.3625,18.203625 27.43675,20.625 L16.564625,20.625 L16.564625,20.625 Z M36.051125,8.86325 C33.80575,9.57275 31.43525,10.1145 28.963,10.478875 C28.386875,7.959875 27.6375,5.56875 26.72175,3.356375 C30.350375,4.2735 33.570625,6.219125 36.051125,8.86325 L36.051125,8.86325 Z M37.9445,11.235125 C39.787,13.95075 40.951625,17.158625 41.19775,20.625 L30.190875,20.625 C30.122125,18.068875 29.90625,15.571875 29.500625,13.189 C32.48025,12.766875 35.311375,12.111 37.9445,11.235125 L37.9445,11.235125 Z M22,0 C9.8505,0 0,9.849125 0,22 C0,34.150875 9.8505,44 22,44 C34.1495,44 44,34.150875 44,22 C44,9.849125 34.1495,0 22,0 L22,0 Z" id="Shape"></path>
        </g>
    </g>
</svg>