<?xml version="1.0" encoding="UTF-8" standalone="no"?>
<svg width="44px" height="44px" viewBox="0 0 44 44" version="1.1" xmlns="http://www.w3.org/2000/svg" xmlns:xlink="http://www.w3.org/1999/xlink">
    <defs></defs>
    <g id="Icons" stroke="none" stroke-width="1" fill="none" fill-rule="evenodd">
        <g id="icons/google-plus-fill" fill="#FFFFFF">
            <path d="M42,19.9090909 L38.3636364,19.9090909 L38.3636364,16.2727273 L34.7272727,16.2727273 L34.7272727,19.9090909 L31.0909091,19.9090909 L31.0909091,23.5454545 L34.7272727,23.5454545 L34.7272727,27.1818182 L38.3636364,27.1818182 L38.3636364,23.5454545 L42,23.5454545 L42,19.9090909 Z M14.7272727,24.2727273 L21.9454545,24.2727273 C21.6545455,26.1454545 19.7636364,29.7636364 14.7272727,29.7636364 C10.3818182,29.7636364 6.83636364,26.1636364 6.83636364,21.7272727 C6.83636364,17.2909091 10.3818182,13.6909091 14.7272727,13.6909091 C17.2,13.6909091 18.8545455,14.7454545 19.8,15.6545455 L23.2545455,12.3272727 C21.0363636,10.2545455 18.1636364,9 14.7272727,9 C7.69090909,9 2,14.6909091 2,21.7272727 C2,28.7636364 7.69090909,34.4545455 14.7272727,34.4545455 C22.0727273,34.4545455 26.9454545,29.2909091 26.9454545,22.0181818 C26.9454545,21.1818182 26.8545455,20.5454545 26.7454545,19.9090909 L14.7272727,19.9090909 L14.7272727,24.2727273 Z" id="Shape"></path>
        </g>
    </g>
</svg>