<?xml version="1.0" encoding="UTF-8" standalone="no"?>
<svg width="44px" height="44px" viewBox="0 0 44 44" version="1.1" xmlns="http://www.w3.org/2000/svg" xmlns:xlink="http://www.w3.org/1999/xlink">
    <defs></defs>
    <g stroke="none" stroke-width="1" fill="none" fill-rule="evenodd">
        <g fill="#969696">
            <path d="M39,20.2727273 L35.9090909,20.2727273 L35.9090909,17.1818182 L32.8181818,17.1818182 L32.8181818,20.2727273 L29.7272727,20.2727273 L29.7272727,23.3636364 L32.8181818,23.3636364 L32.8181818,26.4545455 L35.9090909,26.4545455 L35.9090909,23.3636364 L39,23.3636364 L39,20.2727273 Z M15.8181818,23.9818182 L21.9536364,23.9818182 C21.7063636,25.5736364 20.0990909,28.6490909 15.8181818,28.6490909 C12.1245455,28.6490909 9.11090909,25.5890909 9.11090909,21.8181818 C9.11090909,18.0472727 12.1245455,14.9872727 15.8181818,14.9872727 C17.92,14.9872727 19.3263636,15.8836364 20.13,16.6563636 L23.0663636,13.8281818 C21.1809091,12.0663636 18.7390909,11 15.8181818,11 C9.83727273,11 5,15.8372727 5,21.8181818 C5,27.7990909 9.83727273,32.6363636 15.8181818,32.6363636 C22.0618182,32.6363636 26.2036364,28.2472727 26.2036364,22.0654545 C26.2036364,21.3545455 26.1263636,20.8136364 26.0336364,20.2727273 L15.8181818,20.2727273 L15.8181818,23.9818182 Z"></path>
        </g>
    </g>
</svg>