<?xml version="1.0" encoding="UTF-8" standalone="no"?>
<svg width="44px" height="28px" viewBox="0 0 44 28" version="1.1" xmlns="http://www.w3.org/2000/svg" xmlns:xlink="http://www.w3.org/1999/xlink">
    <!-- Generator: Sketch 3.7.2 (28276) - http://www.bohemiancoding.com/sketch -->
    <title>icons/google-plus</title>
    <desc>Created with Sketch.</desc>
    <defs></defs>
    <g id="Icons" stroke="none" stroke-width="1" fill="none" fill-rule="evenodd">
        <g id="icons/google-plus" fill="#969696">
            <path d="M44,12 L40,12 L40,8 L36,8 L36,12 L32,12 L32,16 L36,16 L36,20 L40,20 L40,16 L44,16 L44,12 Z M14,16.8 L21.94,16.8 C21.62,18.86 19.54,22.84 14,22.84 C9.22,22.84 5.32,18.88 5.32,14 C5.32,9.12 9.22,5.16 14,5.16 C16.72,5.16 18.54,6.32 19.58,7.32 L23.38,3.66 C20.94,1.38 17.78,0 14,0 C6.26,0 0,6.26 0,14 C0,21.74 6.26,28 14,28 C22.08,28 27.44,22.32 27.44,14.32 C27.44,13.4 27.34,12.7 27.22,12 L14,12 L14,16.8 Z" id="Shape"></path>
        </g>
    </g>
</svg>