<?xml version="1.0" encoding="UTF-8" standalone="no"?>
<svg width="44px" height="44px" viewBox="0 0 44 44" version="1.1" xmlns="http://www.w3.org/2000/svg" xmlns:xlink="http://www.w3.org/1999/xlink">
    <!-- Generator: Sketch 3.7.2 (28276) - http://www.bohemiancoding.com/sketch -->
    <title>icons/grid</title>
    <desc>Created with Sketch.</desc>
    <defs></defs>
    <g id="Icons" stroke="none" stroke-width="1" fill="none" fill-rule="evenodd">
        <g id="icons/grid" fill="#969696">
            <path d="M40.4767407,0 L27.9677037,0 C26.0219259,0 24.4444444,1.57748148 24.4444444,3.52325926 L24.4444444,16.0322963 C24.4444444,17.9780741 26.0219259,19.5555556 27.9677037,19.5555556 L40.4767407,19.5555556 C42.4225185,19.5555556 44,17.9780741 44,16.0322963 L44,3.52325926 C44,1.57748148 42.4225185,0 40.4767407,0 L40.4767407,0 Z M16.0322963,0 L3.52325926,0 C1.57748148,0 0,1.57748148 0,3.52325926 L0,16.0322963 C0,17.9780741 1.57748148,19.5555556 3.52325926,19.5555556 L16.0322963,19.5555556 C17.9780741,19.5555556 19.5555556,17.9780741 19.5555556,16.0322963 L19.5555556,3.52325926 C19.5555556,1.57748148 17.9780741,0 16.0322963,0 L16.0322963,0 Z M40.4767407,24.4444444 L27.9677037,24.4444444 C26.0219259,24.4444444 24.4444444,26.0219259 24.4444444,27.9677037 L24.4444444,40.4767407 C24.4444444,42.4225185 26.0219259,44 27.9677037,44 L40.4767407,44 C42.4225185,44 44,42.4225185 44,40.4767407 L44,27.9677037 C44,26.0219259 42.4225185,24.4444444 40.4767407,24.4444444 L40.4767407,24.4444444 Z M16.0322963,24.4444444 L3.52325926,24.4444444 C1.57748148,24.4444444 -1.77635684e-15,26.0219259 -1.77635684e-15,27.9677037 L-1.77635684e-15,40.4767407 C-1.77635684e-15,42.4225185 1.57748148,44 3.52325926,44 L16.0322963,44 C17.9780741,44 19.5555556,42.4225185 19.5555556,40.4767407 L19.5555556,27.9677037 C19.5555556,26.0219259 17.9780741,24.4444444 16.0322963,24.4444444 L16.0322963,24.4444444 Z" id="Shape"></path>
        </g>
    </g>
</svg>