<?xml version="1.0" encoding="UTF-8" standalone="no"?>
<svg width="44px" height="44px" viewBox="0 0 44 44" version="1.1" xmlns="http://www.w3.org/2000/svg" xmlns:xlink="http://www.w3.org/1999/xlink">
    <defs></defs>
    <g stroke="none" stroke-width="1" fill="none" fill-rule="evenodd">
        <g fill="#7EBE59">
            <path d="M28.0302741,27.7193808 L22.8709171,25.8333275 C22.0644049,25.5390178 21.5294379,24.7897638 21.5294379,23.9540141 L21.5294379,23.0115491 C22.8593126,22.0342612 23.8921124,20.5110401 24.596505,18.8002247 C25.38445,18.8002247 26.0714359,18.2812511 26.26291,17.5409836 L26.7015598,15.8414013 C26.7827912,15.5268719 26.7096829,15.1943694 26.503123,14.9393759 C26.2977235,14.683259 25.9809209,14.5338575 25.6467115,14.5338575 C25.6873272,14.0991329 25.7163384,13.6689016 25.7163384,13.2532734 C25.7163384,8.57914136 23.0519472,6 18.2233182,6 C13.3946892,6 10.730298,8.57914136 10.730298,13.2532734 C10.730298,13.6689016 10.7593092,14.0991329 10.7999249,14.5338575 C10.4657156,14.5338575 10.1489129,14.683259 9.94351343,14.9393759 C9.73695348,15.1943694 9.66384518,15.5268719 9.74507662,15.8414013 L10.1837264,17.5409836 C10.3740401,18.2812511 11.0621864,18.8002247 11.8501314,18.8002247 C12.554524,20.5121634 13.5873238,22.0342612 14.9171985,23.0115491 L14.9171985,23.9540141 C14.9171985,24.7897638 14.3822315,25.5390178 13.5757193,25.8333275 L8.41636233,27.7193808 C6.36004642,28.4708815 5,30.3771545 5,32.5035981 L5,35.8668164 C5,37.0451785 5.98638179,38 7.20369296,38 L29.2429434,38 C30.4602546,38 31.4466364,37.0451785 31.4466364,35.8668164 L31.4466364,32.5035981 C31.4466364,30.3760312 30.08659,28.4697581 28.0302741,27.7193808 L28.0302741,27.7193808 Z M38.5903614,19.8763647 L30.7550087,15.2707551 C30.7364415,15.2583986 30.6981467,15.2437954 30.6656541,15.2595219 C30.5426465,15.3179345 30.8791768,15.5942711 30.8791768,15.8312915 L30.8791768,17.3837189 C30.8791768,17.8600063 29.8939554,18.263278 29.4088877,18.3396637 C26.85706,18.7418121 24.4792996,20.8615158 24.4792996,23.4193141 C24.4792996,24.1831713 24.4967064,24.9054657 24.8053858,25.5558676 C24.8529643,25.655843 24.8784941,25.7209955 24.9922182,25.7198722 C25.1059422,25.7198722 25.1697669,25.6535964 25.2173453,25.5536209 C25.8323834,24.2303507 26.9881907,23.2058834 28.4317895,22.7599256 C28.7126182,22.67343 29.59572,22.6520869 29.8788696,22.7397058 C30.1364893,22.8363113 30.8780163,23.0306456 30.8780163,23.6136483 L30.8780163,25.0425106 C30.8780163,25.279531 30.5658555,25.5491277 30.7341206,25.6547197 C30.8524864,25.7288588 30.9163111,25.7187489 31.1008226,25.6041703 L38.7574661,20.9985607 C38.9593843,20.8794889 39,20.6660582 39,20.4380244 C39,20.2099905 38.7922796,19.9954365 38.5903614,19.8763647 L38.5903614,19.8763647 Z"></path>
        </g>
    </g>
</svg>