<?xml version="1.0" encoding="UTF-8" standalone="no"?>
<svg width="44px" height="44px" viewBox="0 0 44 44" version="1.1" xmlns="http://www.w3.org/2000/svg" xmlns:xlink="http://www.w3.org/1999/xlink">
    <defs></defs>
    <g stroke="none" stroke-width="1" fill="none" fill-rule="evenodd">
        <g fill="#969696">
            <path d="M28.2501708,27.7199524 L23.042179,25.8335605 C22.2274021,25.5384928 21.6874431,24.7896889 21.6874431,23.9545916 L21.6874431,23.0118595 C23.0305669,22.0347957 24.0717782,20.512135 24.7839822,18.8001856 C25.5794057,18.8001856 26.273224,18.2814974 26.4657901,17.5410445 L26.9089822,15.8411575 C26.9912341,15.5266042 26.9176913,15.1944211 26.7086749,14.9392525 C26.5006261,14.683156 26.1812955,14.5337663 25.8435792,14.5337663 C25.885189,14.0995158 25.914219,13.6689767 25.914219,13.2532838 C25.914219,8.57952272 23.2241006,6 18.3499545,6 C13.4758083,6 10.7856899,8.57952272 10.7856899,13.2532838 C10.7856899,13.6689767 10.8147199,14.0995158 10.8563297,14.5337663 C10.5186134,14.5337663 10.1992828,14.6822281 9.99123406,14.9392525 C9.78221767,15.1944211 9.70867486,15.5266042 9.79092668,15.8411575 L10.2341189,17.5410445 C10.4266849,18.2814974 11.1205032,18.8001856 11.9159267,18.8001856 C12.627163,20.512135 13.669342,22.0347957 15.0124658,23.0118595 L15.0124658,23.9545916 C15.0124658,24.7896889 14.4725068,25.5394207 13.65773,25.8335605 L8.44973816,27.7199524 C6.37408925,28.4706121 5,30.3774176 5,32.504132 L5,35.8667904 C5,37.0452054 5.99573087,38 7.22466985,38 L29.4733037,38 C30.7022427,38 31.6979736,37.0442776 31.6979736,35.8667904 L31.6979736,32.504132 C31.6999089,30.3774176 30.3267873,28.4706121 28.2501708,27.7199524 L28.2501708,27.7199524 Z M24.4249772,22.9626816 C24.4249772,23.1863021 24.5420651,23.3941485 24.7414048,23.5110621 L32.461464,28.0168759 C32.6675774,28.1375011 32.8707878,28.1421405 33.0817395,28.0280106 C33.2917236,27.9148085 33.3672017,27.7004668 33.3672017,27.4684954 L33.3672017,26.0701714 C33.3672017,25.7908777 33.6304076,25.5273581 33.8665187,25.3621945 C34.1016621,25.1970308 34.4674408,25.1497086 34.7461293,25.2341462 C36.1724727,25.6702526 37.3646403,26.6732972 37.9723361,27.967698 C38.0178165,28.0660539 38.135872,28.130078 38.2481216,28.130078 C38.3613388,28.1310059 38.471653,28.0679096 38.5181011,27.9695537 C38.8238843,27.333024 39,26.625975 39,25.8790269 C39,23.3774466 36.8401639,21.3026938 34.3193875,20.9092702 C33.8403916,20.8350393 33.3672017,20.4397599 33.3672017,19.9748891 L33.3672017,18.4559399 C33.3672017,18.2239685 33.2917236,18.0096268 33.0807719,17.8964247 C32.8698201,17.7832227 32.639515,17.7878621 32.432434,17.9075594 L24.7249545,22.414301 C24.5236794,22.5312147 24.4249772,22.7390611 24.4249772,22.9626816 L24.4249772,22.9626816 Z"></path>
        </g>
    </g>
</svg>