<?xml version="1.0" encoding="UTF-8" standalone="no"?>
<svg width="44px" height="44px" viewBox="0 0 44 44" version="1.1" xmlns="http://www.w3.org/2000/svg" xmlns:xlink="http://www.w3.org/1999/xlink">
    <defs></defs>
    <g stroke="none" stroke-width="1" fill="none" fill-rule="evenodd">
        <g fill="#969696">
            <path d="M34.2112676,39 L9.78873239,39 C7.10704225,39 5,36.8929577 5,34.2112676 L5,9.78873239 C5,7.10704225 7.10704225,5 9.78873239,5 L34.2112676,5 C36.8929577,5 39,7.10704225 39,9.78873239 L39,34.2112676 C39,36.8929577 36.7971831,39 34.2112676,39 Z M28.656338,26.0704225 L25.1126761,24.7295775 C24.5380282,24.5380282 24.1549296,23.9633803 24.1549296,23.3887324 L24.1549296,22.7183099 C25.1126761,22.0478873 25.7830986,20.9943662 26.2619718,19.7492958 C26.8366197,19.7492958 27.315493,19.3661972 27.4112676,18.8873239 L27.6985915,17.6422535 C27.7943662,17.4507042 27.6985915,17.1633803 27.6028169,16.971831 C27.5070423,16.7802817 27.2197183,16.684507 27.028169,16.684507 C27.028169,16.3971831 27.1239437,16.1098592 27.1239437,15.8225352 C27.1239437,12.4704225 25.3042254,10.6507042 21.9521127,10.6507042 C18.6,10.6507042 16.7802817,12.4704225 16.7802817,15.8225352 C16.7802817,16.1098592 16.7802817,16.3971831 16.8760563,16.684507 C16.684507,16.684507 16.3971831,16.7802817 16.3014085,16.971831 C16.2056338,17.1633803 16.1098592,17.3549296 16.2056338,17.6422535 L16.4929577,18.8873239 C16.5887324,19.3661972 17.0676056,19.7492958 17.6422535,19.7492958 C18.1211268,20.9943662 18.7915493,22.0478873 19.7492958,22.7183099 L19.7492958,23.3887324 C19.7492958,23.9633803 19.3661972,24.5380282 18.7915493,24.7295775 L15.2478873,26.0704225 C13.8112676,26.6450704 12.9492958,27.9859155 12.9492958,29.4225352 L12.9492958,31.8169014 C12.9492958,32.6788732 13.6197183,33.3492958 14.4816901,33.3492958 L29.6140845,33.3492958 C30.4760563,33.3492958 31.1464789,32.6788732 31.1464789,31.8169014 L31.1464789,29.4225352 C30.9549296,27.8901408 29.9971831,26.5492958 28.656338,26.0704225 Z M30.3802817,23.0056338 L30.3802817,25.3042254 C30.3802817,25.6873239 30.0929577,25.9746479 29.7098592,25.9746479 C29.3267606,25.9746479 29.0394366,25.6873239 29.0394366,25.3042254 L29.0394366,23.0056338 L26.7408451,23.0056338 C26.3577465,23.0056338 26.0704225,22.7183099 26.0704225,22.3352113 C26.0704225,21.9521127 26.3577465,21.6647887 26.7408451,21.6647887 L29.0394366,21.6647887 L29.0394366,19.2704225 C29.0394366,18.8873239 29.3267606,18.6 29.7098592,18.6 C30.0929577,18.6 30.3802817,18.8873239 30.3802817,19.2704225 L30.3802817,21.6647887 L32.7746479,21.6647887 C33.1577465,21.6647887 33.4450704,21.9521127 33.4450704,22.3352113 C33.4450704,22.7183099 33.1577465,23.0056338 32.7746479,23.0056338 L30.3802817,23.0056338 Z"></path>
        </g>
    </g>
</svg>