<?xml version="1.0" encoding="UTF-8" standalone="no"?>
<svg width="44px" height="44px" viewBox="0 0 44 44" version="1.1" xmlns="http://www.w3.org/2000/svg" xmlns:xlink="http://www.w3.org/1999/xlink">
    <!-- Generator: Sketch 3.7.2 (28276) - http://www.bohemiancoding.com/sketch -->
    <title>icons/list-active</title>
    <desc>Created with Sketch.</desc>
    <defs></defs>
    <g id="Icons" stroke="none" stroke-width="1" fill="none" fill-rule="evenodd">
        <g id="icons/list-active" fill="#7EBE59">
            <path d="M41.0269676,16.1338711 L35.2407747,16.1338711 L24.8930964,16.1338711 L19.1069036,16.1338711 C17.4641821,16.1338711 16.1338711,17.4641821 16.1338711,19.1069036 L16.1338711,24.8930964 C16.1338711,26.5358179 17.4641821,27.8661289 19.1069036,27.8661289 L24.8930964,27.8661289 L35.2407747,27.8661289 L41.0269676,27.8661289 C42.669689,27.8661289 44,26.5358179 44,24.8930964 L44,19.1069036 C44,17.4641821 42.669689,16.1338711 41.0269676,16.1338711 Z M41.0269676,32.2677423 L35.2407747,32.2677423 L24.8930964,32.2677423 L19.1069036,32.2677423 C17.4641821,32.2677423 16.1338711,33.5980533 16.1338711,35.2407747 L16.1338711,41.0269676 C16.1338711,42.669689 17.4641821,44 19.1069036,44 L24.8930964,44 L35.2407747,44 L41.0269676,44 C42.669689,44 44,42.669689 44,41.0269676 L44,35.2407747 C44,33.5980533 42.669689,32.2677423 41.0269676,32.2677423 Z M41.0269676,0 L24.8930964,0 L19.1069036,0 C17.4641821,0 16.1338711,1.33031101 16.1338711,2.97303243 L16.1338711,8.75922531 C16.1338711,10.4019467 17.4641821,11.7322577 19.1069036,11.7322577 L24.8930964,11.7322577 L41.0269676,11.7322577 C42.669689,11.7322577 44,10.4019467 44,8.75922531 L44,2.97303243 C44,1.33031101 42.669689,0 41.0269676,0 Z M8.75922531,32.2677423 L2.97303243,32.2677423 C1.33031101,32.2677423 0,33.5980533 0,35.2407747 L0,41.0269676 C0,42.669689 1.33031101,44 2.97303243,44 L8.75922531,44 C10.4019467,44 11.7322577,42.669689 11.7322577,41.0269676 L11.7322577,35.2407747 C11.7322577,33.5980533 10.4019467,32.2677423 8.75922531,32.2677423 Z M8.75922531,16.1338711 L2.97303243,16.1338711 C1.33031101,16.1338711 0,17.4641821 0,19.1069036 L0,24.8930964 C0,26.5358179 1.33031101,27.8661289 2.97303243,27.8661289 L8.75922531,27.8661289 C10.4019467,27.8661289 11.7322577,26.5358179 11.7322577,24.8930964 L11.7322577,19.1069036 C11.7322577,17.4641821 10.4019467,16.1338711 8.75922531,16.1338711 Z M8.75922531,0 L2.97303243,0 C1.33031101,0 0,1.33031101 0,2.97303243 L0,8.75922531 C0,10.4019467 1.33031101,11.7322577 2.97303243,11.7322577 L8.75922531,11.7322577 C10.4019467,11.7322577 11.7322577,10.4019467 11.7322577,8.75922531 L11.7322577,2.97303243 C11.7322577,1.33031101 10.4019467,0 8.75922531,0 Z" id="Shape"></path>
        </g>
    </g>
</svg>