<?xml version="1.0" encoding="UTF-8" standalone="no"?>
<svg width="44px" height="41px" viewBox="0 0 44 41" version="1.1" xmlns="http://www.w3.org/2000/svg" xmlns:xlink="http://www.w3.org/1999/xlink">
    <!-- Generator: Sketch 3.8.3 (29802) - http://www.bohemiancoding.com/sketch -->
    <title>icons/listeners-active</title>
    <desc>Created with Sketch.</desc>
    <defs></defs>
    <g id="Icons" stroke="none" stroke-width="1" fill="none" fill-rule="evenodd">
        <g id="icons/listeners-active" fill="#36DD69">
            <path d="M29.8038841,28.1074339 L23.1270692,25.6666591 C22.0833476,25.2857877 21.3910372,24.3161649 21.3910372,23.2346065 L21.3910372,22.0149459 C23.1120516,20.7502204 24.448616,18.7789931 25.3601829,16.5649966 C26.3798764,16.5649966 27.268917,15.8933838 27.5167071,14.9353905 L28.0843715,12.7359311 C28.1894945,12.3288931 28.0948838,11.8985956 27.8275709,11.568604 C27.5617598,11.2371587 27.1517799,11.0438157 26.7192737,11.0438157 C26.7718352,10.4812309 26.8093792,9.9244609 26.8093792,9.38658914 C26.8093792,3.33771235 23.3613434,1.0658141e-14 17.1125294,1.0658141e-14 C10.8637155,1.0658141e-14 7.41567972,3.33771235 7.41567972,9.38658914 C7.41567972,9.9244609 7.45322366,10.4812309 7.50578518,11.0438157 C7.07327895,11.0438157 6.66329909,11.2371587 6.39748797,11.568604 C6.13017509,11.8985956 6.03556435,12.3288931 6.1406874,12.7359311 L6.70835182,14.9353905 C6.95464009,15.8933838 7.84518243,16.5649966 8.86487593,16.5649966 C9.77644288,18.7804468 11.1130073,20.7502204 12.8340216,22.0149459 L12.8340216,23.2346065 C12.8340216,24.3161649 12.1417113,25.2857877 11.0979897,25.6666591 L4.42117478,28.1074339 C1.76006007,29.0799642 3.55271368e-15,31.5469058 3.55271368e-15,34.2987741 L3.55271368e-15,38.6511742 C3.55271368e-15,40.1761134 1.27649408,41.4117647 2.85183795,41.4117647 L31.3732209,41.4117647 C32.9485648,41.4117647 34.2250589,40.1761134 34.2250589,38.6511742 L34.2250589,34.2987741 C34.2250589,31.5454521 32.4649988,29.0785105 29.8038841,28.1074339 L29.8038841,28.1074339 Z M43.4698795,17.9576484 L33.3300113,11.9974478 C33.3059831,11.981457 33.2564251,11.9625588 33.2143759,11.9829107 C33.0551896,12.0585035 33.4906993,12.4161155 33.4906993,12.7228478 L33.4906993,14.7318715 C33.4906993,15.3482435 32.215707,15.8701245 31.5879723,15.9689766 C28.285607,16.4894038 25.2085054,19.2325498 25.2085054,22.5426417 C25.2085054,23.5311628 25.2310318,24.4658967 25.6304993,25.3075934 C25.6920714,25.4369733 25.7251101,25.5212883 25.8722823,25.5198346 C26.0194546,25.5198346 26.1020513,25.4340659 26.1636233,25.3046859 C26.9595549,23.5922185 28.4553056,22.2664373 30.3234923,21.6893155 C30.6869176,21.57738 31.8297553,21.5497595 32.1961842,21.6631487 C32.5295744,21.7881676 33.4891976,22.039659 33.4891976,22.7941331 L33.4891976,24.643249 C33.4891976,24.9499813 33.0852248,25.2988711 33.3029796,25.4355196 C33.4561589,25.5314643 33.5387556,25.5183809 33.7775351,25.3701028 L43.6861326,19.4099021 C43.9474385,19.2558092 44,18.9796047 44,18.6845021 C44,18.3893995 43.7311854,18.1117414 43.4698795,17.9576484 L43.4698795,17.9576484 Z" id="Shape"></path>
        </g>
    </g>
</svg>