<?xml version="1.0" encoding="UTF-8" standalone="no"?>
<svg width="44px" height="44px" viewBox="0 0 44 44" version="1.1" xmlns="http://www.w3.org/2000/svg" xmlns:xlink="http://www.w3.org/1999/xlink">
    <defs></defs>
    <g stroke="none" stroke-width="1" fill="none" fill-rule="evenodd">
        <g fill="#7EBE59">
            <path d="M35.8377946,17.7337245 L31.6296543,17.7337245 L24.1040701,17.7337245 L19.8959299,17.7337245 C18.7012234,17.7337245 17.7337245,18.7012234 17.7337245,19.8959299 L17.7337245,24.1040701 C17.7337245,25.2987766 18.7012234,26.2662755 19.8959299,26.2662755 L24.1040701,26.2662755 L31.6296543,26.2662755 L35.8377946,26.2662755 C37.0325011,26.2662755 38,25.2987766 38,24.1040701 L38,19.8959299 C38,18.7012234 37.0325011,17.7337245 35.8377946,17.7337245 Z M35.8377946,29.4674489 L31.6296543,29.4674489 L24.1040701,29.4674489 L19.8959299,29.4674489 C18.7012234,29.4674489 17.7337245,30.4349478 17.7337245,31.6296543 L17.7337245,35.8377946 C17.7337245,37.0325011 18.7012234,38 19.8959299,38 L24.1040701,38 L31.6296543,38 L35.8377946,38 C37.0325011,38 38,37.0325011 38,35.8377946 L38,31.6296543 C38,30.4349478 37.0325011,29.4674489 35.8377946,29.4674489 Z M35.8377946,6 L24.1040701,6 L19.8959299,6 C18.7012234,6 17.7337245,6.96749892 17.7337245,8.16220541 L17.7337245,12.3703457 C17.7337245,13.5650522 18.7012234,14.5325511 19.8959299,14.5325511 L24.1040701,14.5325511 L35.8377946,14.5325511 C37.0325011,14.5325511 38,13.5650522 38,12.3703457 L38,8.16220541 C38,6.96749892 37.0325011,6 35.8377946,6 Z M12.3703457,29.4674489 L8.16220541,29.4674489 C6.96749892,29.4674489 6,30.4349478 6,31.6296543 L6,35.8377946 C6,37.0325011 6.96749892,38 8.16220541,38 L12.3703457,38 C13.5650522,38 14.5325511,37.0325011 14.5325511,35.8377946 L14.5325511,31.6296543 C14.5325511,30.4349478 13.5650522,29.4674489 12.3703457,29.4674489 Z M12.3703457,17.7337245 L8.16220541,17.7337245 C6.96749892,17.7337245 6,18.7012234 6,19.8959299 L6,24.1040701 C6,25.2987766 6.96749892,26.2662755 8.16220541,26.2662755 L12.3703457,26.2662755 C13.5650522,26.2662755 14.5325511,25.2987766 14.5325511,24.1040701 L14.5325511,19.8959299 C14.5325511,18.7012234 13.5650522,17.7337245 12.3703457,17.7337245 Z M12.3703457,6 L8.16220541,6 C6.96749892,6 6,6.96749892 6,8.16220541 L6,12.3703457 C6,13.5650522 6.96749892,14.5325511 8.16220541,14.5325511 L12.3703457,14.5325511 C13.5650522,14.5325511 14.5325511,13.5650522 14.5325511,12.3703457 L14.5325511,8.16220541 C14.5325511,6.96749892 13.5650522,6 12.3703457,6 Z"></path>
        </g>
    </g>
</svg>