<?xml version="1.0" encoding="UTF-8" standalone="no"?>
<svg width="44px" height="44px" viewBox="0 0 44 44" version="1.1" xmlns="http://www.w3.org/2000/svg" xmlns:xlink="http://www.w3.org/1999/xlink">
    <defs></defs>
    <g stroke="none" stroke-width="1" fill="none" fill-rule="evenodd">
        <g fill="#969696">
            <path d="M33.7959715,39 L10.2040285,39 C7.33036398,39 5,36.669636 5,33.7959715 L5,10.2040285 C5,7.33036398 7.33036398,5 10.2040285,5 L33.7959715,5 C36.669636,5 39,7.33036398 39,10.2040285 L39,33.7959715 C39,36.669636 36.6706768,39 33.7959715,39 Z M28.6408608,25.1343864 L25.109407,23.8000735 C24.5567392,23.5919123 24.1903756,23.0621422 24.1903756,22.4709646 L24.1903756,21.8038081 C25.1010806,21.1127131 25.8077877,20.0354792 26.2896807,18.8250222 C26.8288181,18.8250222 27.2992623,18.4586586 27.4304038,17.9340925 L27.7311966,16.7319619 C27.7874001,16.5092295 27.7374415,16.2740074 27.5958919,16.093948 C27.4553831,15.9128478 27.2388955,15.8077265 27.0099183,15.8077265 C27.03802,15.5006888 27.0577953,15.1967735 27.0577953,14.9022255 C27.0577953,11.5966266 25.2332629,9.77209416 21.927664,9.77209416 C18.6220651,9.77209416 16.7975327,11.5966266 16.7975327,14.9022255 C16.7975327,15.1957327 16.817308,15.5006888 16.8454097,15.8077265 C16.6164325,15.8077265 16.3999449,15.9128478 16.2594361,16.093948 C16.1178866,16.2740074 16.0679279,16.5092295 16.1241314,16.7319619 L16.4249242,17.9340925 C16.5550249,18.4576178 17.0265099,18.8250222 17.5656473,18.8250222 C18.0485811,20.0354792 18.7542474,21.1127131 19.6649524,21.8038081 L19.6649524,22.4709646 C19.6649524,23.0621422 19.2985888,23.5919123 18.745921,23.8000735 L15.2144672,25.1343864 C13.8062571,25.6651973 12.8757768,27.0140815 12.8757768,28.5180457 L12.8757768,30.8962868 C12.8757768,31.7299721 13.5512597,32.405455 14.3849451,32.405455 L29.4735054,32.405455 C30.3071907,32.405455 30.9826736,31.7299721 30.9826736,30.8962868 L30.9826736,28.5180457 C30.980592,27.0130407 30.0490709,25.6651973 28.6408608,25.1343864 Z M35.871338,19.5879328 L30.5080662,16.3312517 C30.3644351,16.243824 30.1999878,16.2407016 30.0532342,16.3229253 C29.9075214,16.4051489 29.8065632,16.5591882 29.8065632,16.7267579 L29.8065632,17.8248079 C29.8065632,18.1609882 29.5245049,18.4472097 29.1924878,18.5013316 C27.4460159,18.7854716 26.0138672,20.2852726 26.0138672,22.0931521 C26.0138672,22.6333303 26.1241926,23.1433251 26.3354762,23.6033612 C26.3677411,23.674136 26.4343527,23.7199314 26.5124131,23.7199314 C26.5904736,23.7199314 26.6591667,23.6730952 26.6914317,23.6023204 C27.1119172,22.6666361 27.91646,21.9422353 28.9041847,21.6268712 C29.0967337,21.5654636 29.3444455,21.5998102 29.507852,21.7184621 C29.6712585,21.8381547 29.8055224,22.0286222 29.8055224,22.2305385 L29.8055224,23.2411608 C29.8055224,23.4087305 29.9054397,23.5638106 30.0511525,23.6460342 C30.1968653,23.7282579 30.4050265,23.7251355 30.5476169,23.6377078 L35.8879909,20.3810267 C36.0264181,20.2967215 36.1034377,20.1458046 36.1034377,19.9844798 C36.1034377,19.8231549 36.0097652,19.6711972 35.871338,19.5879328 Z"></path>
        </g>
    </g>
</svg>