<?xml version="1.0" encoding="UTF-8" standalone="no"?>
<svg width="44px" height="44px" viewBox="0 0 44 44" version="1.1" xmlns="http://www.w3.org/2000/svg" xmlns:xlink="http://www.w3.org/1999/xlink">
    <!-- Generator: Sketch 3.8.3 (29802) - http://www.bohemiancoding.com/sketch -->
    <title>icons/listen-on</title>
    <desc>Created with Sketch.</desc>
    <defs></defs>
    <g id="Icons" stroke="none" stroke-width="1" fill="none" fill-rule="evenodd">
        <g id="icons/listen-on" fill="#FF4700">
            <path d="M37.8650307,44 L6.13496933,44 C2.74723926,44 0,41.2527607 0,37.8650307 L0,6.13496933 C0,2.74723926 2.74723926,0 6.13496933,0 L37.8650307,0 C41.2527607,0 44,2.74723926 44,6.13496933 L44,37.8650307 C44,41.2527607 41.2527607,44 37.8650307,44 Z M33.2417178,22.3447853 L35.4355828,24.5386503 C35.7570552,24.8601227 35.7570552,25.3815951 35.4355828,25.7042945 C35.1128834,26.0257669 34.591411,26.0257669 34.2699387,25.7042945 L32.0760736,23.5104294 L29.8834356,25.7030675 C29.5607362,26.0245399 29.0392638,26.0245399 28.7177914,25.7030675 C28.396319,25.3803681 28.396319,24.8588957 28.7177914,24.5374233 L30.9104294,22.3447853 L28.7165644,20.1509202 C28.395092,19.8282209 28.395092,19.3067485 28.7165644,18.9852761 C29.0392638,18.6638037 29.5607362,18.6638037 29.8822086,18.9852761 L32.0760736,21.1791411 L34.2711656,18.9840491 C34.593865,18.6625767 35.1153374,18.6625767 35.4368098,18.9840491 C35.7582822,19.3067485 35.7582822,19.8282209 35.4368098,20.1496933 L33.2417178,22.3447853 Z M30.593865,27.2147239 L26.0233129,25.4883436 C25.3079755,25.2184049 24.8343558,24.5325153 24.8343558,23.7680982 L24.8343558,22.9055215 C26.0122699,22.0110429 26.9276074,20.6171779 27.5521472,19.0503067 C28.2503067,19.0503067 28.8588957,18.5754601 29.0282209,17.8981595 L29.4171779,16.3423313 C29.4895706,16.0539877 29.4245399,15.7496933 29.2417178,15.5165644 C29.0601227,15.2822086 28.7791411,15.1460123 28.4822086,15.1460123 C28.5190184,14.7484663 28.5447853,14.3546012 28.5447853,13.9742331 C28.5447853,9.69570552 26.1840491,7.33496933 21.9055215,7.33496933 C17.6269939,7.33496933 15.2662577,9.69570552 15.2662577,13.9742331 C15.2662577,14.3546012 15.2920245,14.7484663 15.3288344,15.1460123 C15.0319018,15.1460123 14.7521472,15.2822086 14.5693252,15.5165644 C14.3865031,15.7496933 14.3214724,16.0539877 14.393865,16.3423313 L14.7828221,17.8981595 C14.9521472,18.5766871 15.5607362,19.0503067 16.2588957,19.0503067 C16.8834356,20.6171779 17.797546,22.0110429 18.9766871,22.9055215 L18.9766871,23.7680982 C18.9766871,24.5325153 18.5030675,25.2184049 17.7877301,25.4883436 L13.2171779,27.2147239 C11.395092,27.9018405 10.190184,29.6466258 10.190184,31.593865 L10.190184,34.6711656 C10.190184,35.7496933 11.0650307,36.6233129 12.1423313,36.6233129 L31.6687117,36.6233129 C32.7472393,36.6233129 33.6208589,35.7484663 33.6208589,34.6711656 L33.6208589,31.593865 C33.6208589,29.6466258 32.4159509,27.9018405 30.593865,27.2147239 Z" id="Shape"></path>
        </g>
    </g>
</svg>