<?xml version="1.0" encoding="UTF-8" standalone="no"?>
<svg width="44px" height="44px" viewBox="0 0 44 44" version="1.1" xmlns="http://www.w3.org/2000/svg" xmlns:xlink="http://www.w3.org/1999/xlink">
    <!-- Generator: Sketch 3.8.3 (29802) - http://www.bohemiancoding.com/sketch -->
    <title>icons/listen-active</title>
    <desc>Created with Sketch.</desc>
    <defs></defs>
    <g id="Icons" stroke="none" stroke-width="1" fill="none" fill-rule="evenodd">
        <g id="icons/listen-active" fill="#36DD69">
            <path d="M37.8028169,44 L6.1971831,44 C2.72676056,44 0,41.2732394 0,37.8028169 L0,6.1971831 C0,2.72676056 2.72676056,0 6.1971831,0 L37.8028169,0 C41.2732394,0 44,2.72676056 44,6.1971831 L44,37.8028169 C44,41.2732394 41.1492958,44 37.8028169,44 Z M30.6140845,27.2676056 L26.028169,25.5323944 C25.284507,25.284507 24.7887324,24.5408451 24.7887324,23.7971831 L24.7887324,22.9295775 C26.028169,22.0619718 26.8957746,20.6985915 27.515493,19.0873239 C28.2591549,19.0873239 28.8788732,18.5915493 29.0028169,17.971831 L29.3746479,16.3605634 C29.4985915,16.1126761 29.3746479,15.7408451 29.2507042,15.4929577 C29.1267606,15.2450704 28.7549296,15.1211268 28.5070423,15.1211268 C28.5070423,14.7492958 28.6309859,14.3774648 28.6309859,14.0056338 C28.6309859,9.66760563 26.2760563,7.31267606 21.9380282,7.31267606 C17.6,7.31267606 15.2450704,9.66760563 15.2450704,14.0056338 C15.2450704,14.3774648 15.2450704,14.7492958 15.3690141,15.1211268 C15.1211268,15.1211268 14.7492958,15.2450704 14.6253521,15.4929577 C14.5014085,15.7408451 14.3774648,15.9887324 14.5014085,16.3605634 L14.8732394,17.971831 C14.9971831,18.5915493 15.6169014,19.0873239 16.3605634,19.0873239 C16.9802817,20.6985915 17.8478873,22.0619718 19.0873239,22.9295775 L19.0873239,23.7971831 C19.0873239,24.5408451 18.5915493,25.284507 17.8478873,25.5323944 L13.2619718,27.2676056 C11.4028169,28.0112676 10.2873239,29.7464789 10.2873239,31.6056338 L10.2873239,34.7042254 C10.2873239,35.8197183 11.1549296,36.6873239 12.2704225,36.6873239 L31.8535211,36.6873239 C32.9690141,36.6873239 33.8366197,35.8197183 33.8366197,34.7042254 L33.8366197,31.6056338 C33.5887324,29.6225352 32.3492958,27.8873239 30.6140845,27.2676056 Z M32.8450704,23.3014085 L32.8450704,26.2760563 C32.8450704,26.771831 32.4732394,27.143662 31.9774648,27.143662 C31.4816901,27.143662 31.1098592,26.771831 31.1098592,26.2760563 L31.1098592,23.3014085 L28.1352113,23.3014085 C27.6394366,23.3014085 27.2676056,22.9295775 27.2676056,22.4338028 C27.2676056,21.9380282 27.6394366,21.5661972 28.1352113,21.5661972 L31.1098592,21.5661972 L31.1098592,18.4676056 C31.1098592,17.971831 31.4816901,17.6 31.9774648,17.6 C32.4732394,17.6 32.8450704,17.971831 32.8450704,18.4676056 L32.8450704,21.5661972 L35.943662,21.5661972 C36.4394366,21.5661972 36.8112676,21.9380282 36.8112676,22.4338028 C36.8112676,22.9295775 36.4394366,23.3014085 35.943662,23.3014085 L32.8450704,23.3014085 Z" id="Shape"></path>
        </g>
    </g>
</svg>