<?xml version="1.0" encoding="UTF-8" standalone="no"?>
<svg width="44px" height="44px" viewBox="0 0 44 44" version="1.1" xmlns="http://www.w3.org/2000/svg" xmlns:xlink="http://www.w3.org/1999/xlink">
    <defs></defs>
    <g stroke="none" stroke-width="1" fill="none" fill-rule="evenodd">
        <g fill="#EC6857">
            <path d="M34.2593419,39 L9.74065811,39 C7.1228667,39 5,36.8771333 5,34.2593419 L5,9.74065811 C5,7.1228667 7.1228667,5 9.74065811,5 L34.2593419,5 C36.8771333,5 39,7.1228667 39,9.74065811 L39,34.2593419 C39,36.8771333 36.8771333,39 34.2593419,39 Z M30.6867819,22.266425 L32.3820413,23.9616843 C32.6304518,24.2100948 32.6304518,24.6130508 32.3820413,24.8624094 C32.1326827,25.1108199 31.7297267,25.1108199 31.4813162,24.8624094 L29.7860569,23.16715 L28.0917457,24.8614612 C27.8423871,25.1098717 27.4394311,25.1098717 27.1910206,24.8614612 C26.9426102,24.6121026 26.9426102,24.2091467 27.1910206,23.9607362 L28.8853318,22.266425 L27.1900725,20.5711656 C26.941662,20.321807 26.941662,19.9188511 27.1900725,19.6704406 C27.4394311,19.4220301 27.8423871,19.4220301 28.0907975,19.6704406 L29.7860569,21.3656999 L31.4822644,19.6694925 C31.731623,19.421082 32.1345789,19.421082 32.3829894,19.6694925 C32.6313999,19.9188511 32.6313999,20.321807 32.3829894,20.5702175 L30.6867819,22.266425 Z M28.6407139,26.0295594 L25.1089236,24.6955382 C24.5561629,24.4869492 24.190184,23.9569437 24.190184,23.3662577 L24.190184,22.6997211 C25.1003904,22.0085332 25.8076966,20.9314557 26.2902956,19.7206916 C26.8297825,19.7206916 27.3000558,19.3537646 27.4308979,18.830396 L27.7314557,17.6281651 C27.7873954,17.4053542 27.7371445,17.1702175 27.5958728,16.9900725 C27.4555494,16.8089794 27.2384272,16.7037368 27.0089794,16.7037368 C27.0374233,16.3965421 27.0573341,16.0921919 27.0573341,15.7982711 C27.0573341,12.4921361 25.2331288,10.6679308 21.9269939,10.6679308 C18.6208589,10.6679308 16.7966537,12.4921361 16.7966537,15.7982711 C16.7966537,16.0921919 16.8165644,16.3965421 16.8450084,16.7037368 C16.6155605,16.7037368 16.3993865,16.8089794 16.2581149,16.9900725 C16.1168433,17.1702175 16.0665923,17.4053542 16.1225321,17.6281651 L16.4230898,18.830396 C16.553932,19.3547128 17.0242052,19.7206916 17.5636921,19.7206916 C18.0462911,20.9314557 18.7526492,22.0085332 19.6638037,22.6997211 L19.6638037,23.3662577 C19.6638037,23.9569437 19.2978249,24.4869492 18.7450641,24.6955382 L15.2132738,26.0295594 C13.8052984,26.5605131 12.8742331,27.9087563 12.8742331,29.4134412 L12.8742331,31.7913553 C12.8742331,32.624763 13.550251,33.2998327 14.3827105,33.2998327 L29.4712772,33.2998327 C30.3046849,33.2998327 30.9797546,32.6238148 30.9797546,31.7913553 L30.9797546,29.4134412 C30.9797546,27.9087563 30.0486893,26.5605131 28.6407139,26.0295594 Z"></path>
        </g>
    </g>
</svg>