<?xml version="1.0" encoding="UTF-8" standalone="no"?>
<svg width="44px" height="44px" viewBox="0 0 44 44" version="1.1" xmlns="http://www.w3.org/2000/svg" xmlns:xlink="http://www.w3.org/1999/xlink">
    <!-- Generator: Sketch 3.7.2 (28276) - http://www.bohemiancoding.com/sketch -->
    <title>icons/listened</title>
    <desc>Created with Sketch.</desc>
    <defs></defs>
    <g id="Icons" stroke="none" stroke-width="1" fill="none" fill-rule="evenodd">
        <g id="icons/listened" fill="#969696">
            <path d="M37.2653748,44 L6.73462516,44 C3.01576515,44 0,40.9842349 0,37.2653748 L0,6.73462516 C0,3.01576515 3.01576515,0 6.73462516,0 L37.2653748,0 C40.9842349,0 44,3.01576515 44,6.73462516 L44,37.2653748 C44,40.9842349 40.9855818,44 37.2653748,44 Z M30.5940552,26.0562647 L26.0239385,24.3295068 C25.3087213,24.0601218 24.8346037,23.374537 24.8346037,22.6094836 L24.8346037,21.7461046 C26.0131631,20.8517464 26.9277252,19.457679 27.5513515,17.8912052 C28.2490587,17.8912052 28.8578688,17.4170876 29.0275814,16.7382374 L29.4168427,15.182539 C29.4895766,14.894297 29.4249242,14.5898919 29.2417424,14.3568739 C29.0599076,14.122509 28.7797471,13.9864695 28.4834236,13.9864695 C28.5197906,13.5891266 28.5453822,13.1958245 28.5453822,12.8146447 C28.5453822,8.53681085 26.1842226,6.17565127 21.9063887,6.17565127 C17.6285548,6.17565127 15.2673952,8.53681085 15.2673952,12.8146447 C15.2673952,13.1944776 15.2929868,13.5891266 15.3293538,13.9864695 C15.0330303,13.9864695 14.7528699,14.122509 14.571035,14.3568739 C14.3878532,14.5898919 14.3232008,14.894297 14.3959347,15.182539 L14.7851961,16.7382374 C14.9535617,17.4157407 15.5637187,17.8912052 16.2614259,17.8912052 C16.8863991,19.457679 17.7996143,20.8517464 18.9781737,21.7461046 L18.9781737,22.6094836 C18.9781737,23.374537 18.5040561,24.0601218 17.7888389,24.3295068 L13.2187223,26.0562647 C11.3963327,26.7431965 10.1921817,28.4888113 10.1921817,30.435118 L10.1921817,33.5128417 C10.1921817,34.5917287 11.0663361,35.465883 12.145223,35.465883 L31.6715952,35.465883 C32.7504821,35.465883 33.6246365,34.5917287 33.6246365,33.5128417 L33.6246365,30.435118 C33.6219426,28.4874644 32.4164447,26.7431965 30.5940552,26.0562647 Z M39.9511434,18.8785012 L33.0104387,14.6639728 C32.824563,14.5508311 32.6117489,14.5467903 32.4218324,14.6531974 C32.2332629,14.7596045 32.1026112,14.9589494 32.1026112,15.1758043 L32.1026112,16.5968102 C32.1026112,17.031867 31.7375945,17.4022714 31.3079254,17.4723115 C29.0477852,17.840022 27.1944164,19.780941 27.1944164,22.1205498 C27.1944164,22.8196039 27.3371904,23.4795971 27.6106162,24.074938 C27.6523709,24.1665289 27.7385741,24.2257936 27.8395935,24.2257936 C27.9406129,24.2257936 28.0295099,24.165182 28.0712646,24.0735911 C28.6154223,22.8627055 29.6565953,21.9252457 30.9348272,21.5171274 C31.1840083,21.4376588 31.5045765,21.4821073 31.7160437,21.6356568 C31.9275109,21.7905532 32.1012643,22.0370404 32.1012643,22.2983439 L32.1012643,23.6062081 C32.1012643,23.823063 32.2305691,24.0237549 32.4191386,24.1301619 C32.6077081,24.236569 32.8770931,24.2325282 33.0616218,24.1193865 L39.9726942,19.9048581 C40.1518352,19.7957572 40.2515076,19.6004531 40.2515076,19.3916797 C40.2515076,19.1829063 40.1302844,18.9862552 39.9511434,18.8785012 Z" id="Shape"></path>
        </g>
    </g>
</svg>