<?xml version="1.0" encoding="UTF-8" standalone="no"?>
<svg width="44px" height="41px" viewBox="0 0 44 41" version="1.1" xmlns="http://www.w3.org/2000/svg" xmlns:xlink="http://www.w3.org/1999/xlink">
    <!-- Generator: Sketch 3.7.2 (28276) - http://www.bohemiancoding.com/sketch -->
    <title>icons/listening</title>
    <desc>Created with Sketch.</desc>
    <defs></defs>
    <g id="Icons" stroke="none" stroke-width="1" fill="none" fill-rule="evenodd">
        <g id="icons/listening" fill="#969696">
            <path d="M30.0884563,28.1081738 L23.3487022,25.6669606 C22.2942851,25.2851083 21.5955146,24.3160679 21.5955146,23.2353538 L21.5955146,22.0153476 C23.3336749,20.7509121 24.6811248,18.78041 25.6028005,16.564946 C26.6321721,16.564946 27.5300546,15.8937025 27.7792577,14.9354693 L28.3528005,12.7356156 C28.4592441,12.3285466 28.364071,11.8986626 28.0935792,11.5684444 C27.8243397,11.2370254 27.4110883,11.0436976 26.9740437,11.0436976 C27.0278916,10.4817263 27.0654599,9.9245581 27.0654599,9.38660262 C27.0654599,3.33820587 23.5841302,0 17.2764117,0 C10.9686931,0 7.48736339,3.33820587 7.48736339,9.38660262 C7.48736339,9.9245581 7.52493169,10.4817263 7.5787796,11.0436976 C7.14173497,11.0436976 6.72848361,11.2358246 6.45924408,11.5684444 C6.18875228,11.8986626 6.09357923,12.3285466 6.20002277,12.7356156 L6.77356557,14.9354693 C7.02276867,15.8937025 7.92065118,16.564946 8.95002277,16.564946 C9.87044627,18.78041 11.2191485,20.7509121 12.9573087,22.0153476 L12.9573087,23.2353538 C12.9573087,24.3160679 12.2585383,25.2863091 11.2041211,25.6669606 L4.46436703,28.1081738 C1.77823315,29.0796157 0,31.5472463 0,34.2994649 L0,38.6511405 C0,40.1761482 1.2885929,41.4117647 2.87898452,41.4117647 L31.6713342,41.4117647 C33.2617259,41.4117647 34.5503188,40.1749474 34.5503188,38.6511405 L34.5503188,34.2994649 C34.5528233,31.5472463 32.7758424,29.0796157 30.0884563,28.1081738 L30.0884563,28.1081738 Z M25.1382058,21.9517056 C25.1382058,22.2410968 25.2897313,22.5100746 25.5477004,22.6613745 L35.5383652,28.4924277 C35.8051002,28.6485308 36.0680783,28.6545348 36.3410747,28.5068372 C36.6128188,28.3603404 36.7104964,28.0829571 36.7104964,27.7827587 L36.7104964,25.9731629 C36.7104964,25.6117241 37.0511157,25.2706988 37.3566712,25.0569575 C37.6609745,24.8432163 38.1343352,24.7819758 38.4949909,24.891248 C40.340847,25.455621 41.8836521,26.7536787 42.670082,28.4287856 C42.728939,28.5560697 42.8817168,28.6389245 43.0269809,28.6389245 C43.1734973,28.6401253 43.3162568,28.5584713 43.3763661,28.4311872 C43.7720856,27.6074429 44,26.6924382 44,25.7257995 C44,22.4884603 41.204918,19.8034861 37.9427368,19.2943496 C37.3228597,19.1982861 36.7104964,18.6867481 36.7104964,18.0851506 L36.7104964,16.1194517 C36.7104964,15.8192533 36.6128188,15.54187 36.3398224,15.3953732 C36.066826,15.2488764 35.7687842,15.2548804 35.5007969,15.4097827 L25.5264117,21.2420366 C25.2659381,21.3933366 25.1382058,21.6623144 25.1382058,21.9517056 L25.1382058,21.9517056 Z" id="Shape"></path>
        </g>
    </g>
</svg>