<?xml version="1.0" encoding="UTF-8" standalone="no"?>
<svg width="44px" height="44px" viewBox="0 0 44 44" version="1.1" xmlns="http://www.w3.org/2000/svg" xmlns:xlink="http://www.w3.org/1999/xlink">
    <defs></defs>
    <g stroke="none" stroke-width="1" fill="none" fill-rule="evenodd">
        <g fill="#7EBE59">
            <path d="M36.412367,15.0510384 C35.7323246,12.6456667 34.4667979,10.3763484 32.6080151,8.48084685 C26.7492872,2.50638438 17.2507128,2.50638438 11.3919849,8.48084685 C9.53320212,10.3763484 8.26638012,12.6456667 7.58763295,15.0510384 C6.12521778,20.227673 7.39203978,26.0370221 11.3919849,30.115983 L16.4890652,35.3679093 L20.3465253,39.3015704 C21.2597252,40.2328099 22.7402748,40.2328099 23.6534747,39.3015704 L27.5109348,35.3679093 L32.6080151,30.115983 C36.6079602,26.0370221 37.8747822,20.227673 36.412367,15.0510384 L36.412367,15.0510384 Z M27.4448735,24.1969986 C27.369745,24.2841785 27.2907305,24.3700374 27.2117161,24.4545755 L27.2143067,24.4572173 L27.1236344,24.5496808 L22.0136008,29.760659 L22.001943,29.7487708 L17.2248064,24.8772657 C17.1069324,24.7715932 16.991649,24.6632788 16.8789563,24.5496808 C16.7662635,24.4347619 16.6600474,24.3172011 16.5577171,24.1969986 C14.0564561,21.2949659 14.1626723,16.8725692 16.8789563,14.1026271 C19.707933,11.2177662 24.2946576,11.2177662 27.1236344,14.1026271 C29.8399184,16.8725692 29.9461345,21.2949659 27.4448735,24.1969986 L27.4448735,24.1969986 Z"></path>
        </g>
    </g>
</svg>