<?xml version="1.0" encoding="UTF-8" standalone="no"?>
<svg width="37px" height="44px" viewBox="0 0 37 44" version="1.1" xmlns="http://www.w3.org/2000/svg" xmlns:xlink="http://www.w3.org/1999/xlink">
    <!-- Generator: Sketch 3.8.3 (29802) - http://www.bohemiancoding.com/sketch -->
    <title>icons/location</title>
    <desc>Created with Sketch.</desc>
    <defs></defs>
    <g id="Icons" stroke="none" stroke-width="1" fill="none" fill-rule="evenodd">
        <g id="icons/location" fill="#AFAFAF">
            <path d="M35.9484486,13.5068247 C35.1172856,10.566926 33.5705307,7.79331474 31.2986851,5.47659059 C24.1380177,-1.8255302 12.528649,-1.8255302 5.36798155,5.47659059 C3.09613592,7.79331474 1.54779792,10.566926 0.718218055,13.5068247 C-1.06917826,19.8338226 0.479159734,26.9341381 5.36798155,31.9195347 L11.5977464,38.3385558 L16.3124198,43.1463638 C17.428553,44.2845454 19.2381137,44.2845454 20.3542469,43.1463638 L25.0689203,38.3385558 L31.2986851,31.9195347 C36.1875069,26.9341381 37.7358449,19.8338226 35.9484486,13.5068247 L35.9484486,13.5068247 Z M24.9881787,24.6852205 C24.896355,24.7917737 24.7997818,24.8967124 24.7032085,25.0000367 L24.7063749,25.0032656 L24.5955531,25.1162765 L18.3499566,31.4852499 L18.3357081,31.4707199 L12.4969857,25.5166581 C12.3529174,25.3875028 12.2120155,25.2551185 12.0742799,25.1162765 C11.9365443,24.9758201 11.8067245,24.8321347 11.6816543,24.6852205 C8.62455749,21.1382916 8.75437724,15.7331401 12.0742799,12.3476554 C15.5319181,8.82171424 21.1379149,8.82171424 24.5955531,12.3476554 C27.9154558,15.7331401 28.0452755,21.1382916 24.9881787,24.6852205 L24.9881787,24.6852205 Z" id="Shape"></path>
        </g>
    </g>
</svg>