<?xml version="1.0" encoding="UTF-8" standalone="no"?>
<svg width="44px" height="44px" viewBox="0 0 44 44" version="1.1" xmlns="http://www.w3.org/2000/svg" xmlns:xlink="http://www.w3.org/1999/xlink">
    <!-- Generator: Sketch 3.6.1 (26313) - http://www.bohemiancoding.com/sketch -->
    <title>icons/mobile-fill</title>
    <desc>Created with Sketch.</desc>
    <defs></defs>
    <g id="Icons" stroke="none" stroke-width="1" fill="none" fill-rule="evenodd">
        <g id="icons/mobile-fill" fill="#FFFFFF">
            <path d="M30.5974076,5 L14.9790377,5 C13.5143659,5 12,6.42936267 12,7.78941498 L12,36.8644563 C12,38.2245086 13.5143659,39 14.9790377,39 L30.5974076,39 C32.0620793,39 32.9225739,38.2245086 32.9225739,36.8644563 L32.9225739,7.78941498 C32.9225739,6.42936267 32.0620793,5 30.5974076,5 L30.5974076,5 L30.5974076,5 Z M17.5565983,6.96161391 C17.5565983,6.62552406 17.8495327,6.30774261 18.2104696,6.30774261 L27.3646679,6.30774261 C27.7256048,6.30774261 28.0185392,6.62552406 28.0185392,6.96161391 C28.0185392,7.29770376 27.7256048,7.61548521 27.3646679,7.61548521 L18.2104696,7.61548521 C17.8495327,7.61548521 17.5565983,7.29770376 17.5565983,6.96161391 L17.5565983,6.96161391 L17.5565983,6.96161391 Z M15.9219201,10.2309704 L28.9993461,10.2309704 L28.9993461,31.1548521 L15.9219201,31.1548521 L15.9219201,10.2309704 L15.9219201,10.2309704 L15.9219201,10.2309704 Z M20.1720835,34.4242086 C20.1720835,34.7602985 19.8791492,35.0780799 19.5182122,35.0780799 L16.902727,35.0780799 C16.5417901,35.0780799 16.2488557,34.7602985 16.2488557,34.4242086 C16.2488557,34.0881188 16.5417901,33.7703373 16.902727,33.7703373 L19.5182122,33.7703373 C19.8791492,33.7703373 20.1720835,34.0881188 20.1720835,34.4242086 L20.1720835,34.4242086 L20.1720835,34.4242086 Z M29.3262818,34.4242086 C29.3262818,34.7602985 29.0333474,35.0780799 28.6724105,35.0780799 L26.0569253,35.0780799 C25.6959883,35.0780799 25.403054,34.7602985 25.403054,34.4242086 C25.403054,34.0881188 25.6959883,33.7703373 26.0569253,33.7703373 L28.6724105,33.7703373 C29.0333474,33.7703373 29.3262818,34.0881188 29.3262818,34.4242086 L29.3262818,34.4242086 L29.3262818,34.4242086 Z" id="Shape"></path>
        </g>
    </g>
</svg>