<?xml version="1.0" encoding="UTF-8" standalone="no"?>
<svg width="27px" height="44px" viewBox="0 0 27 44" version="1.1" xmlns="http://www.w3.org/2000/svg" xmlns:xlink="http://www.w3.org/1999/xlink">
    <!-- Generator: Sketch 3.8.3 (29802) - http://www.bohemiancoding.com/sketch -->
    <title>icons/mobile</title>
    <desc>Created with Sketch.</desc>
    <defs></defs>
    <g id="Icons" stroke="none" stroke-width="1" fill="none" fill-rule="evenodd">
        <g id="icons/mobile" fill="#AFAFAF">
            <path d="M24.0672334,0 L3.8552252,0 C1.95976768,0 0,1.84976345 0,3.60983115 L0,41.2363552 C0,42.9964229 1.95976768,44 3.8552252,44 L24.0672334,44 C25.9626909,44 27.0762722,42.9964229 27.0762722,41.2363552 L27.0762722,3.60983115 C27.0762722,1.84976345 25.9626909,0 24.0672334,0 L24.0672334,0 L24.0672334,0 Z M7.19089196,2.53855918 C7.19089196,2.10361937 7.56998346,1.69237278 8.03707835,1.69237278 L19.8836878,1.69237278 C20.3507827,1.69237278 20.7298742,2.10361937 20.7298742,2.53855918 C20.7298742,2.97349898 20.3507827,3.38474557 19.8836878,3.38474557 L8.03707835,3.38474557 C7.56998346,3.38474557 7.19089196,2.97349898 7.19089196,2.53855918 L7.19089196,2.53855918 L7.19089196,2.53855918 Z M5.07542598,6.76949113 L21.9991538,6.76949113 L21.9991538,33.8474557 L5.07542598,33.8474557 L5.07542598,6.76949113 L5.07542598,6.76949113 L5.07542598,6.76949113 Z M10.5756375,38.0783876 C10.5756375,38.5133274 10.196546,38.924574 9.72945113,38.924574 L6.34470557,38.924574 C5.87761068,38.924574 5.49851917,38.5133274 5.49851917,38.0783876 C5.49851917,37.6434478 5.87761068,37.2322012 6.34470557,37.2322012 L9.72945113,37.2322012 C10.196546,37.2322012 10.5756375,37.6434478 10.5756375,38.0783876 L10.5756375,38.0783876 L10.5756375,38.0783876 Z M22.422247,38.0783876 C22.422247,38.5133274 22.0431555,38.924574 21.5760606,38.924574 L18.1913151,38.924574 C17.7242202,38.924574 17.3451287,38.5133274 17.3451287,38.0783876 C17.3451287,37.6434478 17.7242202,37.2322012 18.1913151,37.2322012 L21.5760606,37.2322012 C22.0431555,37.2322012 22.422247,37.6434478 22.422247,38.0783876 L22.422247,38.0783876 L22.422247,38.0783876 Z" id="Shape"></path>
        </g>
    </g>
</svg>