<?xml version="1.0" encoding="UTF-8" standalone="no"?>
<svg width="44px" height="44px" viewBox="0 0 44 44" version="1.1" xmlns="http://www.w3.org/2000/svg" xmlns:xlink="http://www.w3.org/1999/xlink">
    <defs></defs>
    <g stroke="none" stroke-width="1" fill="none" fill-rule="evenodd">
        <g fill="#969696">
            <path d="M25.5479945,13.8275971 C25.5479945,14.6710346 25.2049697,15.4307338 24.6581477,15.9725113 C24.1072901,16.5233689 23.3465821,16.8663937 22.5132335,16.8663937 C20.8354384,16.8663937 19.4643478,15.4993388 19.4643478,13.8265882 C19.4643478,12.9831506 19.8073727,12.2234514 20.3541947,11.6766294 C20.9100967,11.1298075 21.6697959,10.7867826 22.5132335,10.7867826 C23.3465821,10.7867826 24.1072901,11.1207274 24.6581477,11.6766294 C25.2049697,12.2244603 25.5479945,12.9841595 25.5479945,13.8275971 Z M25.5479945,21.7867826 C25.5479945,22.6251757 25.2049697,23.3848749 24.6581477,23.9367413 C24.1072901,24.4926434 23.3465821,24.8265882 22.5132335,24.8265882 C20.8455273,24.8265882 19.4643478,23.4554976 19.4643478,21.7877915 C19.4643478,20.9493984 19.8073727,20.1886903 20.3541947,19.6378328 C20.9100967,19.0869752 21.6697959,18.7479859 22.5132335,18.7479859 C23.3465821,18.7479859 24.1072901,19.0859663 24.6531032,19.6378328 L24.6581477,19.6378328 L24.6672278,19.6559929 C25.2140497,20.1977704 25.5479945,20.953434 25.5479945,21.7867826 Z M25.5479945,29.7469771 C25.5479945,30.5904146 25.2049697,31.3501138 24.6581477,31.8969358 C24.1072901,32.4528378 23.3465821,32.7867826 22.5132335,32.7867826 C20.8354384,32.7867826 19.4643478,31.4197277 19.4643478,29.7479859 C19.4643478,28.9136284 19.8073727,28.1539293 20.3541947,27.5980272 C20.9100967,27.0512052 21.6697959,26.7172605 22.5132335,26.7172605 C23.3465821,26.7172605 24.1072901,27.0512052 24.6581477,27.5980272 C25.2049697,28.1529204 25.5479945,28.9126195 25.5479945,29.7469771 Z"></path>
        </g>
    </g>
</svg>