<?xml version="1.0" encoding="UTF-8" standalone="no"?>
<svg width="12px" height="44px" viewBox="0 0 12 44" version="1.1" xmlns="http://www.w3.org/2000/svg" xmlns:xlink="http://www.w3.org/1999/xlink">
    <!-- Generator: Sketch 3.7.2 (28276) - http://www.bohemiancoding.com/sketch -->
    <title>icons/more</title>
    <desc>Created with Sketch.</desc>
    <defs></defs>
    <g id="Icons" stroke="none" stroke-width="1" fill="none" fill-rule="evenodd">
        <g id="icons/more" fill="#969696">
            <path d="M12.1672934,6.08162891 C12.1672934,7.76850408 11.4812437,9.28790241 10.3875997,10.3714574 C9.28588462,11.4731725 7.76446849,12.1592222 6.09777126,12.1592222 C2.74218105,12.1592222 0,9.42511235 0,6.07961112 C0,4.39273594 0.686049711,2.87333761 1.77969366,1.77969366 C2.89149775,0.686049711 4.41089608,0 6.09777126,0 C7.76446849,0 9.28588462,0.667889572 10.3875997,1.77969366 C11.4812437,2.87535541 12.1672934,4.39475374 12.1672934,6.08162891 Z M12.1672934,22 C12.1672934,23.6767862 11.4812437,25.1961845 10.3875997,26.2999175 C9.28588462,27.4117215 7.76446849,28.0796111 6.09777126,28.0796111 C2.76235898,28.0796111 0,25.3374301 0,22.0020178 C0,20.3252316 0.686049711,18.8038155 1.77969366,17.7021003 C2.89149775,16.6003852 4.41089608,15.9224067 6.09777126,15.9224067 C7.76446849,15.9224067 9.28588462,16.5983674 10.3775108,17.7021003 L10.3875997,17.7021003 L10.4057599,17.7384206 C11.4994038,18.8219756 12.1672934,20.3333028 12.1672934,22 Z M12.1672934,37.9203889 C12.1672934,39.6072641 11.4812437,41.1266624 10.3875997,42.2203063 C9.28588462,43.3321104 7.76446849,44 6.09777126,44 C2.74218105,44 0,41.2658901 0,37.9224067 C0,36.2536916 0.686049711,34.7342933 1.77969366,33.6224892 C2.89149775,32.5288453 4.41089608,31.8609557 6.09777126,31.8609557 C7.76446849,31.8609557 9.28588462,32.5288453 10.3875997,33.6224892 C11.4812437,34.7322755 12.1672934,36.2516739 12.1672934,37.9203889 Z" id="Shape"></path>
        </g>
    </g>
</svg>