<?xml version="1.0" encoding="UTF-8" standalone="no"?>
<svg width="44px" height="44px" viewBox="0 0 44 44" version="1.1" xmlns="http://www.w3.org/2000/svg" xmlns:xlink="http://www.w3.org/1999/xlink">
    <defs></defs>
    <g id="Icons" stroke="none" stroke-width="1" fill="none" fill-rule="evenodd">
        <g id="icons/no-camera-active" fill="#7EBE59">
            <g id="Group">
                <path d="M34.8130612,12.7127273 L29.5232653,12.7127273 C29.5232653,12.7127273 29.1265306,11.6654545 28.7297959,10.3563636 C28.3330612,9.04727273 26.7461224,8 25.2914286,8 L19.4726531,8 L18.6791837,8 C16.96,8 15.2408163,9.04727273 14.8440816,10.3563636 C14.4473469,11.6654545 14.0506122,12.7127273 14.0506122,12.7127273 L8.76081633,12.7127273 C6.11591837,12.7127273 4,14.8072727 4,17.4254545 L4,30.9090909 C4,33.5272727 6.11591837,35.6218182 8.76081633,35.6218182 L28.0685714,35.6218182 L34.6808163,35.6218182 C37.3257143,35.6218182 39.4416327,33.5272727 39.4416327,30.9090909 L39.4416327,17.4254545 C39.5738776,14.8072727 37.4579592,12.7127273 34.8130612,12.7127273 L34.8130612,12.7127273 L34.8130612,12.7127273 L34.8130612,12.7127273 Z M29.5232653,25.28 C28.9942857,28.4218182 26.3493878,31.04 23.1755102,31.5636364 C22.7787755,31.6945455 22.2497959,31.6945455 21.8530612,31.6945455 C19.7371429,31.6945455 17.8857143,30.9090909 16.4310204,29.4690909 C14.5795918,27.6363636 13.7861224,25.28 14.315102,22.7927273 C14.8440816,19.6509091 17.4889796,17.0327273 20.6628571,16.5090909 C23.1755102,16.1163636 25.6881633,16.9018182 27.4073469,18.6036364 C29.1265306,20.3054545 29.92,22.7927273 29.5232653,25.28 L29.5232653,25.28 L29.5232653,25.28 L29.5232653,25.28 Z M22.0146939,18.3605195 C21.7502041,18.3605195 21.3534694,18.3605195 21.0889796,18.4914286 C18.8408163,18.8841558 16.9893878,20.7168831 16.5926531,22.9423377 C16.3281633,24.6441558 16.8571429,26.4768831 18.1795918,27.6550649 C19.5020408,28.9641558 21.2212245,29.4877922 22.9404082,29.225974 C25.1885714,28.8332468 27.04,27.0005195 27.4367347,24.7750649 C27.7012245,23.0732468 27.1722449,21.2405195 25.8497959,20.0623377 C24.7918367,19.0150649 23.4693878,18.3605195 22.0146939,18.3605195 L22.0146939,18.3605195 L22.0146939,18.3605195 Z" id="Shape"></path>
                <path d="M43.0016373,2.99508825 L44,1.9967255 L42.0032745,0 L41.0049118,0.998362749 L0.998362749,41.0049117 L0,42.0032745 L1.9967255,44 L2.99508825,43.0016373 L43.0016373,2.99508825 Z" id="Shape"></path>
            </g>
        </g>
    </g>
</svg>