<?xml version="1.0" encoding="UTF-8" standalone="no"?>
<svg width="44px" height="44px" viewBox="0 0 44 44" version="1.1" xmlns="http://www.w3.org/2000/svg" xmlns:xlink="http://www.w3.org/1999/xlink">
    <!-- Generator: Sketch 3.6.1 (26313) - http://www.bohemiancoding.com/sketch -->
    <title>icons/ok-fill</title>
    <desc>Created with Sketch.</desc>
    <defs></defs>
    <g id="Icons" stroke="none" stroke-width="1" fill="none" fill-rule="evenodd">
        <g id="icons/ok-fill" fill="#FFFFFF">
            <path d="M22,38 C30.836556,38 38,30.836556 38,22 C38,13.163444 30.836556,6 22,6 C13.163444,6 6,13.163444 6,22 C6,30.836556 13.163444,38 22,38 Z M18.7370102,31 C18.085927,31 17.4339972,30.7365421 16.9386998,30.2096264 L11.372743,24.2984595 C10.8757523,23.7706446 10.8757523,22.9155306 11.372743,22.3886149 C11.8697337,21.8608 12.6749094,21.8608 13.1710534,22.3886149 L18.7370102,28.2997818 L31.8289466,14.3958612 C32.3259373,13.8680463 33.131113,13.8680463 33.627257,14.3958612 C34.1242477,14.923676 34.1242477,15.7787901 33.627257,16.3057058 L20.5353205,30.2096264 C20.0400232,30.7365421 19.3880934,31 18.7370102,31 Z" id="Oval-1"></path>
        </g>
    </g>
</svg>