<?xml version="1.0" encoding="UTF-8" standalone="no"?>
<svg width="44px" height="44px" viewBox="0 0 44 44" version="1.1" xmlns="http://www.w3.org/2000/svg" xmlns:xlink="http://www.w3.org/1999/xlink">
    <!-- Generator: Sketch 3.8.3 (29802) - http://www.bohemiancoding.com/sketch -->
    <title>icons/ok-fill</title>
    <desc>Created with Sketch.</desc>
    <defs></defs>
    <g id="Icons" stroke="none" stroke-width="1" fill="none" fill-rule="evenodd">
        <g id="icons/ok-fill" fill="#FFFFFF">
            <path d="M22,44 C34.1502645,44 44,34.1502645 44,22 C44,9.8497355 34.1502645,0 22,0 C9.8497355,0 0,9.8497355 0,22 C0,34.1502645 9.8497355,44 22,44 Z M17.513389,34.375 C16.6181496,34.375 15.7217461,34.0127455 15.0407123,33.2882364 L7.38752163,25.1603818 C6.70415946,24.4346364 6.70415946,23.2588545 7.38752163,22.5343455 C8.0708838,21.8086 9.17800036,21.8086 9.86019837,22.5343455 L17.513389,30.6622 L35.5148016,11.5443091 C36.1981638,10.8185636 37.3052804,10.8185636 37.9874784,11.5443091 C38.6708405,12.2700545 38.6708405,13.4458364 37.9874784,14.1703455 L19.9860657,33.2882364 C19.3050319,34.0127455 18.4086284,34.375 17.513389,34.375 Z" id="Oval-1"></path>
        </g>
    </g>
</svg>