<?xml version="1.0" encoding="UTF-8" standalone="no"?>
<svg width="44px" height="44px" viewBox="0 0 44 44" version="1.1" xmlns="http://www.w3.org/2000/svg" xmlns:xlink="http://www.w3.org/1999/xlink">
    <defs></defs>
    <g stroke="none" stroke-width="1" fill="none" fill-rule="evenodd">
        <g fill="#ffffff">
            <path d="M7.49005865,33.5415069 L10.2684272,36.5475633 L15.7646396,34.8701665 L9.05985608,28.2326326 L7.49005865,33.5415069 L7.49005865,33.5415069 Z M37.1663395,10.1857263 L33.8115459,6.83477556 C32.9036765,5.92498476 31.600956,5.73668592 30.8583285,6.3793998 L37.6178724,13.1399044 C38.2644291,12.4011197 38.0751696,11.0993599 37.1663395,10.1857263 L37.1663395,10.1857263 Z M30.0723394,7.15791913 L31.1402256,8.22580525 L11.0175012,28.3485296 L9.94961506,27.2806435 L30.0723394,7.15791913 L30.0723394,7.15791913 Z M35.938505,13.0217903 L36.8989213,13.9851994 L16.7435323,34.0779764 L15.783116,33.1145673 L35.938505,13.0217903 L35.938505,13.0217903 Z M34.8702465,11.9899365 L32.0448033,9.16257188 L11.8881815,29.186616 L14.8068134,32.0581732 L34.8702465,11.9899365 L34.8702465,11.9899365 Z M6,38.0001543 L9.05217042,37.0211925 L6.96166906,34.9306912 L6,38.0001543 L6,38.0001543 Z"></path>
        </g>
    </g>
</svg>
