<?xml version="1.0" encoding="UTF-8" standalone="no"?>
<svg width="44px" height="44px" viewBox="0 0 44 44" version="1.1" xmlns="http://www.w3.org/2000/svg" xmlns:xlink="http://www.w3.org/1999/xlink">
    <!-- Generator: Sketch 3.8.3 (29802) - http://www.bohemiancoding.com/sketch -->
    <title>icons/pencil-fill</title>
    <desc>Created with Sketch.</desc>
    <defs></defs>
    <g id="Icons" stroke="none" stroke-width="1" fill="none" fill-rule="evenodd">
        <g id="icons/pencil-fill" fill="#FFFFFF">
            <path d="M2.04882076,37.8693893 L5.86905907,42.002697 L13.4263147,39.6962875 L4.20728183,30.5697223 L2.04882076,37.8693893 L2.04882076,37.8693893 Z M42.8535101,5.75534587 L38.2406912,1.14781086 C36.9923768,-0.103145463 35.2011448,-0.362055113 34.1800368,0.521672215 L43.4743649,9.81732126 C44.3633761,8.80149717 44.1031455,7.01158606 42.8535101,5.75534587 L42.8535101,5.75534587 Z M33.0993071,1.59213113 L34.5676434,3.06046747 L6.89903086,30.7290801 L5.43069452,29.2607437 L33.0993071,1.59213113 L33.0993071,1.59213113 Z M41.1652459,9.65491516 L42.4858119,10.9795963 L14.7722856,38.6070314 L13.4517196,37.2823503 L41.1652459,9.65491516 L41.1652459,9.65491516 Z M39.6963975,8.23612303 L35.8114318,4.34851537 L8.09621046,31.8814432 L12.10931,35.8298154 L39.6963975,8.23612303 L39.6963975,8.23612303 Z M0,44 L4.19671408,42.653934 L1.32228857,39.7795085 L0,44 L0,44 Z" id="Shape"></path>
        </g>
    </g>
</svg>