<?xml version="1.0" encoding="UTF-8" standalone="no"?>
<svg width="44px" height="44px" viewBox="0 0 44 44" version="1.1" xmlns="http://www.w3.org/2000/svg" xmlns:xlink="http://www.w3.org/1999/xlink">
    <!-- Generator: Sketch 3.6.1 (26313) - http://www.bohemiancoding.com/sketch -->
    <title>icons/phone-fill</title>
    <desc>Created with Sketch.</desc>
    <defs></defs>
    <g id="Icons" stroke="none" stroke-width="1" fill="none" fill-rule="evenodd">
        <g id="icons/phone-fill" fill="#FFFFFF">
            <path d="M35.3722911,31.310458 L31.0481279,26.3568067 C30.1868347,25.3742034 28.7605164,25.4040575 27.8692183,26.4253605 L25.6906863,28.9201999 C25.5530499,28.8333099 25.410587,28.7425499 25.2608039,28.6462614 C23.8850836,27.7731229 22.0021762,26.5763814 20.0208077,24.3051708 C18.0335669,22.0291689 16.98782,19.8690818 16.2232182,18.2922541 C16.1425348,18.1252004 16.06523,17.9641361 15.9888904,17.8111802 L17.4510054,16.1388933 L18.1698357,15.3144979 C19.0625013,14.2917207 19.0871166,12.6584099 18.2278345,11.6729502 L13.9036712,6.71874606 C13.0443891,5.73466848 11.6174272,5.76452251 10.7247616,6.78729978 L9.50606433,8.1912689 L9.53936735,8.2291393 C9.13072165,8.82640437 8.78924508,9.51525868 8.5351286,10.2581083 C8.3008813,10.9652067 8.15503983,11.6399633 8.08835336,12.316102 C7.51737558,17.7381115 9.68046273,22.6934213 15.5508029,29.417675 C23.6653964,38.711864 30.2046928,38.0097412 30.4868031,37.9754644 C31.1012196,37.8913386 31.6900555,37.7231793 32.2884641,37.4569808 C32.9313571,37.1693132 33.5323397,36.7787228 34.0534434,36.3116545 L34.0800698,36.3387443 L35.3146946,34.9539408 C36.20551,33.9313478 36.2311711,32.2974841 35.3722911,31.310458 L35.3722911,31.310458 Z" id="Shape"></path>
        </g>
    </g>
</svg>