<?xml version="1.0" encoding="UTF-8" standalone="no"?>
<svg width="39px" height="44px" viewBox="0 0 39 44" version="1.1" xmlns="http://www.w3.org/2000/svg" xmlns:xlink="http://www.w3.org/1999/xlink">
    <!-- Generator: Sketch 3.7.2 (28276) - http://www.bohemiancoding.com/sketch -->
    <title>icons/phone</title>
    <desc>Created with Sketch.</desc>
    <defs></defs>
    <g id="Icons" stroke="none" stroke-width="1" fill="none" fill-rule="evenodd">
        <g id="icons/phone" fill="#969696">
            <path d="M37.6369003,34.8018797 L31.6911758,27.9906093 C30.5068976,26.6395297 28.54571,26.680579 27.3201751,28.0848706 L24.3246936,31.5152748 C24.1354436,31.3958011 23.9395571,31.2710061 23.7336053,31.1386094 C21.84199,29.938044 19.2529923,28.2925244 16.5286105,25.1696099 C13.7961544,22.0401073 12.3582525,19.0699874 11.306925,16.9018493 C11.1959853,16.6721506 11.0896912,16.4506871 10.9847244,16.2403727 L12.9951325,13.9409782 L13.9835241,12.8074347 C15.2109393,11.4011159 15.2447853,9.15531357 14.0632724,7.80030646 L8.1175479,0.988275837 C6.93603494,-0.364830846 4.97396246,-0.323781542 3.74654725,1.0825372 L2.07083846,3.01299474 L2.1166301,3.06506654 C1.55474227,3.88630601 1.08521199,4.83348069 0.73580182,5.85489886 C0.413711788,6.82715923 0.213179772,7.75494951 0.121485872,8.68464023 C-0.663608582,16.1399033 2.31063626,22.9534543 10.382354,32.1993032 C21.53992,44.978813 30.5314526,44.0133942 30.9193543,43.9662635 C31.764177,43.8505906 32.5738264,43.6193716 33.3966381,43.2533486 C34.280616,42.8578056 35.1069671,42.3207439 35.8234847,41.678525 L35.8600959,41.7157734 L37.5577051,39.8116685 C38.7825763,38.4056032 38.8178602,36.1590407 37.6369003,34.8018797 L37.6369003,34.8018797 Z" id="Shape"></path>
        </g>
    </g>
</svg>