<?xml version="1.0" encoding="UTF-8" standalone="no"?>
<svg width="42px" height="44px" viewBox="0 0 42 44" version="1.1" xmlns="http://www.w3.org/2000/svg" xmlns:xlink="http://www.w3.org/1999/xlink">
    <!-- Generator: Sketch 3.7.2 (28276) - http://www.bohemiancoding.com/sketch -->
    <title>icons/profile</title>
    <desc>Created with Sketch.</desc>
    <defs></defs>
    <g id="Icons" stroke="none" stroke-width="1" fill="none" fill-rule="evenodd">
        <g id="icons/profile" fill="#969696">
            <path d="M28.5091698,32.9260608 C27.2217082,32.4362134 26.3684973,31.1931102 26.3684973,29.8067498 L26.3684973,28.2417028 C28.4908212,26.6196611 30.1360808,24.0918639 31.2614629,21.249825 C32.5183434,21.249825 33.6146735,20.3887411 33.9189548,19.1595015 L34.6192605,16.3374877 C34.7492299,15.815292 34.633022,15.2638286 34.3027468,14.8402185 C33.9740007,14.4150679 33.4694136,14.1670634 32.9357746,14.1670634 C33.0015238,13.446156 33.0473953,12.7314102 33.0473953,12.0413107 C33.0473953,4.2823134 28.7966315,0 21.0947979,0 C13.3929642,0 9.14220038,4.2823134 9.14220038,12.0413107 C9.14220038,12.7314102 9.18807193,13.446156 9.25382116,14.1670634 C8.7201821,14.1670634 8.21559502,14.4135275 7.8868489,14.8402185 C7.55657372,15.2638286 7.44036579,15.815292 7.57033519,16.3374877 L8.27064088,19.1595015 C8.57492218,20.3887411 9.67125228,21.249825 10.9281328,21.249825 C12.0519858,24.0918639 13.6987746,26.6196611 15.8210984,28.2417028 L15.8210984,29.8067498 C15.8210984,31.1931102 14.9678875,32.4377538 13.680426,32.9260608 L5.45106947,36.057695 C2.17125348,37.303879 0,40.469402 0,44 L42.1865376,44 C42.1895957,40.469402 40.0198713,37.303879 36.7385263,36.057695 L28.5091698,32.9260608 Z" id="Shape"></path>
        </g>
    </g>
</svg>