<?xml version="1.0" encoding="UTF-8" standalone="no"?>
<svg width="44px" height="44px" viewBox="0 0 44 44" version="1.1" xmlns="http://www.w3.org/2000/svg" xmlns:xlink="http://www.w3.org/1999/xlink">
    <!-- Generator: Sketch 3.8.3 (29802) - http://www.bohemiancoding.com/sketch -->
    <title>icons/question-circle-active</title>
    <desc>Created with Sketch.</desc>
    <defs></defs>
    <g id="Icons" stroke="none" stroke-width="1" fill="none" fill-rule="evenodd">
        <g id="icons/question-circle-active" fill="#36DD69">
            <path d="M22,0 C9.85027613,0 0,9.84877616 0,22 C0,34.1497239 9.84877616,44 22,44 C34.1497239,44 44,34.1512238 44,22 C43.9985,9.85027613 34.1497239,0 22,0 L22,0 L22,0 Z M21.9940001,36.9096611 L21.9370014,36.9096611 C20.6335311,36.9096611 19.5565555,35.8896843 19.5565555,34.3612191 C19.5565555,32.9737506 20.6335311,31.8382764 21.9940001,31.8382764 C23.3814686,31.8382764 24.4584441,32.9737506 24.4584441,34.3612191 C24.4599441,35.8896843 23.3814686,36.9096611 21.9940001,36.9096611 L21.9940001,36.9096611 L21.9940001,36.9096611 Z M26.3289016,19.3720597 C24.9684325,20.4205359 21.6535079,22.2339947 21.6535079,24.1599509 C21.6535079,25.4634213 22.2759937,26.2839026 23.4669667,27.3608782 L22.7304834,28.3508557 C21.031022,27.7283698 17.9140929,25.4889207 17.9140929,22.9404786 C17.9140929,21.4405127 18.8200723,20.1655417 21.5410104,18.1810868 C23.2119725,17.0201132 25.7904139,15.3776505 25.7904139,13.8191859 C25.7904139,12.4572169 24.9129338,11.6637349 23.3814686,11.6637349 C20.6620304,11.6637349 18.9340697,14.0996796 18.394082,14.0996796 C17.7715961,14.0996796 16.4966251,13.1382014 16.4966251,12.0897252 C16.4966251,11.4087407 16.8356174,11.0127497 17.4026045,10.472762 C18.7630736,9.31178837 20.7175291,8.85879866 21.4540124,8.85879866 L21.4825118,8.85879866 C25.0524306,8.85879866 28.422854,12.1182246 28.422854,15.5726461 C28.425854,17.0756119 27.8588668,18.1525874 26.3289016,19.3720597 L26.3289016,19.3720597 L26.3289016,19.3720597 Z" id="Shape"></path>
        </g>
    </g>
</svg>