<?xml version="1.0" encoding="UTF-8" standalone="no"?>
<svg width="44px" height="44px" viewBox="0 0 44 44" version="1.1" xmlns="http://www.w3.org/2000/svg" xmlns:xlink="http://www.w3.org/1999/xlink">
    <defs></defs>
    <g stroke="none" stroke-width="1" fill="none" fill-rule="evenodd">
        <g fill="#969696">
            <path d="M22,5 C12.611577,5 5,12.6104179 5,22 C5,31.388423 12.6104179,39 22,39 C31.388423,39 39,31.3895821 39,22 C38.9988409,12.611577 31.388423,5 22,5 L22,5 L22,5 Z M21.9953637,33.5211018 L21.9513193,33.5211018 C20.9440922,33.5211018 20.1118838,32.7329379 20.1118838,31.5518511 C20.1118838,30.4797164 20.9440922,29.6023045 21.9953637,29.6023045 C23.0674985,29.6023045 23.8997068,30.4797164 23.8997068,31.5518511 C23.9008659,32.7329379 23.0674985,33.5211018 21.9953637,33.5211018 L21.9953637,33.5211018 L21.9953637,33.5211018 Z M25.3450603,19.9693189 C24.2937888,20.779505 21.7322561,22.1808141 21.7322561,23.669053 C21.7322561,24.6762801 22.2132679,25.3102884 23.1335651,26.1424968 L22.5644644,26.9074794 C21.2512443,26.4264676 18.8427081,24.6959842 18.8427081,22.7267335 C18.8427081,21.5676689 19.5427831,20.582464 21.6453262,19.0490216 C22.9365242,18.1519056 24.9289562,16.8827299 24.9289562,15.6784619 C24.9289562,14.6260312 24.2509034,14.0128861 23.0674985,14.0128861 C20.9661144,14.0128861 19.630872,15.8952069 19.2136088,15.8952069 C18.732597,15.8952069 17.7473921,15.1522465 17.7473921,14.3420604 C17.7473921,13.8158451 18.0093407,13.509852 18.4474671,13.0925888 C19.4987387,12.1954728 21.0089998,11.8454353 21.5781005,11.8454353 L21.6001227,11.8454353 C24.3586964,11.8454353 26.9631145,14.3640826 26.9631145,17.0334083 C26.9654326,18.194791 26.5273062,19.0269994 25.3450603,19.9693189 L25.3450603,19.9693189 L25.3450603,19.9693189 Z"></path>
        </g>
    </g>
</svg>