<?xml version="1.0" encoding="UTF-8" standalone="no"?>
<svg width="44px" height="29px" viewBox="0 0 44 29" version="1.1" xmlns="http://www.w3.org/2000/svg" xmlns:xlink="http://www.w3.org/1999/xlink">
    <!-- Generator: Sketch 3.7.2 (28276) - http://www.bohemiancoding.com/sketch -->
    <title>icons/reply-active</title>
    <desc>Created with Sketch.</desc>
    <defs></defs>
    <g id="Icons" stroke="none" stroke-width="1" fill="none" fill-rule="evenodd">
        <g id="icons/reply-active" fill="#7EBE59">
            <path d="M1.38597873,13.9548193 C1.13055177,14.0949514 1,14.329166 1,14.6395994 C1,14.911902 1.15559207,15.1678667 1.43674826,15.3228699 L24.7451376,28.1358433 C25.079027,28.3200595 25.3417168,28.3247303 25.6816011,28.1515689 C25.8950773,28.0431411 25.9966059,27.8382221 25.9966059,27.4518277 L25.9966059,23.4757753 C25.9966059,22.3497954 26.7971366,21.389072 27.9526084,20.6284401 C28.9021282,20.0011736 30.3056713,19.8150074 31.4360263,20.1380375 C36.0177434,21.4574756 39.836533,24.4995424 41.7967821,28.431559 C41.7506401,28.3375069 41.7428963,28.3333121 41.7376809,28.3333341 C41.7186589,28.3332078 41.6918845,28.3480501 41.654522,28.4225081 C42.5360283,26.6926634 43,24.8346451 43,22.9317316 C43,16.5685182 37.1341223,10.8788997 29.7250255,9.78974974 C27.744007,9.50112316 25.994096,7.96353987 25.994096,6.1434508 L25.994096,1.82397078 C25.994096,1.43762514 25.8927824,1.23360967 25.678711,1.12530817 C25.3365345,0.952537914 24.9883524,0.958488033 24.6541114,1.14032411 L1.38597873,13.9548193 Z" id="Shape"></path>
        </g>
    </g>
</svg>