<?xml version="1.0" encoding="UTF-8" standalone="no"?>
<svg width="44px" height="29px" viewBox="0 0 44 29" version="1.1" xmlns="http://www.w3.org/2000/svg" xmlns:xlink="http://www.w3.org/1999/xlink">
    <!-- Generator: Sketch 3.7.2 (28276) - http://www.bohemiancoding.com/sketch -->
    <title>icons/reply</title>
    <desc>Created with Sketch.</desc>
    <defs>
        <path d="M0.903568067,13.0788741 L24.1717008,0.264378937 C24.7966687,-0.0756483546 25.4919141,-0.0892494463 26.1294316,0.232643056 C26.7656941,0.554535558 26.994096,1.16431783 26.994096,1.82397078 L26.994096,6.1434508 C26.994096,7.46502354 28.4222355,8.58938045 29.8691994,8.80019737 C37.4792504,9.91888716 44,15.8183607 44,22.9317316 C44,25.0557687 43.4678988,27.0664635 42.5455064,28.8765421 C42.4049514,29.1564979 42.0723881,29.3355789 41.7310402,29.3333121 C41.3922022,29.3333121 41.0357948,29.1508307 40.8990046,28.8720084 C39.0642594,25.1917797 35.4650466,22.3389507 31.1592938,21.0989845 C30.3184735,20.8586985 29.2141125,20.993576 28.5038076,21.4628137 C27.7909928,21.9320514 26.9966059,22.6812448 26.9966059,23.4757753 L26.9966059,27.4518277 C26.9966059,28.1114807 26.768204,28.7212629 26.1344514,29.0431554 C25.4981889,29.3673148 24.8845156,29.3548471 24.2620576,29.0114196 L0.955021249,16.1991912 C0.352642537,15.8670979 0,15.2754504 0,14.6395994 C0,14.0037483 0.296169533,13.4121009 0.903568067,13.0788741 L0.903568067,13.0788741 L0.903568067,13.0788741 L0.903568067,13.0788741 Z" id="path-1"></path>
        <mask id="mask-2" maskContentUnits="userSpaceOnUse" maskUnits="objectBoundingBox" x="0" y="0" width="44" height="29.3333333" fill="white">
            <use xlink:href="#path-1"></use>
        </mask>
    </defs>
    <g id="Icons" stroke="none" stroke-width="1" fill="none" fill-rule="evenodd">
        <g id="icons/reply" stroke="#FFFFFF" stroke-width="2" fill="#969696">
            <use id="Shape" mask="url(#mask-2)" xlink:href="#path-1"></use>
        </g>
    </g>
</svg>