<?xml version="1.0" encoding="UTF-8" standalone="no"?>
<svg width="44px" height="44px" viewBox="0 0 44 44" version="1.1" xmlns="http://www.w3.org/2000/svg" xmlns:xlink="http://www.w3.org/1999/xlink">
    <!-- Generator: Sketch 3.6.1 (26313) - http://www.bohemiancoding.com/sketch -->
    <title>icons/reply-active</title>
    <desc>Created with Sketch.</desc>
    <defs></defs>
    <g id="Icons" stroke="none" stroke-width="1" fill="none" fill-rule="evenodd">
        <g id="icons/reply-active" stroke="#FFFFFF" fill="#7EBE59">
            <path d="M4.73928296,20.700897 L23.7768461,10.21631 C24.2881835,9.93810589 24.8570206,9.92697773 25.3786258,10.1903443 C25.8992042,10.4537109 26.0860785,10.9526237 26.0860785,11.4923397 L26.0860785,15.0264597 C26.0860785,16.1077465 27.2545563,17.0276749 28.4384359,17.2001615 C34.6648413,18.1154531 40,22.9422951 40,28.7623258 C40,30.5001744 39.5646445,32.1452883 38.8099598,33.6262617 C38.6949602,33.8553164 38.422863,34.0018373 38.1435783,33.9999826 C37.8663472,33.9999826 37.5747412,33.8506797 37.4628219,33.6225523 C35.9616668,30.6114561 33.0168563,28.2773233 29.4939677,27.2628055 C28.8060238,27.0662079 27.9024557,27.1765622 27.3212972,27.5604839 C26.7380851,27.9444057 26.0881321,28.5573821 26.0881321,29.2074525 L26.0881321,32.4605863 C26.0881321,33.0003024 25.9012578,33.4992151 25.382733,33.7625817 C24.8621545,34.027803 24.3600582,34.0176022 23.8507744,33.736616 L4.78138102,23.2538837 C4.28852571,22.982171 4,22.4980958 4,21.977854 C4,21.4576123 4.24232053,20.9735371 4.73928296,20.700897 L4.73928296,20.700897 L4.73928296,20.700897 L4.73928296,20.700897 Z" id="Shape"></path>
        </g>
    </g>
</svg>