<?xml version="1.0" encoding="UTF-8" standalone="no"?>
<svg width="44px" height="44px" viewBox="0 0 44 44" version="1.1" xmlns="http://www.w3.org/2000/svg" xmlns:xlink="http://www.w3.org/1999/xlink">
    <!-- Generator: Sketch 3.6.1 (26313) - http://www.bohemiancoding.com/sketch -->
    <title>icons/send-fill</title>
    <desc>Created with Sketch.</desc>
    <defs></defs>
    <g id="Icons" stroke="none" stroke-width="1" fill="none" fill-rule="evenodd">
        <g id="icons/send-fill" fill="#FFFFFF">
            <path d="M5.93234112,22.2056787 C4.64470362,22.8608913 4.69778181,23.8212975 6.04832679,24.3391729 L10.0478665,25.8746783 C11.3984114,26.395415 13.4429046,26.1112034 14.5880173,25.2442628 L31.9563796,11.9540342 C33.0985435,11.0823249 33.2204268,11.2110784 32.228651,12.2411069 L18.4981104,26.5003253 C17.5033859,27.5274926 17.7972818,28.7883237 19.1527414,29.2966619 L19.6215987,29.4740557 C20.9770583,29.9823938 23.1857007,30.8369359 24.5323139,31.3681636 L28.9682743,33.1201657 C30.3158705,33.6513934 31.755862,33.0247927 32.1392045,31.6647736 L38.8997928,7.55352359 C39.2811694,6.19255077 38.5400406,5.61554407 37.2524031,6.26980291 L5.93234112,22.2056787 L5.93234112,22.2056787 Z M16.9087136,37.9908652 C16.8300792,38.2207142 19.6442061,34.0367003 19.6442061,34.0367003 C20.439396,32.85789 19.9882314,31.4501844 18.643584,30.9170493 L15.5748784,29.6981822 C14.230231,29.1650471 13.5864123,29.790694 14.1427503,31.094443 C14.1417674,31.094443 16.9902967,37.7543402 16.9087136,37.9908652 L16.9087136,37.9908652 Z" id="Shape"></path>
        </g>
    </g>
</svg>