<?xml version="1.0" encoding="UTF-8" standalone="no"?>
<svg width="44px" height="41px" viewBox="0 0 44 41" version="1.1" xmlns="http://www.w3.org/2000/svg" xmlns:xlink="http://www.w3.org/1999/xlink">
    <!-- Generator: Sketch 3.7.2 (28276) - http://www.bohemiancoding.com/sketch -->
    <title>icons/send-active</title>
    <desc>Created with Sketch.</desc>
    <defs></defs>
    <g id="Icons" stroke="none" stroke-width="1" fill="none" fill-rule="evenodd">
        <g id="icons/send-active" fill="#7EBE59">
            <path d="M1.2065591,20.9720548 C-0.459795309,21.819977 -0.39110589,23.0628556 1.3566582,23.7330473 L6.53253308,25.720172 C8.28029717,26.3940664 10.9261118,26.0262632 12.4080224,24.90434 L34.8847265,7.70522067 C36.3628211,6.5771263 36.5205523,6.74374855 35.2370778,8.07672659 L17.4681429,26.5298327 C16.1808523,27.859108 16.5611882,29.4907719 18.3153124,30.1486212 L18.9220689,30.3781897 C20.6761931,31.036039 23.5344362,32.1419171 25.2771121,32.8293882 L31.0177667,35.0966851 C32.7617147,35.7841561 34.6252332,34.9732612 35.1213234,33.2132365 L43.8703201,2.01044229 C44.3638663,0.249183349 43.4047585,-0.497531199 41.7384041,0.349156701 L1.2065591,20.9720548 L1.2065591,20.9720548 Z M15.4112764,41.3999432 C15.3095143,41.6973948 18.9513255,36.2827887 18.9513255,36.2827887 C19.9803948,34.7572694 19.3965347,32.9355327 17.6564028,32.2455932 L13.6851368,30.6682358 C11.9450048,29.9782963 11.1118276,30.787957 11.8317945,32.4751616 C11.8305225,32.4751616 15.5168546,41.093852 15.4112764,41.3999432 L15.4112764,41.3999432 Z" id="Shape"></path>
        </g>
    </g>
</svg>