<?xml version="1.0" encoding="UTF-8" standalone="no"?>
<svg width="44px" height="29px" viewBox="0 0 44 29" version="1.1" xmlns="http://www.w3.org/2000/svg" xmlns:xlink="http://www.w3.org/1999/xlink">
    <!-- Generator: Sketch 3.7.2 (28276) - http://www.bohemiancoding.com/sketch -->
    <title>icons/share</title>
    <desc>Created with Sketch.</desc>
    <defs></defs>
    <g id="Icons" stroke="none" stroke-width="1" fill="none" fill-rule="evenodd">
        <g id="icons/share" fill="#969696">
            <path d="M43.0964319,13.0788741 L19.8282992,0.264378937 C19.2033313,-0.0756483546 18.5080859,-0.0892494463 17.8705684,0.232643056 C17.2343059,0.554535558 17.005904,1.16431783 17.005904,1.82397078 L17.005904,6.1434508 C17.005904,7.46502354 15.5777645,8.58938045 14.1308006,8.80019737 C6.52074955,9.91888716 0,15.8183607 0,22.9317316 C0,25.0557687 0.532101195,27.0664635 1.4544936,28.8765421 C1.59504863,29.1564979 1.92761188,29.3355789 2.26895981,29.3333121 C2.60779784,29.3333121 2.96420524,29.1508307 3.10099541,28.8720084 C4.93574057,25.1917797 8.53495337,22.3389507 12.8407062,21.0989845 C13.6815265,20.8586985 14.7858875,20.993576 15.4961924,21.4628137 C16.2090072,21.9320514 17.0033941,22.6812448 17.0033941,23.4757753 L17.0033941,27.4518277 C17.0033941,28.1114807 17.231796,28.7212629 17.8655486,29.0431554 C18.5018111,29.3673148 19.1154844,29.3548471 19.7379424,29.0114196 L43.0449788,16.1991912 C43.6473575,15.8670979 44,15.2754504 44,14.6395994 C44,14.0037483 43.7038305,13.4121009 43.0964319,13.0788741 L43.0964319,13.0788741 L43.0964319,13.0788741 Z" id="Shape"></path>
        </g>
    </g>
</svg>