<?xml version="1.0" encoding="UTF-8" standalone="no"?>
<svg width="44px" height="44px" viewBox="0 0 44 44" version="1.1" xmlns="http://www.w3.org/2000/svg" xmlns:xlink="http://www.w3.org/1999/xlink">
    <defs></defs>
    <g stroke="none" stroke-width="1" fill="none" fill-rule="evenodd">
        <g fill="#7EBE59">
            <path d="M39.260717,20.700897 L20.2231539,10.21631 C19.7118165,9.93810589 19.1429794,9.92697773 18.6213742,10.1903443 C18.1007958,10.4537109 17.9139215,10.9526237 17.9139215,11.4923397 L17.9139215,15.0264597 C17.9139215,16.1077465 16.7454437,17.0276749 15.5615641,17.2001615 C9.33515872,18.1154531 4,22.9422951 4,28.7623258 C4,30.5001744 4.43535552,32.1452883 5.19004022,33.6262617 C5.30503979,33.8553164 5.57713699,34.0018373 5.85642167,33.9999826 C6.13365278,33.9999826 6.42525883,33.8506797 6.53717806,33.6225523 C8.03833319,30.6114561 10.9831437,28.2773233 14.5060323,27.2628055 C15.1939762,27.0662079 16.0975443,27.1765622 16.6787028,27.5604839 C17.2619149,27.9444057 17.9118679,28.5573821 17.9118679,29.2074525 L17.9118679,32.4605863 C17.9118679,33.0003024 18.0987422,33.4992151 18.617267,33.7625817 C19.1378455,34.027803 19.6399418,34.0176022 20.1492256,33.736616 L39.218619,23.2538837 C39.7114743,22.982171 40,22.4980958 40,21.977854 C40,21.4576123 39.7576795,20.9735371 39.260717,20.700897 L39.260717,20.700897 L39.260717,20.700897 Z"></path>
        </g>
    </g>
</svg>