<?xml version="1.0" encoding="UTF-8" standalone="no"?>
<svg width="44px" height="44px" viewBox="0 0 44 44" version="1.1" xmlns="http://www.w3.org/2000/svg" xmlns:xlink="http://www.w3.org/1999/xlink">
    <defs></defs>
    <g stroke="none" stroke-width="1" fill="none" fill-rule="evenodd">
        <g fill="#7EBE59">
            <path d="M17.2324228,17.9005233 L9.29385662,13.31719 L8.5,12.8588566 L7,15.4569328 L7.79385662,15.9152662 L15.7324228,20.4985995 L16.5262794,20.9569328 L18.0262794,18.3588566 L17.2324228,17.9005233 L17.2324228,17.9005233 L17.2324228,17.9005233 Z M28.0273535,24.1329794 L27.2334969,23.6746461 L25.7334969,26.2727223 L26.5273535,26.7310556 L34.4659197,31.314389 L35.2597763,31.7727223 L36.7597763,29.1746461 L35.9659197,28.7163128 L28.0273535,24.1329794 L28.0273535,24.1329794 Z M15.7324228,24.1329794 L7.79385662,28.7163128 L7,29.1746461 L8.5,31.7727223 L9.29385662,31.314389 L17.2324228,26.7310556 L18.0262794,26.2727223 L16.5262794,23.6746461 L15.7324228,24.1329794 L15.7324228,24.1329794 Z M26.5273535,17.9005233 L25.7334969,18.3588566 L27.2334969,20.9569328 L28.0273535,20.4985995 L35.9659197,15.9152662 L36.7597763,15.4569328 L35.2597763,12.8588566 L34.4659197,13.31719 L26.5273535,17.9005233 L26.5273535,17.9005233 Z M20.3798882,28.5482456 L20.3798882,37.7149123 L20.3798882,38.6315789 L23.3798882,38.6315789 L23.3798882,37.7149123 L23.3798882,28.5482456 L23.3798882,27.6315789 L20.3798882,27.6315789 L20.3798882,28.5482456 L20.3798882,28.5482456 Z M20.3798882,16.0833333 L20.3798882,17 L23.3798882,17 L23.3798882,16.0833333 L23.3798882,6.91666667 L23.3798882,6 L20.3798882,6 L20.3798882,6.91666667 L20.3798882,16.0833333 L20.3798882,16.0833333 Z"></path>
        </g>
    </g>
</svg>