<?xml version="1.0" encoding="UTF-8" standalone="no"?>
<svg width="40px" height="44px" viewBox="0 0 40 44" version="1.1" xmlns="http://www.w3.org/2000/svg" xmlns:xlink="http://www.w3.org/1999/xlink">
    <!-- Generator: Sketch 3.8.3 (29802) - http://www.bohemiancoding.com/sketch -->
    <title>icons/sparkle-active</title>
    <desc>Created with Sketch.</desc>
    <defs></defs>
    <g id="Icons" stroke="none" stroke-width="1" fill="none" fill-rule="evenodd">
        <g id="icons/sparkle-active" fill="#36DD69">
            <path d="M13.7972669,16.0465121 L3.09300667,9.86640453 L2.02258065,9.24839378 L0,12.7516062 L1.07042602,13.369617 L11.7746863,19.5497245 L12.8451123,20.1677353 L14.8676929,16.6645228 L13.7972669,16.0465121 L13.7972669,16.0465121 L13.7972669,16.0465121 Z M28.3530122,24.4502755 L27.2825861,23.8322647 L25.2600055,27.3354772 L26.3304315,27.9534879 L37.0346917,34.1335955 L38.1051178,34.7516062 L40.1276984,31.2483938 L39.0572724,30.630383 L28.3530122,24.4502755 L28.3530122,24.4502755 Z M11.7746863,24.4502755 L1.07042602,30.630383 L0,31.2483938 L2.02258065,34.7516062 L3.09300667,34.1335955 L13.7972669,27.9534879 L14.8676929,27.3354772 L12.8451123,23.8322647 L11.7746863,24.4502755 L11.7746863,24.4502755 Z M26.3304315,16.0465121 L25.2600055,16.6645228 L27.2825861,20.1677353 L28.3530122,19.5497245 L39.0572724,13.369617 L40.1276984,12.7516062 L38.1051178,9.24839378 L37.0346917,9.86640453 L26.3304315,16.0465121 L26.3304315,16.0465121 Z M18.0412686,30.4037634 L18.0412686,42.7639785 L18.0412686,44 L22.0864299,44 L22.0864299,42.7639785 L22.0864299,30.4037634 L22.0864299,29.1677419 L18.0412686,29.1677419 L18.0412686,30.4037634 L18.0412686,30.4037634 Z M18.0412686,13.5962366 L18.0412686,14.8322581 L22.0864299,14.8322581 L22.0864299,13.5962366 L22.0864299,1.23602151 L22.0864299,0 L18.0412686,0 L18.0412686,1.23602151 L18.0412686,13.5962366 L18.0412686,13.5962366 Z" id="Shape"></path>
        </g>
    </g>
</svg>