<?xml version="1.0" encoding="UTF-8" standalone="no"?>
<svg width="44px" height="44px" viewBox="0 0 44 44" version="1.1" xmlns="http://www.w3.org/2000/svg" xmlns:xlink="http://www.w3.org/1999/xlink">
    <defs></defs>
    <g stroke="none" stroke-width="1" fill="none" fill-rule="evenodd">
        <g fill="#7EBE59">
            <path d="M33.88079,6.00628455 L23.5540131,6 C22.5497416,6.03267967 21.5404425,6.43112031 20.7800116,7.194065 L7.20035029,20.7737263 C5.6015601,22.3712596 5.59904628,25.0170562 7.19783647,26.6171033 L17.3825824,36.8005924 C18.9838865,38.4018964 21.6296831,38.3981257 23.2259595,36.7993355 L36.8043639,23.2196742 C37.5698224,22.4567295 37.9632354,21.4549718 37.997172,20.4481865 L37.997172,10.1201527 C37.9946581,7.85897067 36.1407151,6.00628455 33.88079,6.00628455 L33.88079,6.00628455 L33.88079,6.00628455 Z M30.4557088,17.3121947 C28.374265,17.3121947 26.6849772,15.6241639 26.6849772,13.5414631 C26.6849772,11.4587624 28.374265,9.77073157 30.4557088,9.77073157 C32.5396665,9.77073157 34.2264404,11.4587624 34.2264404,13.5414631 C34.2264404,15.6241639 32.5396665,17.3121947 30.4557088,17.3121947 L30.4557088,17.3121947 L30.4557088,17.3121947 Z"></path>
        </g>
    </g>
</svg>