<?xml version="1.0" encoding="UTF-8" standalone="no"?>
<svg width="44px" height="44px" viewBox="0 0 44 44" version="1.1" xmlns="http://www.w3.org/2000/svg" xmlns:xlink="http://www.w3.org/1999/xlink">
    <!-- Generator: Sketch 3.8.3 (29802) - http://www.bohemiancoding.com/sketch -->
    <title>icons/tag-active</title>
    <desc>Created with Sketch.</desc>
    <defs></defs>
    <g id="Icons" stroke="none" stroke-width="1" fill="none" fill-rule="evenodd">
        <g id="icons/tag-active" fill="#36DD69">
            <path d="M36.1084381,3.00746291 L23.8453906,3 C22.6528182,3.03880711 21.4542754,3.51195537 20.5512638,4.41795218 L4.42541597,20.5438 C2.52685262,22.4408707 2.52386746,25.5827543 4.42243081,27.4828102 L16.5168167,39.5757035 C18.4183652,41.477252 21.5602487,41.4727742 23.4558269,39.5742109 L39.5801821,23.4483631 C40.4891641,22.5423663 40.956342,21.352779 40.9966417,20.1572214 L40.9966417,7.89268133 C40.9936565,5.20752766 38.7920992,3.00746291 36.1084381,3.00746291 L36.1084381,3.00746291 L36.1084381,3.00746291 Z M32.0411542,16.4332312 C29.5694397,16.4332312 27.5634105,14.4286946 27.5634105,11.9554875 C27.5634105,9.48228036 29.5694397,7.47774374 32.0411542,7.47774374 C34.5158539,7.47774374 36.518898,9.48228036 36.518898,11.9554875 C36.518898,14.4286946 34.5158539,16.4332312 32.0411542,16.4332312 L32.0411542,16.4332312 L32.0411542,16.4332312 Z" id="Shape"></path>
        </g>
    </g>
</svg>