<?xml version="1.0" encoding="UTF-8" standalone="no"?>
<svg width="44px" height="44px" viewBox="0 0 44 44" version="1.1" xmlns="http://www.w3.org/2000/svg" xmlns:xlink="http://www.w3.org/1999/xlink">
    <defs></defs>
    <g stroke="none" stroke-width="1" fill="none" fill-rule="evenodd">
        <g fill="#EC6857">
            <path d="M12.3366857,35.6110857 C12.3366857,37.0274286 13.4856,38.1763429 14.9019429,38.1763429 L14.9019429,39.4589714 L17.4672,39.4589714 L17.4672,38.1763429 L26.4445714,38.1763429 L26.4445714,39.4589714 L29.0098286,39.4589714 L29.0098286,38.1763429 C30.4261714,38.1763429 31.5750857,37.0274286 31.5750857,35.6110857 L31.5750857,15.0900571 L12.3366857,15.0900571 L12.3366857,35.6110857 L12.3366857,35.6110857 Z M30.2924571,8.67691429 L27.7272,8.67691429 L27.7272,7.39428571 C27.7272,5.97794286 26.5782857,4.82902857 25.1619429,4.82902857 L18.7488,4.82902857 C17.3324571,4.82902857 16.1835429,5.97794286 16.1835429,7.39428571 L16.1835429,8.67691429 L13.6182857,8.67691429 C11.4932571,8.67691429 9.7704,10.3997714 9.7704,12.5248 L34.1382857,12.5248 C34.1393143,10.3997714 32.4174857,8.67691429 30.2924571,8.67691429 L30.2924571,8.67691429 L30.2924571,8.67691429 Z M17.4661714,7.39531429 C17.4661714,6.68765714 18.0411429,6.11268571 18.7488,6.11268571 L25.1619429,6.11268571 C25.8696,6.11268571 26.4445714,6.68765714 26.4445714,7.39531429 L26.4445714,8.67794286 L17.4672,8.67794286 L17.4672,7.39531429 L17.4661714,7.39531429 L17.4661714,7.39531429 Z"></path>
        </g>
    </g>
</svg>