<?xml version="1.0" encoding="UTF-8" standalone="no"?>
<svg width="31px" height="44px" viewBox="0 0 31 44" version="1.1" xmlns="http://www.w3.org/2000/svg" xmlns:xlink="http://www.w3.org/1999/xlink">
    <!-- Generator: Sketch 3.7.2 (28276) - http://www.bohemiancoding.com/sketch -->
    <title>icons/trash-fill</title>
    <desc>Created with Sketch.</desc>
    <defs></defs>
    <g id="Icons" stroke="none" stroke-width="1" fill="none" fill-rule="evenodd">
        <g id="icons/trash-fill" fill="#FFFFFF">
            <path d="M3.26066294,39.1109659 C3.26066294,40.9105382 4.72044671,42.370322 6.52001901,42.370322 L6.52001901,44 L9.77937507,44 L9.77937507,42.370322 L21.1858144,42.370322 L21.1858144,44 L24.4451705,44 L24.4451705,42.370322 C26.2447428,42.370322 27.7045266,40.9105382 27.7045266,39.1109659 L27.7045266,13.0374243 L3.26066294,13.0374243 L3.26066294,39.1109659 L3.26066294,39.1109659 Z M26.0748485,4.8890341 L22.8154925,4.8890341 L22.8154925,3.25935607 C22.8154925,1.45978377 21.3557087,-7.46069873e-14 19.5561364,-7.46069873e-14 L11.4077462,-7.46069873e-14 C9.60817393,-7.46069873e-14 8.14839016,1.45978377 8.14839016,3.25935607 L8.14839016,4.8890341 L4.8890341,4.8890341 C2.18902222,4.8890341 0,7.07805631 0,9.7780682 L30.9612689,9.7780682 C30.9625757,7.07805631 28.7748604,4.8890341 26.0748485,4.8890341 L26.0748485,4.8890341 L26.0748485,4.8890341 Z M9.7780682,3.26066294 C9.7780682,2.36153024 10.5086135,1.63098491 11.4077462,1.63098491 L19.5561364,1.63098491 C20.4552691,1.63098491 21.1858144,2.36153024 21.1858144,3.26066294 L21.1858144,4.89034098 L9.77937507,4.89034098 L9.77937507,3.26066294 L9.7780682,3.26066294 L9.7780682,3.26066294 Z" id="Shape"></path>
        </g>
    </g>
</svg>