<?xml version="1.0" encoding="UTF-8" standalone="no"?>
<svg width="44px" height="36px" viewBox="0 0 44 36" version="1.1" xmlns="http://www.w3.org/2000/svg" xmlns:xlink="http://www.w3.org/1999/xlink">
    <!-- Generator: Sketch 3.8.3 (29802) - http://www.bohemiancoding.com/sketch -->
    <title>icons/twitter</title>
    <desc>Created with Sketch.</desc>
    <defs></defs>
    <g id="Icons" stroke="none" stroke-width="1" fill="none" fill-rule="evenodd">
        <g id="icons/twitter" fill="#AFAFAF">
            <path d="M44,4.23457842 C42.3819199,4.95327899 40.6407105,5.43776615 38.8165227,5.65725757 C40.6821998,4.53972503 42.1129091,2.76907166 42.784767,0.663827716 C41.0395425,1.6983818 39.109624,2.44652634 37.0512228,2.85071177 C35.4077138,1.09745711 33.0602263,-7.46069873e-14 30.462465,-7.46069873e-14 C25.4797421,-7.46069873e-14 21.4378878,4.04586933 21.4378878,9.02859229 C21.4378878,9.73792432 21.5141745,10.4231658 21.6694245,11.0843168 C14.1679036,10.7055603 7.51758121,7.11741088 3.06217301,1.64886239 C2.28592286,2.98856309 1.84024821,4.53972503 1.84024821,6.19394087 C1.84024821,9.32169364 3.43423774,12.0880886 5.85667356,13.707507 C4.37778319,13.6620027 2.984548,13.2538022 1.76529991,12.5792676 L1.76529991,12.6903516 C1.76529991,17.0667964 4.87565397,20.7151722 9.00851685,21.5422801 C8.25100377,21.7537413 7.45333982,21.8608103 6.62890863,21.8608103 C6.04805937,21.8608103 5.48059375,21.8072758 4.93186519,21.7015452 C6.07884171,25.2856795 9.41270228,27.8981628 13.3635479,27.969096 C10.2746076,30.3901935 6.3813116,31.832948 2.15342499,31.832948 C1.42401752,31.832948 0.703978586,31.7927972 0,31.7098187 C3.99501156,34.2701059 8.74084438,35.7650566 13.8373281,35.7650566 C30.4437279,35.7650566 39.5218396,22.0093685 39.5218396,10.0751916 C39.5218396,9.68438983 39.5138095,9.29358803 39.4977491,8.90813968 C41.2617107,7.6353571 42.7927972,6.04538265 44,4.23457842" id="Shape"></path>
        </g>
    </g>
</svg>