<?xml version="1.0" encoding="UTF-8" standalone="no"?>
<svg width="44px" height="44px" viewBox="0 0 44 44" version="1.1" xmlns="http://www.w3.org/2000/svg" xmlns:xlink="http://www.w3.org/1999/xlink">
    <defs></defs>
    <g stroke="none" stroke-width="1" fill="none" fill-rule="evenodd">
        <g fill="#969696">
            <path d="M39.4470306,11.3151966 C38.1802567,11.877858 36.8170864,12.2571568 35.3889533,12.4289938 C36.8495678,11.554092 37.9696516,10.1678704 38.4956405,8.51970213 C37.1293268,9.32964113 35.6184186,9.91535382 34.0069229,10.2317854 C32.720241,8.85918497 30.8824234,8 28.8486697,8 C24.9477604,8 21.783445,11.1674587 21.783445,15.0683681 C21.783445,15.6236949 21.8431688,16.1601617 21.964712,16.6777682 C16.0918684,16.3812446 10.8854171,13.5721289 7.39733563,9.29087303 C6.78961943,10.3397074 6.44070651,11.554092 6.44070651,12.8491562 C6.44070651,15.2978333 7.68862029,17.4636081 9.58511395,18.7314299 C8.42730981,18.6958051 7.33656401,18.3762302 6.38203046,17.8481458 L6.38203046,17.9351121 C6.38203046,21.3613741 8.8170864,24.2176402 12.0526513,24.8651723 C11.4596041,25.0307226 10.8351233,25.1145455 10.1896868,25.1145455 C9.73494742,25.1145455 9.29068593,25.0726341 8.86109344,24.9898589 C9.75904651,27.7958313 12.3690828,29.8411107 15.4621487,29.8966433 C13.0438574,31.7920892 9.99584627,32.9216031 6.68588856,32.9216031 C6.11484489,32.9216031 5.55113573,32.8901695 5,32.8252068 C8.12764285,34.8296224 11.843094,36 15.8330651,36 C28.8340007,36 35.9411368,25.2308498 35.9411368,15.8877372 C35.9411368,15.5817835 35.9348501,15.2758298 35.9222767,14.9740673 C37.3032594,13.9776223 38.5019272,12.7328519 39.4470306,11.3151966"></path>
        </g>
    </g>
</svg>