<?xml version="1.0" encoding="UTF-8" standalone="no"?>
<svg width="44px" height="44px" viewBox="0 0 44 44" version="1.1" xmlns="http://www.w3.org/2000/svg" xmlns:xlink="http://www.w3.org/1999/xlink">
    <!-- Generator: Sketch 3.6.1 (26313) - http://www.bohemiancoding.com/sketch -->
    <title>icons/video-fill</title>
    <desc>Created with Sketch.</desc>
    <defs></defs>
    <g id="Icons" stroke="none" stroke-width="1" fill="none" fill-rule="evenodd">
        <g id="icons/video-fill" fill="#FFFFFF">
            <path d="M39.4309231,15.0070769 C39.0709231,14.7163077 38.5973846,14.5986154 38.1404615,14.69 L31,16.0953846 L31,13.2153846 C31,11.9913846 29.992,11 28.75,11 L6.25,11 C5.008,11 4,11.9913846 4,13.2153846 L4,30.9384615 C4,32.1624615 5.008,33.1538462 6.25,33.1538462 L28.75,33.1538462 C29.992,33.1538462 31,32.1624615 31,30.9384615 L31,28.0584615 L38.1404615,29.4638462 C38.5973846,29.5538462 39.0709231,29.4375385 39.4309231,29.1467692 C39.7909231,28.856 40,28.4212308 40,27.9615385 L40,16.1909231 C40,15.7326154 39.7909231,15.2978462 39.4309231,15.0070769 L39.4309231,15.0070769 Z" id="Shape"></path>
        </g>
    </g>
</svg>