<?xml version="1.0" encoding="UTF-8" standalone="no"?>
<svg width="44px" height="44px" viewBox="0 0 44 44" version="1.1" xmlns="http://www.w3.org/2000/svg" xmlns:xlink="http://www.w3.org/1999/xlink">
    <!-- Generator: Sketch 3.7.2 (28276) - http://www.bohemiancoding.com/sketch -->
    <title>icons/world-west-active</title>
    <desc>Created with Sketch.</desc>
    <defs></defs>
    <g id="Icons" stroke="none" stroke-width="1" fill="none" fill-rule="evenodd">
        <g id="icons/world-west-active" fill="#7EBE59">
            <path d="M39.9890151,9.35758327 C39.9162629,9.36993742 37.7556591,8.96362311 35.92999,9.7295805 C35.3589537,9.9698001 34.0535317,11.1873703 32.9457762,10.1606031 C32.3212052,9.58270336 32.1111846,7.52093278 32.0288236,7.33287514 C31.0459822,5.1763894 28.0274513,5.25463236 27.6829077,3.91626596 C27.4179798,2.89773482 28.4543558,1.82978708 30.2278629,2.55319127 C34.1345201,4.14275874 34.650649,4.19492071 33.6678077,3.40013698 C33.5140671,3.27110473 33.2669841,3.12148223 32.9842113,2.96362363 C32.9114591,2.91695239 32.8400795,2.87851725 32.7796815,2.85106358 C32.716538,2.8167465 32.6492765,2.77968404 32.582015,2.74673964 C29.4371972,1.01166772 25.8421392,0 22.0027435,0 C14.8977338,0 8.60123468,3.37954672 4.58064477,8.60123468 C4.59848965,8.60123468 4.61221649,8.60398004 4.62868869,8.60398004 L4.50240181,8.72889424 C7.32875709,6.46122113 5.84488625,8.92106993 11.5840759,6.67124171 C11.7899784,6.58750801 13.413863,6.43788551 13.7405616,6.52299189 C19.6431006,8.07412422 22.3253241,6.48730212 22.5449535,6.33630694 C25.2656121,4.48455692 27.3685632,4.91969759 27.3836627,6.505147 C27.3918988,7.47837959 27.6650628,8.57652637 26.4776916,8.30336236 C24.7687007,7.90802952 23.7817413,6.1317771 23.5387763,8.07412422 C23.3630728,9.48661552 20.6465322,9.62800192 21.0844182,10.5284823 C21.367191,11.1132454 23.9409725,10.0233348 25.1063808,9.34522912 C26.2717891,8.66849617 27.2505124,9.95195522 27.32601,10.1166772 C28.1606016,11.9190106 30.6245684,12.6739866 30.8798875,12.7755651 C32.8579244,13.5593674 30.756346,14.6273151 29.5991738,15.2340412 C29.5689748,15.2505134 24.7838002,20.5929975 23.0597098,20.1935467 C22.8441984,20.14413 22.3225787,19.2916936 22.0384332,19.2203141 C16.5476993,17.8476306 19.4605337,25.6183918 20.8689069,22.5435808 C21.4564155,21.2628671 21.3699364,23.1777605 21.3795452,23.9546994 C21.389154,24.7302655 22.5573076,25.4975956 22.5573076,25.4975956 C22.6053515,25.58682 23.8558662,25.7227157 23.9533267,26.0521597 L24.3363054,26.289634 C24.3363054,26.289634 25.0514735,25.0885359 26.0494144,25.1969779 C28.5174993,25.4646512 32.3802306,27.8792014 32.794781,28.085104 C36.7920353,30.0851038 35.4454328,33.670553 31.6925162,35.6499626 C30.5037723,36.2827697 30.5929967,38.9032225 29.1956049,37.916263 C28.4021939,37.3589535 26.3870945,42.6863381 26.2690437,43.5827004 C34.9059682,41.8833183 41.7282051,35.1338336 43.5291658,26.5353443 C43.4756311,26.4667101 43.4193511,26.3925852 43.3658165,26.3102242 C43.380916,26.2772798 43.3946428,26.2484535 43.4042516,26.2278632 C43.4879853,26.0617685 43.4042516,25.6019196 43.3644438,25.478378 C43.3232633,25.3507185 43.2793374,25.2697302 43.2601198,25.0830452 C43.2381569,24.8949876 43.2807101,24.7906636 43.2601198,24.5188723 C43.2381569,24.251199 43.4248418,24.2704166 43.5099482,23.79135 C43.5923092,23.3122835 43.4481775,23.4399431 43.385034,23.1695244 C43.3616984,23.0679459 43.4124877,22.9924483 43.489358,22.9210687 C43.5209297,22.8963604 43.5566195,22.8689068 43.5950546,22.8359623 C43.6829063,22.7728189 43.7735034,22.7110482 43.818802,22.6396686 C43.901163,22.5655437 43.9382255,22.5257359 43.9766606,22.477692 C43.9807786,22.3184607 43.9999962,22.1660928 43.9999962,22.0027435 C44.0027416,17.2903211 42.5106346,12.9347964 39.9890151,9.35758327 L39.9890151,9.35758327 Z M24.090595,27.6732989 C24.5518167,26.7494829 23.0789273,26.7590917 22.2374724,26.0851041 C21.0102933,25.0995174 19.4701425,24.4296479 19.1846243,24.3129698 C18.5737801,24.0590233 16.2827714,21.9327366 15.7364434,21.2532583 C15.2724764,20.6698678 15.6019204,19.8888109 14.8043913,20.2388452 C14.7879191,20.2457086 14.7879191,20.2237457 14.7824284,20.2278637 C14.2525726,20.5792707 13.4619069,20.3733682 12.7604656,17.5703485 C12.6328061,17.065201 12.6575144,17.0322566 12.8222364,16.8002731 C13.7021265,15.6060385 10.7618385,11.8764575 10.1194226,11.102264 C9.79272394,10.7124219 8.67673227,11.0185303 8.20178378,11.0844191 C8.06314275,11.0020581 7.72820798,11.102264 7.60054842,11.102264 C7.45367129,11.102264 7.61976599,10.8949888 7.70487236,10.7302668 C7.78723337,10.5614267 7.61976599,10.6451604 7.49622448,10.6231974 C7.37131028,10.6039799 7.53740498,10.4392579 7.61976599,10.2498275 C7.7680158,9.92312887 6.45023967,10.8441995 6.123541,10.9965673 C5.72820816,11.1873703 5.89430286,11.2299235 5.77076134,11.375428 C5.64584715,11.5195598 5.58270371,11.8311589 5.43582657,11.9560731 C5.29306749,12.0837327 5.72820816,12.0164712 5.85312235,12.0398068 C6.01372632,12.0672605 5.91626579,12.6053524 5.56211345,12.5408363 C5.56211345,12.5408363 5.01715811,12.9238149 4.40219592,13.253259 C4.29924465,13.2738492 4.28963587,13.2120785 4.30061734,13.1530531 C4.46945741,13.0446111 4.56279988,12.8524354 4.7604663,12.8112549 C5.02951227,12.7536022 4.91695222,12.4776928 4.7604663,12.4365123 C4.70555896,12.4186674 4.68085066,12.3994499 4.67398724,12.3692508 C4.67810529,12.3417972 4.67810529,12.3225796 4.68222334,12.3088528 C4.6945775,12.2717903 4.72477653,12.2306098 4.75497557,12.1853112 C4.82910048,12.0754966 4.33493442,11.9972536 4.06451578,11.9972536 C3.79546982,11.9972536 3.85861326,11.8311589 3.79546982,11.5387773 C3.67741904,10.993822 5.26286846,10.7563477 4.62731601,10.3610149 C4.53946426,10.0109806 4.26355488,10.4927925 3.93273817,10.3843505 C3.84488642,10.3555242 3.69526392,10.4420032 3.57858583,10.5312276 C3.47700725,10.6053526 3.32052133,10.6135887 3.20384324,10.6177067 C1.18188047,13.9409734 0,17.828413 0,22.0041162 C0,34.156483 9.84900396,44.005487 22.0013708,44.005487 C22.9142053,44.005487 23.813313,43.9299894 24.6986938,43.8201747 C24.6904577,43.740559 24.8373349,41.5374021 25.0912813,40.7865442 C25.365818,39.9739156 25.8970465,35.1873683 25.7062435,33.9725434 C25.4317068,32.1921729 25.4083712,33.0171557 24.090595,27.6732989 L24.090595,27.6732989 Z" id="Shape"></path>
        </g>
    </g>
</svg>