<?xml version="1.0" encoding="UTF-8" standalone="no"?>
<svg width="44px" height="44px" viewBox="0 0 44 44" version="1.1" xmlns="http://www.w3.org/2000/svg" xmlns:xlink="http://www.w3.org/1999/xlink">
    <defs></defs>
    <g stroke="none" stroke-width="1" fill="none" fill-rule="evenodd">
        <g fill="#7EBE59">
            <path d="M35.9006026,12.2308598 C35.8443849,12.2404062 34.1748275,11.926436 32.7640832,12.5183122 C32.3228279,12.7039364 31.3140927,13.6447862 30.4580998,12.8513751 C29.9754767,12.4048162 29.8131881,10.8116299 29.7495455,10.6663126 C28.9900772,8.99993726 26.657576,9.06039773 26.3913378,8.02620552 C26.1866208,7.23915873 26.9874568,6.41392638 28.357894,6.97292053 C31.3766746,8.20122266 31.7755015,8.24152964 31.0160332,7.62737857 C30.8972337,7.52767184 30.7063059,7.41205445 30.4877996,7.2900728 C30.431582,7.25400867 30.3764251,7.22430879 30.3297539,7.20309459 C30.2809612,7.17657684 30.2289864,7.14793767 30.1770116,7.12248063 C27.7469251,5.78174324 24.9689257,5 22.00212,5 C16.5118852,5 11.6464086,7.61146792 8.53958914,11.6464086 C8.55337837,11.6464086 8.56398547,11.64853 8.57671399,11.64853 L8.47912867,11.7450546 C10.6631305,9.99276178 9.51650301,11.893554 13.9513314,10.1550504 C14.1104379,10.0903471 15.3652577,9.97472972 15.6177067,10.0404937 C20.1787595,11.239096 22.2513868,10.0129153 22.4211004,9.89623718 C24.5234275,8.46533944 26.1484352,8.8015845 26.160103,10.0267045 C26.1664673,10.7787479 26.3775485,11.6273158 25.4600344,11.4162346 C24.1394505,11.1107501 23.3768001,9.73819139 23.1890544,11.239096 C23.0532835,12.3305665 20.9541385,12.4398197 21.292505,13.1356454 C21.5110112,13.5875078 23.4998424,12.7453041 24.4003852,12.2213134 C25.3009279,11.6983834 26.0572141,12.6901472 26.1155532,12.8174324 C26.7604648,14.2101446 28.6644392,14.7935351 28.8617313,14.8720276 C30.3902143,15.477693 28.7662674,16.3029253 27.8720889,16.7717591 C27.8487533,16.7844877 24.1511183,20.9127708 22.8188666,20.6041042 C22.6523352,20.5659187 22.2492654,19.9072178 22.0296984,19.8520609 C17.7868586,18.7913509 20.0376851,24.79603 21.1259735,22.4200397 C21.5799574,21.4303973 21.5131327,22.9100877 21.5205576,23.5104495 C21.5279826,24.1097507 22.4306468,24.7026875 22.4306468,24.7026875 C22.4677716,24.7716337 23.4340784,24.876644 23.5093888,25.1312143 L23.8053269,25.3147172 C23.8053269,25.3147172 24.3579568,24.386596 25.1290929,24.470392 C27.0362494,24.6772305 30.0210873,26.5430193 30.3414217,26.7021258 C33.4302091,28.2475802 32.3896526,31.0181546 29.4896716,32.5476984 C28.5710967,33.0366857 28.6400429,35.061581 27.5602402,34.2989305 C26.9471498,33.8682823 25.3900276,37.9848976 25.2988065,38.6775412 C31.9727936,37.3643823 37.2445221,32.1488714 38.6361736,25.5045842 C38.5948059,25.4515488 38.5513168,25.3942704 38.5099491,25.3306278 C38.5216169,25.3051708 38.532224,25.2828959 38.539649,25.2669852 C38.6043523,25.1386393 38.539649,24.7833015 38.5088884,24.6878376 C38.4770671,24.5891916 38.4431243,24.5266097 38.4282744,24.3823531 C38.411303,24.2370358 38.4441851,24.1564219 38.4282744,23.9464013 C38.411303,23.7395629 38.5555596,23.7544128 38.6213236,23.384225 C38.6849662,23.0140373 38.5735917,23.1126833 38.524799,22.9037234 C38.5067669,22.8252309 38.5460132,22.7668918 38.605413,22.7117349 C38.6298093,22.6926421 38.6573878,22.6714279 38.6870876,22.6459709 C38.7549731,22.5971782 38.8249799,22.5494463 38.8599834,22.4942894 C38.923626,22.437011 38.9522651,22.4062505 38.981965,22.3691256 C38.9851471,22.2460832 38.9999971,22.1283444 38.9999971,22.00212 C39.0021185,18.3607027 37.8491268,14.99507 35.9006026,12.2308598 L35.9006026,12.2308598 Z M23.6154598,26.3839128 C23.9718584,25.670055 22.8337166,25.67748 22.1835014,25.1566714 C21.2352267,24.3950816 20.0451101,23.8774552 19.8244824,23.7872948 C19.3524665,23.5910635 17.5821416,21.9480238 17.159979,21.4229723 C16.801459,20.9721706 17.0560294,20.3686266 16.4397569,20.6391077 C16.4270284,20.6444112 16.4270284,20.6274398 16.4227856,20.630622 C16.0133515,20.9021637 15.4023826,20.7430572 14.8603598,18.5770875 C14.7617138,18.1867462 14.7808065,18.1612892 14.9080917,17.9820292 C15.5880068,17.0592115 13.3159661,14.1772626 12.8195538,13.5790222 C12.5671049,13.2777805 11.7047477,13.5143189 11.337742,13.5652329 C11.2306103,13.5015903 10.9717971,13.5790222 10.8731511,13.5790222 C10.7596551,13.5790222 10.888001,13.418855 10.953765,13.2915698 C11.0174076,13.1611024 10.888001,13.2258057 10.7925371,13.2088344 C10.6960125,13.1939844 10.8243584,13.0666993 10.888001,12.9203213 C11.0025577,12.6678723 9.9842761,13.3796087 9.73182713,13.4973475 C9.42634267,13.6447862 9.55468857,13.6776682 9.45922467,13.7901034 C9.36270007,13.901478 9.31390741,14.1422592 9.20041144,14.2387838 C9.09009761,14.3374298 9.42634267,14.285455 9.52286727,14.3034871 C9.64697034,14.3247013 9.57165993,14.7404996 9.29799676,14.6906462 C9.29799676,14.6906462 8.87689491,14.9865843 8.40169684,15.2411547 C8.3221436,15.2570653 8.31471863,15.2093334 8.32320431,15.1637228 C8.45367163,15.0799268 8.52579991,14.9314274 8.67854214,14.8996061 C8.8864413,14.8550562 8.79946308,14.6418535 8.67854214,14.6100322 C8.63611374,14.596243 8.61702097,14.5813931 8.61171742,14.5580575 C8.61489955,14.5368433 8.61489955,14.5219933 8.61808168,14.5113862 C8.62762807,14.482747 8.65096368,14.4509257 8.6742993,14.4159223 C8.73157764,14.3310655 8.34972206,14.2706051 8.14076219,14.2706051 C7.93286304,14.2706051 7.9816557,14.1422592 7.93286304,13.9163279 C7.84164198,13.4952261 9.06676199,13.3117233 8.57565328,13.0062388 C8.50776784,12.7357577 8.29456514,13.1080669 8.03893404,13.0242709 C7.9710486,13.0019959 7.85543121,13.0688207 7.76527087,13.1377668 C7.68677833,13.1950452 7.56585739,13.2014094 7.47569705,13.2045915 C5.91327128,15.7725704 5,18.776501 5,22.0031807 C5,31.393646 12.610594,39.0042399 22.0010592,39.0042399 C22.7064314,39.0042399 23.4011964,38.9459009 24.0853543,38.8610441 C24.0789901,38.7995229 24.192486,37.0970834 24.3887174,36.5168751 C24.6008594,35.8889348 25.0113541,32.1902391 24.8639154,31.2515108 C24.6517734,29.87577 24.6337414,30.5132567 23.6154598,26.3839128 L23.6154598,26.3839128 Z"></path>
        </g>
    </g>
</svg>